<svg width="17" height="18" viewBox="0 0 17 18" fill="none" xmlns="http://www.w3.org/2000/svg">
<path d="M16 11.4248V14.7581C16 15.2002 15.8244 15.6241 15.5118 15.9366C15.1993 16.2492 14.7754 16.4248 14.3333 16.4248H2.66667C2.22464 16.4248 1.80072 16.2492 1.48816 15.9366C1.17559 15.6241 1 15.2002 1 14.7581V11.4248" stroke="#818181" stroke-width="1.7" stroke-linecap="round" stroke-linejoin="round"/>
<path fill-rule="evenodd" clip-rule="evenodd" d="M8.13186 12.1917C8.24248 12.2449 8.36638 12.2748 8.49723 12.2752C8.49807 12.2752 8.4989 12.2752 8.49974 12.2752C8.50414 12.2752 8.50853 12.2752 8.51292 12.2751C8.61062 12.2736 8.70432 12.2556 8.79137 12.2238C8.9043 12.1827 9.01026 12.1168 9.10086 12.0262L13.2675 7.85957C13.5995 7.52762 13.5995 6.98943 13.2675 6.65749C12.9356 6.32554 12.3974 6.32554 12.0654 6.65749L9.34974 9.37319L9.34974 1.42519C9.34974 0.955753 8.96918 0.575195 8.49974 0.575195C8.0303 0.575195 7.64974 0.955753 7.64974 1.42519L7.64974 9.37303L4.9342 6.65749C4.60225 6.32554 4.06406 6.32554 3.73211 6.65749C3.40017 6.98943 3.40017 7.52762 3.73211 7.85957L7.89171 12.0192C7.91852 12.0466 7.94717 12.0722 7.97746 12.0959C8.02608 12.1338 8.07789 12.1658 8.13186 12.1917Z" fill="#818181"/>
</svg>
