<svg width="36" height="32" viewBox="0 0 36 32" fill="none" xmlns="http://www.w3.org/2000/svg">
<path d="M0.85 9.60115L0.85 9.601C0.849799 8.43974 1.08396 7.28983 1.53907 6.21836C1.9942 5.14688 2.66132 4.17501 3.50197 3.35987C4.34265 2.54471 5.34001 1.90266 6.43602 1.47176C7.53205 1.04086 8.7044 0.829918 9.88445 0.851504L9.90446 0.851635C11.3137 0.844243 12.7082 1.13276 13.9953 1.69774C15.2825 2.2627 16.4325 3.09102 17.3696 4.12717C17.5307 4.30535 17.7598 4.40702 18 4.40702C18.2402 4.40702 18.4693 4.30535 18.6304 4.12717C19.5675 3.09102 20.7175 2.2627 22.0046 1.69774C23.2918 1.13276 24.6863 0.844243 26.0955 0.851635L26.1155 0.851504C27.2956 0.829918 28.468 1.04086 29.564 1.47176C30.66 1.90266 31.6573 2.54471 32.498 3.35987C33.3387 4.17501 34.0058 5.14688 34.4609 6.21836C34.916 7.28982 35.1502 8.43974 35.15 9.601V9.60115C35.15 14.0122 32.4863 17.9805 28.8421 21.6379C27.0315 23.4549 25.013 25.1619 23.0255 26.7801C22.456 27.2437 21.8871 27.7017 21.3263 28.1531C20.1604 29.0914 19.0298 30.0015 18.0028 30.8757C16.9307 29.9546 15.7455 28.9976 14.5245 28.0116C14.0144 27.5997 13.498 27.1827 12.981 26.7612C10.9934 25.1407 8.97431 23.4357 7.16263 21.6218C3.51628 17.971 0.85 14.0149 0.85 9.60115Z" stroke="#FAFAFA" stroke-width="1.7" stroke-linejoin="round"/>
</svg>
