
<svg width="21" height="20" viewBox="0 0 21 20" fill="none" xmlns="http://www.w3.org/2000/svg">
<path d="M10.5 18.75C5.66751 18.75 1.75 14.8325 1.75 10C1.75 5.16751 5.66751 1.25 10.5 1.25C15.3325 1.25 19.25 5.16751 19.25 10C19.25 14.8325 15.3325 18.75 10.5 18.75ZM10.5 20C16.0228 20 20.5 15.5228 20.5 10C20.5 4.47715 16.0228 0 10.5 0C4.97715 0 0.5 4.47715 0.5 10C0.5 15.5228 4.97715 20 10.5 20Z" fill="#9092A9"/>
<path d="M11.6634 8.23486L8.79961 8.59375L8.69707 9.06982L9.26104 9.17236C9.62725 9.26025 9.70049 9.39209 9.61992 9.7583L8.69707 14.0942C8.45537 15.2148 8.82891 15.7422 9.70781 15.7422C10.389 15.7422 11.18 15.4272 11.5389 14.9951L11.6487 14.4751C11.3997 14.6948 11.0335 14.7827 10.7918 14.7827C10.4476 14.7827 10.323 14.541 10.4109 14.1162L11.6634 8.23486Z" fill="#9092A9"/>
<path d="M11.75 5.625C11.75 6.31536 11.1904 6.875 10.5 6.875C9.80964 6.875 9.25 6.31536 9.25 5.625C9.25 4.93464 9.80964 4.375 10.5 4.375C11.1904 4.375 11.75 4.93464 11.75 5.625Z" fill="#9092A9"/>
</svg>
