<svg width="18" height="17" viewBox="0 0 18 17" fill="none" xmlns="http://www.w3.org/2000/svg">
<path d="M16.7417 12.2304V14.4885C16.7426 14.6981 16.6996 14.9056 16.6154 15.0977C16.5313 15.2898 16.4078 15.4622 16.2531 15.6039C16.0983 15.7456 15.9156 15.8535 15.7166 15.9207C15.5176 15.9878 15.3068 16.0128 15.0976 15.9939C12.7768 15.7422 10.5475 14.9508 8.58887 13.6831C6.7666 12.5274 5.22163 10.9855 4.06369 9.16689C2.78908 7.20324 1.99587 4.96756 1.74831 2.64096C1.72946 2.43282 1.75425 2.22303 1.82109 2.02497C1.88793 1.82691 1.99536 1.6449 2.13654 1.49055C2.27773 1.33619 2.44956 1.21287 2.64112 1.12843C2.83267 1.04398 3.03975 1.00027 3.24916 1.00007H5.51175C5.87776 0.996478 6.2326 1.12583 6.51012 1.36403C6.78764 1.60222 6.96891 1.93301 7.02014 2.29472C7.11564 3.01736 7.29274 3.72691 7.54808 4.40981C7.64955 4.67922 7.67151 4.97202 7.61136 5.2535C7.55121 5.53498 7.41146 5.79336 7.20869 5.99801L6.25086 6.95394C7.3245 8.83837 8.88787 10.3986 10.776 11.4702L11.7339 10.5142C11.9389 10.3118 12.1978 10.1724 12.4799 10.1123C12.7619 10.0523 13.0553 10.0742 13.3252 10.1755C14.0095 10.4303 14.7204 10.6071 15.4445 10.7024C15.8109 10.754 16.1455 10.9381 16.3846 11.2199C16.6238 11.5016 16.7509 11.8612 16.7417 12.2304Z" stroke="#404366" stroke-width="2" stroke-linecap="round" stroke-linejoin="round"/>
</svg>
