<svg width="34" height="33" viewBox="0 0 34 33" fill="none" xmlns="http://www.w3.org/2000/svg">
<ellipse cx="17" cy="16.407" rx="17" ry="16.407" fill="#4B4B4B" fill-opacity="0.7"/>
<path d="M7.85 13.8986L7.85 13.8984C7.8499 13.3218 7.96763 12.7505 8.19691 12.2175C8.42621 11.6845 8.76278 11.2 9.18806 10.7928C9.61339 10.3856 10.1189 10.0641 10.6755 9.84799C11.2322 9.63191 11.8281 9.52595 12.4283 9.53679L12.448 9.53692C13.1711 9.53317 13.886 9.67935 14.5454 9.9651C15.2047 10.2508 15.7925 10.6692 16.2707 11.1913C16.4318 11.3671 16.6592 11.4672 16.8975 11.4672C17.1359 11.4672 17.3633 11.3671 17.5243 11.1913C18.0025 10.6692 18.5904 10.2508 19.2497 9.9651C19.909 9.67935 20.624 9.53317 21.347 9.53692L21.3668 9.53679C21.967 9.52595 22.5629 9.63191 23.1196 9.84799C23.6762 10.0641 24.1817 10.3856 24.607 10.7928C25.0323 11.2 25.3689 11.6845 25.5982 12.2175C25.8274 12.7505 25.9452 13.3218 25.9451 13.8984V13.8986C25.9451 16.1293 24.5783 18.1871 22.592 20.1553C21.6111 21.1273 20.5138 22.044 19.4234 22.9205C19.1146 23.1687 18.8043 23.4153 18.4973 23.6593C17.945 24.0982 17.4034 24.5286 16.9001 24.9451C16.3708 24.5034 15.7991 24.0476 15.2168 23.5833C14.9376 23.3608 14.656 23.1362 14.3754 22.9104C13.2847 22.0323 12.187 21.1167 11.2053 20.1463C9.21771 18.1814 7.85 16.1304 7.85 13.8986Z" stroke="#FAFAFA" stroke-width="1.7" stroke-linejoin="round"/>
</svg>
