<svg width="34" height="35" viewBox="0 0 34 35" fill="none" xmlns="http://www.w3.org/2000/svg">
<ellipse cx="17" cy="17.0548" rx="17" ry="17.0548" fill="#4B4B4B" fill-opacity="0.7"/>
<path d="M7.85 14.4184L7.85 14.4182C7.8499 13.8096 7.96949 13.2074 8.20149 12.6468C8.43348 12.0862 8.77307 11.5789 9.19984 11.1542C9.62657 10.7296 10.1319 10.396 10.686 10.1724C11.24 9.94884 11.8321 9.8396 12.4277 9.85078L12.4482 9.85092C13.1663 9.84705 13.8773 9.9979 14.5343 10.2939C15.1912 10.5898 15.7796 11.0244 16.2598 11.5693C16.4212 11.7525 16.6535 11.8574 16.8975 11.8574C17.1416 11.8574 17.3739 11.7525 17.5353 11.5693C18.0155 11.0244 18.6038 10.5898 19.2608 10.2939C19.9178 9.9979 20.6288 9.84705 21.3469 9.85092L21.3674 9.85078C21.963 9.8396 22.555 9.94884 23.1091 10.1724C23.6632 10.396 24.1685 10.7296 24.5952 11.1542C25.022 11.5789 25.3616 12.0862 25.5936 12.6468C25.8256 13.2074 25.9452 13.8096 25.9451 14.4182V14.4184C25.9451 16.7638 24.564 18.9145 22.5804 20.9577C21.5989 21.9686 20.5013 22.9218 19.4109 23.8329C19.102 24.0911 18.7917 24.3474 18.4846 24.6011C17.937 25.0535 17.3998 25.4972 16.9002 25.9267C16.3744 25.471 15.8072 25.0009 15.2294 24.5221C14.9502 24.2907 14.6685 24.0573 14.3879 23.8224C13.2972 22.9097 12.1991 21.9576 11.2169 20.9483C9.23206 18.9087 7.85 16.765 7.85 14.4184Z" stroke="#FAFAFA" stroke-width="1.7" stroke-linejoin="round"/>
</svg>
