<svg width="125" height="50" viewBox="0 0 125 50" fill="none" xmlns="http://www.w3.org/2000/svg">
<path d="M12.0694 39.7595H13.2045C12.8979 40.9983 12.2705 42.051 11.3127 42.9079C10.3643 43.7501 9.05679 44.1712 7.38528 44.1712C5.18692 44.1712 3.40525 43.4318 2.04984 41.9482C0.684845 40.4597 0 38.555 0 36.2341C0 33.9377 0.66569 32.0868 1.99236 30.6717C3.31904 29.242 5.02891 28.5271 7.12189 28.5271C7.73494 28.5271 8.38629 28.625 9.08076 28.8209C9.77522 29.0167 10.3596 29.1147 10.8337 29.1147C11.2073 29.1147 11.5904 29.0559 11.9783 28.9384C12.1316 30.5053 12.4525 31.9007 12.941 33.12H11.3509C10.3116 30.7648 8.90357 29.5749 7.12669 29.5602C5.9437 29.5602 5.04327 30.0597 4.42544 31.0586C3.8076 32.0574 3.49625 33.5313 3.49625 35.4849C3.49625 37.7079 3.89377 39.5343 4.68882 40.9542C5.48866 42.3693 6.63334 43.0744 8.11328 43.0744C8.99933 43.0744 9.78961 42.8002 10.4793 42.2469C11.1642 41.6985 11.6958 40.8661 12.0694 39.7595Z" fill="black"/>
<path d="M19.8139 31.5874C21.2555 31.5874 22.5678 32.1505 23.7556 33.2718C24.929 34.398 25.5181 35.9256 25.5181 37.8597C25.5181 38.8439 25.3505 39.7449 25.0153 40.5626C24.68 41.3803 24.225 42.0511 23.6503 42.5652C22.5104 43.5739 21.2411 44.0733 19.8378 44.0733C18.3962 44.0733 17.0791 43.5102 15.8961 42.3889C14.7179 41.2579 14.1335 39.7253 14.1335 37.7863C14.1335 36.8119 14.3012 35.911 14.6413 35.0884C14.9813 34.2658 15.4315 33.5998 15.9967 33.0906C17.1222 32.0917 18.3914 31.5874 19.8139 31.5874ZM20.1922 43.1675C20.834 43.1675 21.3274 42.7855 21.6674 42.0266C22.0123 41.2676 22.1847 40.1904 22.1847 38.7998C22.1847 36.9441 21.9308 35.4262 21.428 34.256C20.9394 33.0759 20.2833 32.4883 19.4595 32.4883C18.8177 32.4883 18.3243 32.8654 17.9843 33.6243C17.6395 34.3833 17.4671 35.4507 17.4671 36.8315C17.4671 38.697 17.7209 40.2247 18.2238 41.4096C18.7267 42.5799 19.3828 43.1675 20.1922 43.1675Z" fill="black"/>
<path d="M30.9207 30.956V42.115C30.9207 42.59 31.414 42.8837 32.3958 42.9915V43.8092C30.3794 43.721 28.3583 43.721 26.3276 43.8092V42.9915C27.2807 42.8837 27.7597 42.59 27.7597 42.115V30.2852C27.7597 29.8348 27.6447 29.5263 27.41 29.3598C27.1754 29.1982 26.8257 29.1541 26.3515 29.2325V28.4148C27.9608 28.1161 29.3306 27.6216 30.4513 26.9263C30.7435 27.0585 30.9494 27.2641 31.0692 27.5481C30.9877 28.17 30.9398 29.3059 30.9207 30.956Z" fill="black"/>
<path d="M37.7026 30.956V42.115C37.7026 42.59 38.1959 42.8837 39.1778 42.9915V43.8092C37.1614 43.721 35.1403 43.721 33.1096 43.8092V42.9915C34.0627 42.8837 34.5416 42.59 34.5416 42.115V30.2852C34.5416 29.8348 34.4267 29.5263 34.192 29.3598C33.9573 29.1982 33.6077 29.1541 33.1335 29.2325V28.4148C34.7428 28.1161 36.1126 27.6216 37.2333 26.9263C37.5254 27.0585 37.7314 27.2641 37.8511 27.5481C37.7697 28.17 37.717 29.3059 37.7026 30.956Z" fill="black"/>
<path d="M49.3071 41.366H50.2027C49.4172 43.163 47.9756 44.0689 45.8826 44.0836C44.2254 44.0836 42.8269 43.5254 41.6918 42.409C40.5615 41.2828 39.9963 39.7551 39.9963 37.821C39.9963 35.8674 40.552 34.3446 41.6583 33.2429C42.7743 32.1412 44.0914 31.5928 45.6096 31.5928C47.0081 31.5928 48.1719 32.0579 49.1011 32.9883C50.0254 33.9088 50.4852 35.0497 50.4852 36.406C50.4852 37.0082 50.3799 37.4391 50.1739 37.6986C49.968 37.9581 49.6184 38.0903 49.1203 38.0903H43.3011C43.3011 39.5446 43.5645 40.7491 44.0913 41.7088C44.6325 42.6685 45.4564 43.1484 46.5675 43.1484C47.8271 43.1435 48.7419 42.551 49.3071 41.366ZM43.3059 37.2188H47.5541C47.5541 35.6323 47.3961 34.4474 47.0847 33.664C46.7734 32.8805 46.2705 32.4888 45.5856 32.4888C44.8672 32.4888 44.3069 32.905 43.9093 33.7374C43.5022 34.5649 43.3059 35.7303 43.3059 37.2188Z" fill="black"/>
<path d="M62.6268 31.6315C63.4602 31.6315 63.8769 32.0428 63.8769 32.8703C63.8769 33.6341 63.5943 34.016 63.0292 34.016C62.943 34.016 62.7849 33.9867 62.555 33.923C62.3204 33.8593 62.1767 33.83 62.1144 33.83C61.8031 33.83 61.6929 33.9964 61.7935 34.3343C61.9707 34.9219 62.0521 35.4605 62.0473 35.9599C62.0473 37.2232 61.5875 38.2417 60.6728 39.0055C59.7723 39.7644 58.6037 40.1415 57.1669 40.1415C56.664 40.1415 56.142 40.0827 55.596 39.9652C55.0787 39.8379 54.7626 39.7791 54.6572 39.7791C54.1927 39.7791 53.9579 39.9701 53.9579 40.352C53.9579 40.6115 54.0873 40.8123 54.3459 40.9543C54.6045 41.1012 55.0691 41.2236 55.7301 41.3362L58.4552 41.7671C60.0837 42.0266 61.2714 42.3742 62.0282 42.81C62.7705 43.2409 63.1393 43.9068 63.1393 44.8127C63.1393 46.0857 62.5263 47.0993 61.305 47.8582C60.0837 48.6221 58.575 49.004 56.7789 49.004C55.2607 49.004 54.0202 48.7249 53.0671 48.1618C52.1188 47.6134 51.6447 46.8251 51.6447 45.7968C51.6447 45.2338 51.7979 44.7784 52.1092 44.4258C52.4205 44.0733 52.8229 43.897 53.3306 43.897C53.7329 43.897 54.0586 44.0047 54.3028 44.2202C54.5471 44.4356 54.6716 44.7392 54.6716 45.126C54.6716 45.2876 54.6381 45.5031 54.5662 45.7724C54.4992 46.0466 54.4609 46.2816 54.4609 46.4872C54.4609 46.9622 54.6907 47.3637 55.1457 47.6918C55.6103 48.0296 56.2569 48.1961 57.0807 48.1961C58.0577 48.1961 58.8719 47.9758 59.5185 47.5302C60.1746 47.0944 60.5051 46.4823 60.5051 45.7038C60.5051 45.2582 60.3711 44.9106 60.1028 44.6609C59.8346 44.4112 59.394 44.23 58.7762 44.1223L54.6668 43.3731C52.7558 43.0353 51.8027 42.2861 51.8027 41.1256C51.8027 40.5724 52.0135 40.1219 52.4349 39.7742C52.8564 39.4266 53.4263 39.2454 54.1543 39.2307C53.5509 38.9418 53.0671 38.5012 52.7031 37.9038C52.3391 37.3064 52.1571 36.6307 52.1571 35.8718C52.1571 34.6526 52.6121 33.6341 53.5221 32.8164C54.4321 31.9987 55.6103 31.5874 57.0615 31.5874C57.9188 31.5874 58.6229 31.7245 59.1785 31.9987C59.7292 32.2631 60.2609 32.6401 60.7686 33.1249C61.0847 32.1309 61.7025 31.6315 62.6268 31.6315ZM55.663 38.2857C55.96 38.932 56.4389 39.2552 57.0951 39.2552C57.7512 39.2552 58.2301 38.932 58.5271 38.2857C58.824 37.6443 58.9725 36.8413 58.9725 35.8718C58.9725 34.9121 58.824 34.1042 58.5271 33.448C58.2301 32.7919 57.7512 32.4639 57.0951 32.4639C56.4389 32.4639 55.96 32.7919 55.663 33.448C55.3661 34.1042 55.2176 34.9121 55.2176 35.8718C55.2176 36.8413 55.3661 37.6443 55.663 38.2857Z" fill="black"/>
<path d="M73.6423 41.366H74.538C73.7525 43.163 72.3109 44.0689 70.2179 44.0836C68.5608 44.0836 67.1622 43.5254 66.0271 42.409C64.8968 41.2828 64.3317 39.7551 64.3317 37.821C64.3317 35.8674 64.8872 34.3446 65.9936 33.2429C67.1095 32.1412 68.4266 31.5928 69.9449 31.5928C71.3434 31.5928 72.5073 32.0579 73.4364 32.9883C74.3608 33.9088 74.8206 35.0497 74.8206 36.406C74.8206 37.0082 74.7152 37.4391 74.5092 37.6986C74.3033 37.9581 73.9537 38.0903 73.4556 38.0903H67.6364C67.6364 39.5446 67.8998 40.7491 68.4267 41.7088C68.9679 42.6685 69.7916 43.1484 70.9028 43.1484C72.1672 43.1435 73.0772 42.551 73.6423 41.366ZM67.6412 37.2188H71.8894C71.8894 35.6323 71.7314 34.4474 71.4201 33.664C71.1088 32.8805 70.6059 32.4888 69.921 32.4888C69.2026 32.4888 68.6422 32.905 68.2447 33.7374C67.8424 34.5649 67.6412 35.7303 67.6412 37.2188Z" fill="black"/>
<path d="M83.4896 35.299L87.2349 40.4745C88.5041 42.2323 89.6584 43.1676 90.7073 43.2851V43.8139C89.7254 44.3574 87.8767 44.0538 87.029 43.7551C86.1956 43.4662 85.4293 42.8297 84.7253 41.8455L81.5882 37.4779L80.8314 38.3446V41.7966C80.8314 42.2128 80.956 42.5016 81.205 42.6681C81.4541 42.8346 81.9091 42.9423 82.5748 42.9913V43.809C80.3094 43.7307 78.0488 43.7307 75.793 43.809V42.9913C76.4587 42.9423 76.9137 42.8395 77.1627 42.6681C77.4118 42.5016 77.5363 42.2079 77.5363 41.7966V30.9314C77.5363 30.5201 77.4118 30.2263 77.1627 30.0598C76.9137 29.8933 76.4587 29.7856 75.793 29.7366V28.9189C78.0584 28.9973 80.319 28.9973 82.5748 28.9189V29.7366C81.9091 29.7856 81.4541 29.8884 81.205 30.0598C80.956 30.2263 80.8314 30.5201 80.8314 30.9314V36.8316L85.5251 31.5043C86.3345 30.427 85.9514 29.8395 84.3804 29.7366V28.9189C86.2052 28.9826 88.0252 28.9826 89.8452 28.9189V29.7366C89.213 29.7856 88.691 29.9276 88.2886 30.1675C87.8911 30.3928 87.4553 30.7747 86.9811 31.3133L83.4896 35.299Z" fill="black"/>
<path d="M96.124 35.5928V42.1148C96.124 42.5898 96.6173 42.8835 97.5991 42.9913V43.809C95.5828 43.7208 93.5617 43.7208 91.531 43.809V42.9913C92.4841 42.8835 92.963 42.5898 92.963 42.1148V34.9122C92.963 34.4421 92.848 34.1287 92.6229 33.9622C92.3978 33.8007 92.0386 33.7566 91.5501 33.8349V33.0172C93.1594 32.7185 94.5292 32.224 95.6499 31.5287C95.9325 31.6609 96.1384 31.8715 96.2677 32.1604C96.1863 32.7871 96.1384 33.928 96.124 35.5928ZM95.6451 29.5163C95.3242 29.8541 94.941 30.0206 94.486 30.0206C94.031 30.0206 93.6479 29.8541 93.3174 29.5163C92.987 29.1784 92.8241 28.7818 92.8241 28.3216C92.8241 27.8613 92.987 27.4647 93.3174 27.1366C93.6479 26.8086 94.0358 26.647 94.486 26.647C94.9362 26.647 95.3242 26.8086 95.6451 27.1366C95.966 27.4647 96.124 27.8564 96.124 28.3216C96.124 28.7867 95.9612 29.1784 95.6451 29.5163Z" fill="black"/>
<path d="M110.473 35.7547V42.1103C110.473 42.5852 110.967 42.879 111.948 42.9867V43.8044C109.918 43.7408 107.877 43.7408 105.832 43.8044V42.9867C106.819 42.9084 107.307 42.6146 107.307 42.1103V35.7547C107.307 33.9577 106.728 33.0519 105.564 33.0372C104.908 33.0372 104.352 33.2918 103.902 33.7961C103.442 34.3102 103.155 34.8244 103.03 35.3434V42.1103C103.03 42.6244 103.524 42.9182 104.506 42.9867V43.8044C102.475 43.7408 100.444 43.7408 98.4135 43.8044V42.9867C99.3809 42.8839 99.8694 42.5901 99.8694 42.1103V34.9125C99.8694 34.0311 99.3905 33.6737 98.4374 33.8353V33.0176C99.97 32.7042 101.292 32.2097 102.398 31.5291C102.671 31.6564 102.877 31.8669 103.007 32.1607L102.652 34.3151H102.801C102.997 33.9332 103.241 33.5562 103.524 33.189C103.835 32.807 104.309 32.4398 104.946 32.0873C105.593 31.7102 106.292 31.5242 107.044 31.5242C108.021 31.5242 108.835 31.8424 109.482 32.4839C110.148 33.1351 110.473 34.227 110.473 35.7547Z" fill="black"/>
<path d="M123.75 31.6315C124.583 31.6315 125 32.0428 125 32.8703C125 33.6341 124.717 34.016 124.152 34.016C124.066 34.016 123.908 33.9867 123.678 33.923C123.443 33.8593 123.3 33.83 123.237 33.83C122.926 33.83 122.816 33.9964 122.916 34.3343C123.094 34.9219 123.175 35.4605 123.17 35.9599C123.17 37.2232 122.71 38.2417 121.796 39.0055C120.895 39.7644 119.727 40.1415 118.29 40.1415C117.787 40.1415 117.265 40.0827 116.719 39.9652C116.202 39.8379 115.886 39.7791 115.78 39.7791C115.316 39.7791 115.081 39.9701 115.081 40.352C115.081 40.6115 115.21 40.8123 115.469 40.9543C115.727 41.1012 116.192 41.2236 116.853 41.3362L119.578 41.7671C121.207 42.0266 122.394 42.3742 123.151 42.81C123.894 43.2409 124.262 43.9068 124.262 44.8127C124.262 46.0857 123.649 47.0993 122.428 47.8582C121.207 48.6221 119.698 49.004 117.902 49.004C116.384 49.004 115.143 48.7249 114.19 48.1618C113.242 47.6134 112.768 46.8251 112.768 45.7968C112.768 45.2338 112.921 44.7784 113.232 44.4258C113.543 44.0733 113.946 43.897 114.453 43.897C114.856 43.897 115.181 44.0047 115.426 44.2202C115.67 44.4356 115.794 44.7392 115.794 45.126C115.794 45.2876 115.761 45.5031 115.689 45.7724C115.622 46.0466 115.584 46.2816 115.584 46.4872C115.584 46.9622 115.814 47.3637 116.269 47.6918C116.733 48.0296 117.38 48.1961 118.204 48.1961C119.181 48.1961 119.995 47.9758 120.641 47.5302C121.298 47.0944 121.628 46.4823 121.628 45.7038C121.628 45.2582 121.494 44.9106 121.226 44.6609C120.958 44.4112 120.517 44.23 119.899 44.1223L115.79 43.3731C113.879 43.0353 112.926 42.2861 112.926 41.1256C112.926 40.5724 113.136 40.1219 113.558 39.7742C113.979 39.4266 114.549 39.2454 115.277 39.2307C114.674 38.9418 114.19 38.5012 113.826 37.9038C113.462 37.3064 113.28 36.6307 113.28 35.8718C113.28 34.6526 113.735 33.6341 114.645 32.8164C115.555 31.9987 116.733 31.5874 118.184 31.5874C119.042 31.5874 119.746 31.7245 120.301 31.9987C120.852 32.2631 121.384 32.6401 121.892 33.1249C122.212 32.1309 122.825 31.6315 123.75 31.6315ZM116.786 38.2857C117.083 38.932 117.562 39.2552 118.218 39.2552C118.874 39.2552 119.353 38.932 119.65 38.2857C119.947 37.6443 120.095 36.8413 120.095 35.8718C120.095 34.9121 119.947 34.1042 119.65 33.448C119.353 32.7919 118.874 32.4639 118.218 32.4639C117.562 32.4639 117.083 32.7919 116.786 33.448C116.489 34.1042 116.34 34.9121 116.34 35.8718C116.34 36.8413 116.489 37.6443 116.786 38.2857Z" fill="black"/>
<path d="M62.5051 8.26697L66.061 4.63159L62.5051 0.996211L58.9491 4.63159L62.5051 8.26697Z" fill="#FFBF00"/>
<path d="M50.49 20.3114C53.4367 20.3114 55.8254 17.8692 55.8254 14.8567C55.8254 11.8442 53.4367 9.4021 50.49 9.4021C47.5433 9.4021 45.1545 11.8442 45.1545 14.8567C45.1545 17.8692 47.5433 20.3114 50.49 20.3114Z" fill="#FFBF00"/>
<path d="M62.4974 20.3114C65.4441 20.3114 67.8329 17.8692 67.8329 14.8567C67.8329 11.8442 65.4441 9.4021 62.4974 9.4021C59.5508 9.4021 57.162 11.8442 57.162 14.8567C57.162 17.8692 59.5508 20.3114 62.4974 20.3114Z" fill="#FFBF00"/>
<path d="M74.5044 20.3114C77.4511 20.3114 79.8399 17.8692 79.8399 14.8567C79.8399 11.8442 77.4511 9.4021 74.5044 9.4021C71.5577 9.4021 69.1689 11.8442 69.1689 14.8567C69.1689 17.8692 71.5577 20.3114 74.5044 20.3114Z" fill="#FFBF00"/>
<path d="M74.5044 22.4944H50.4902V23.7919H74.5044V22.4944Z" fill="#FFBF00"/>
</svg>
