<svg width="21" height="20" viewBox="0 0 21 20" fill="none" xmlns="http://www.w3.org/2000/svg">
<g clip-path="url(#clip0_296_6293)">
<path d="M3.62486 0.625C3.62486 0.45924 3.69071 0.300269 3.80792 0.183058C3.92513 0.065848 4.0841 0 4.24986 0L16.7499 0C16.9156 0 17.0746 0.065848 17.1918 0.183058C17.309 0.300269 17.3749 0.45924 17.3749 0.625C17.3749 1.2975 17.3599 1.9375 17.3324 2.545C17.8263 2.62679 18.2988 2.80665 18.7221 3.07398C19.1454 3.3413 19.5109 3.69068 19.797 4.10151C20.0831 4.51234 20.2841 4.9763 20.388 5.46603C20.492 5.95577 20.4968 6.46135 20.4022 6.95298C20.3077 7.44461 20.1156 7.91233 19.8374 8.32855C19.5592 8.74477 19.2004 9.10107 18.7823 9.37643C18.3642 9.6518 17.8952 9.84065 17.4029 9.93186C16.9107 10.0231 16.4051 10.0148 15.9161 9.9075C14.9286 12.2388 13.5686 13.3788 12.3749 13.6713V16.3875L14.1561 16.8325C14.3986 16.8925 14.6274 17.0012 14.8274 17.1512L17.1249 18.875C17.2298 18.9537 17.3073 19.0634 17.3464 19.1886C17.3855 19.3139 17.3843 19.4482 17.3428 19.5726C17.3013 19.6971 17.2217 19.8053 17.1153 19.882C17.0089 19.9587 16.881 20 16.7499 20H4.24986C4.11869 20 3.99084 19.9587 3.88442 19.882C3.778 19.8053 3.69842 19.6971 3.65694 19.5726C3.61545 19.4482 3.61418 19.3139 3.65329 19.1886C3.69241 19.0634 3.76992 18.9537 3.87486 18.875L6.17236 17.1512C6.37236 17.0012 6.60111 16.8925 6.84361 16.8325L8.62486 16.3875V13.6713C7.43111 13.3788 6.07111 12.2388 5.08361 9.90625C4.59435 10.0141 4.08843 10.0229 3.59573 9.93193C3.10303 9.84101 2.63355 9.65228 2.215 9.37689C1.79646 9.1015 1.43735 8.74503 1.15887 8.32854C0.880394 7.91204 0.688201 7.44397 0.593641 6.95195C0.499081 6.45994 0.504072 5.95397 0.60832 5.46392C0.712569 4.97387 0.91396 4.50968 1.2006 4.09876C1.48724 3.68784 1.85332 3.33852 2.27721 3.07144C2.7011 2.80436 3.17422 2.62493 3.66861 2.54375C3.63919 1.90459 3.6246 1.26484 3.62486 0.625ZM3.74861 3.8C3.09635 3.91935 2.51821 4.29292 2.14137 4.83853C1.76454 5.38415 1.61989 6.05711 1.73924 6.70937C1.85859 7.36164 2.23216 7.93978 2.77777 8.31661C3.32338 8.69345 3.99635 8.8381 4.64861 8.71875C4.23236 7.40625 3.91361 5.78625 3.74861 3.8ZM16.3524 8.71875C17.0046 8.8381 17.6776 8.69345 18.2232 8.31661C18.7688 7.93978 19.1424 7.36164 19.2617 6.70937C19.3811 6.05711 19.2364 5.38415 18.8596 4.83853C18.4828 4.29292 17.9046 3.91935 17.2524 3.8C17.0861 5.7875 16.7674 7.40625 16.3524 8.71875ZM4.87986 1.25C4.88861 1.89625 4.91236 2.5075 4.94986 3.08625C5.11236 5.62125 5.52111 7.51875 6.03736 8.92C7.11736 11.85 8.60486 12.5 9.24986 12.5C9.41562 12.5 9.57459 12.5658 9.6918 12.6831C9.80901 12.8003 9.87486 12.9592 9.87486 13.125V16.3875C9.87486 16.6662 9.78173 16.9368 9.61029 17.1565C9.43885 17.3762 9.19892 17.5323 8.92861 17.6L7.14611 18.045C7.06519 18.0651 6.98911 18.1013 6.92236 18.1512L6.12486 18.75H14.8749L14.0774 18.1512C14.0102 18.1011 13.9337 18.065 13.8524 18.045L12.0711 17.6C11.8008 17.5323 11.5609 17.3762 11.3894 17.1565C11.218 16.9368 11.1249 16.6662 11.1249 16.3875V13.125C11.1249 12.9592 11.1907 12.8003 11.3079 12.6831C11.4251 12.5658 11.5841 12.5 11.7499 12.5C12.3949 12.5 13.8824 11.85 14.9624 8.92C15.4786 7.52 15.8874 5.62 16.0499 3.08625C16.0874 2.5075 16.1111 1.89625 16.1199 1.25H4.87986Z" fill="#9092A9"/>
</g>
<defs>
<clipPath id="clip0_296_6293">
<rect width="20" height="20" fill="white" transform="translate(0.5)"/>
</clipPath>
</defs>
</svg>
