<svg width="18" height="22" viewBox="0 0 18 22" fill="none" xmlns="http://www.w3.org/2000/svg">
<path d="M17.041 5.95562L12.2548 1.11957C12.179 1.04301 12.0763 1 11.9691 1H2.80379C1.72124 1 0.840576 1.88992 0.840576 2.98375V19.0163C0.840576 20.1101 1.72128 21 2.80383 21H15.1961C16.2786 21 17.1593 20.1101 17.1593 19.0163V6.24425C17.1593 6.13601 17.1167 6.03218 17.041 5.95562ZM12.3732 2.39371L15.7802 5.83612H13.5285C13.2199 5.83612 12.9297 5.71468 12.7115 5.49421C12.4933 5.27378 12.3732 4.98062 12.3732 4.66878V2.39371ZM16.3514 19.0163C16.3514 19.66 15.8331 20.1836 15.1961 20.1836H2.80379C2.16672 20.1836 1.64845 19.66 1.64845 19.0163V2.98375C1.64849 2.34004 2.16676 1.81633 2.80379 1.81633H11.5653V4.6687C11.5652 5.19859 11.7694 5.69675 12.1402 6.0714C12.511 6.44608 13.004 6.65241 13.5285 6.65241H16.3514L16.3514 19.0163Z" fill="#9092A9"/>
<path d="M4.81607 12.8635H4.63522C4.41216 12.8635 4.23127 13.0462 4.23127 13.2717C4.23127 13.4971 4.41216 13.6798 4.63522 13.6798H4.81607C5.03914 13.6798 5.22003 13.4971 5.22003 13.2717C5.22003 13.0462 5.03914 12.8635 4.81607 12.8635Z" fill="#9092A9"/>
<path d="M13.3644 12.8635H6.12362C5.90056 12.8635 5.71967 13.0462 5.71967 13.2717C5.71967 13.4971 5.90056 13.6798 6.12362 13.6798H9.74403H13.3644C13.5875 13.6798 13.7684 13.4971 13.7684 13.2717C13.7684 13.0462 13.5875 12.8635 13.3644 12.8635Z" fill="#9092A9"/>
<path d="M4.81607 11H4.63522C4.41216 11 4.23127 11.1827 4.23127 11.4082C4.23127 11.6336 4.41216 11.8163 4.63522 11.8163H4.81607C5.03914 11.8163 5.22003 11.6336 5.22003 11.4082C5.22003 11.1827 5.03914 11 4.81607 11Z" fill="#9092A9"/>
<path d="M13.3644 11H6.12362C5.90056 11 5.71967 11.1827 5.71967 11.4082C5.71967 11.6336 5.90056 11.8163 6.12362 11.8163H13.3644C13.5875 11.8163 13.7684 11.6336 13.7684 11.4082C13.7684 11.1827 13.5875 11 13.3644 11Z" fill="#9092A9"/>
<path d="M4.81607 9.13649H4.63522C4.41216 9.13649 4.23127 9.31922 4.23127 9.54465C4.23127 9.77008 4.41216 9.95282 4.63522 9.95282H4.81607C5.03914 9.95282 5.22003 9.77008 5.22003 9.54465C5.22003 9.31922 5.03914 9.13649 4.81607 9.13649Z" fill="#9092A9"/>
<path d="M13.3644 9.13649H6.12362C5.90056 9.13649 5.71967 9.31922 5.71967 9.54465C5.71967 9.77008 5.90056 9.95282 6.12362 9.95282H13.3644C13.5875 9.95282 13.7684 9.77008 13.7684 9.54465C13.7684 9.31922 13.5875 9.13649 13.3644 9.13649Z" fill="#9092A9"/>
<path d="M17.041 5.95562L12.2548 1.11957C12.179 1.04301 12.0763 1 11.9691 1H2.80379C1.72124 1 0.840576 1.88992 0.840576 2.98375V19.0163C0.840576 20.1101 1.72128 21 2.80383 21H15.1961C16.2786 21 17.1593 20.1101 17.1593 19.0163V6.24425C17.1593 6.13601 17.1167 6.03218 17.041 5.95562ZM12.3732 2.39371L15.7802 5.83612H13.5285C13.2199 5.83612 12.9297 5.71468 12.7115 5.49421C12.4933 5.27378 12.3732 4.98062 12.3732 4.66878V2.39371ZM16.3514 19.0163C16.3514 19.66 15.8331 20.1836 15.1961 20.1836H2.80379C2.16672 20.1836 1.64845 19.66 1.64845 19.0163V2.98375C1.64849 2.34004 2.16676 1.81633 2.80379 1.81633H11.5653V4.6687C11.5652 5.19859 11.7694 5.69675 12.1402 6.0714C12.511 6.44608 13.004 6.65241 13.5285 6.65241H16.3514L16.3514 19.0163Z" stroke="#9092A9" stroke-width="0.3"/>
<path d="M4.81607 12.8635H4.63522C4.41216 12.8635 4.23127 13.0462 4.23127 13.2717C4.23127 13.4971 4.41216 13.6798 4.63522 13.6798H4.81607C5.03914 13.6798 5.22003 13.4971 5.22003 13.2717C5.22003 13.0462 5.03914 12.8635 4.81607 12.8635Z" stroke="#9092A9" stroke-width="0.3"/>
<path d="M13.3644 12.8635H6.12362C5.90056 12.8635 5.71967 13.0462 5.71967 13.2717C5.71967 13.4971 5.90056 13.6798 6.12362 13.6798H9.74403H13.3644C13.5875 13.6798 13.7684 13.4971 13.7684 13.2717C13.7684 13.0462 13.5875 12.8635 13.3644 12.8635Z" stroke="#9092A9" stroke-width="0.3"/>
<path d="M4.81607 11H4.63522C4.41216 11 4.23127 11.1827 4.23127 11.4082C4.23127 11.6336 4.41216 11.8163 4.63522 11.8163H4.81607C5.03914 11.8163 5.22003 11.6336 5.22003 11.4082C5.22003 11.1827 5.03914 11 4.81607 11Z" stroke="#9092A9" stroke-width="0.3"/>
<path d="M13.3644 11H6.12362C5.90056 11 5.71967 11.1827 5.71967 11.4082C5.71967 11.6336 5.90056 11.8163 6.12362 11.8163H13.3644C13.5875 11.8163 13.7684 11.6336 13.7684 11.4082C13.7684 11.1827 13.5875 11 13.3644 11Z" stroke="#9092A9" stroke-width="0.3"/>
<path d="M4.81607 9.13649H4.63522C4.41216 9.13649 4.23127 9.31922 4.23127 9.54465C4.23127 9.77008 4.41216 9.95282 4.63522 9.95282H4.81607C5.03914 9.95282 5.22003 9.77008 5.22003 9.54465C5.22003 9.31922 5.03914 9.13649 4.81607 9.13649Z" stroke="#9092A9" stroke-width="0.3"/>
<path d="M13.3644 9.13649H6.12362C5.90056 9.13649 5.71967 9.31922 5.71967 9.54465C5.71967 9.77008 5.90056 9.95282 6.12362 9.95282H13.3644C13.5875 9.95282 13.7684 9.77008 13.7684 9.54465C13.7684 9.31922 13.5875 9.13649 13.3644 9.13649Z" stroke="#9092A9" stroke-width="0.3"/>
</svg>
