<svg width="20" height="22" viewBox="0 0 20 22" fill="none" xmlns="http://www.w3.org/2000/svg">
<path d="M2.47665 21C1.92857 21 1.53449 20.7988 1.28084 20.3763C1.19477 20.2354 1.13589 20.0543 1.077 19.8632C1.05436 19.7877 1.02718 19.7072 1 19.6318V2.37827C1.00906 2.35312 1.01812 2.32294 1.02265 2.2827C1.077 1.9004 1.23554 1.59356 1.51638 1.33199C1.69756 1.16097 1.92404 1.07545 2.20941 1H11.8665C12.315 1.09054 12.6502 1.41751 12.9446 1.75956C13.2798 2.14688 13.6421 2.55433 14.0906 3.03219C14.4348 3.40443 14.5934 3.83199 14.5888 4.37525C14.5843 5.41147 14.5843 6.46781 14.5843 7.4839C14.5843 7.90141 14.5843 8.32394 14.5843 8.74145V9.49598L15.001 9.20423C15.146 9.10362 15.2501 8.98793 15.3407 8.88732C15.3543 8.87223 15.3724 8.85211 15.386 8.83702C15.531 8.68109 15.6759 8.52012 15.8118 8.35916C16.147 7.98692 16.4913 7.5996 16.8536 7.25252C17.071 7.04628 17.3247 6.94064 17.601 6.94064C17.7777 6.94064 17.9589 6.98089 18.1491 7.0664C18.6156 7.27264 18.892 7.65996 18.978 8.21328C19.0595 8.73139 18.9146 9.18913 18.5386 9.60664C18.0676 10.1298 17.5965 10.6529 17.1254 11.1761C16.3554 12.0312 15.5808 12.8913 14.8108 13.7465C14.7927 13.7666 14.7609 13.7867 14.7383 13.8068C14.7202 13.8219 14.7066 13.832 14.693 13.8421L14.5888 13.9276V15.6831C14.5888 16.9256 14.5888 18.1479 14.5888 19.3702C14.5888 20.3612 14.0136 21 13.1258 21C12.9038 21 12.6773 21 12.4554 21H6.69825C5.28954 21 3.88536 21 2.47665 21ZM2.48118 1.60362C1.86968 1.60362 1.54355 1.96076 1.54355 2.63984C1.54355 8.21831 1.54355 13.7968 1.54355 19.3753C1.54355 20.0342 1.87421 20.3964 2.46759 20.3964C4.2432 20.3964 6.01881 20.3964 7.79441 20.3964C9.57002 20.3964 11.3456 20.3964 13.1212 20.3964C13.7191 20.3964 14.0453 20.0342 14.0453 19.3702C14.0453 18.1026 14.0453 16.835 14.0453 15.5674C14.0453 15.5171 14.0407 15.4668 14.0407 15.4215C14.0407 15.4064 14.0407 15.3863 14.0362 15.3712L14.0181 14.9135L13.6467 15.1147C13.6014 15.1398 13.5606 15.165 13.5198 15.1901C13.4428 15.2354 13.3794 15.2757 13.316 15.2958C12.9853 15.4215 12.6456 15.5473 12.3195 15.668C11.9571 15.8038 11.5766 15.9396 11.2097 16.0805C11.1327 16.1107 11.0648 16.1258 11.0104 16.1258C10.938 16.1258 10.8881 16.1006 10.8338 16.0402C10.7704 15.9698 10.716 15.8843 10.7975 15.6227C10.9017 15.2807 11.0104 14.9286 11.1101 14.5865C11.2369 14.159 11.3728 13.7163 11.5042 13.2787C11.5404 13.168 11.6038 13.0523 11.6763 12.9718C12.2742 12.2928 12.8902 11.6137 13.4881 10.9547L13.7101 10.7083C13.7644 10.6479 13.8278 10.5875 13.8822 10.5372C13.9049 10.5121 13.9275 10.492 13.9501 10.4718L14.0407 10.3813V5.22535H12.1474C11.8167 5.22535 11.4815 5.22535 11.1509 5.22535C10.8791 5.22535 10.793 5.12475 10.793 4.81791C10.793 4.20423 10.793 3.59557 10.793 2.98189V1.60362H2.48118ZM12.3376 13.0875C12.0568 13.3139 11.9526 13.6308 11.8711 13.9376C11.8212 14.1237 11.7623 14.3149 11.708 14.496C11.6808 14.5815 11.6582 14.662 11.631 14.7475L11.4362 15.3964L11.9979 15.1197C12.1383 15.0493 12.2968 15.0091 12.4599 14.9638C12.8268 14.8632 13.2435 14.7525 13.5244 14.3099L13.6557 14.1036L12.5777 12.9014C12.5777 12.9014 12.3512 13.0775 12.3376 13.0875ZM12.9899 12.4085L14.086 13.6308L17.0484 10.3561L15.9477 9.1338L12.9899 12.4085ZM17.6463 7.55433C17.4606 7.55433 17.2839 7.62978 17.1481 7.76056C16.9895 7.9165 16.8491 8.08753 16.7132 8.25352C16.6589 8.32394 16.6 8.38934 16.5456 8.45473L16.3644 8.666L17.4651 9.88833L17.6554 9.68712C17.7143 9.62173 17.7777 9.56137 17.8366 9.50101C17.9815 9.35513 18.131 9.20423 18.2669 9.0332C18.5522 8.68612 18.5341 8.16298 18.2261 7.82093C18.0721 7.65493 17.8592 7.55433 17.6463 7.55433ZM11.7125 1.60362C11.6627 1.60362 11.6129 1.60865 11.563 1.61871L11.3411 1.66398V4.60664H14.009L14.0362 4.34004C14.0679 4.03823 13.9864 3.77163 13.7961 3.56036C13.1892 2.88129 12.7181 2.36318 12.2697 1.87022C12.1111 1.6992 11.9164 1.60362 11.7125 1.60362Z" fill="#9092A9"/>
<path d="M10.9606 7.63985C10.9425 7.63985 10.9289 7.63985 10.9108 7.63985H3.59093C3.17421 7.63985 3.17421 7.41349 3.17421 7.33804C3.17421 7.21228 3.21951 7.15695 3.25121 7.1318C3.31916 7.07144 3.44146 7.03623 3.59093 7.03623H9.37524C9.91879 7.03623 10.4623 7.03623 11.0014 7.03623C11.1282 7.03623 11.2324 7.09156 11.2913 7.1821C11.3366 7.25755 11.3456 7.3481 11.3094 7.43864C11.2641 7.55936 11.1916 7.61973 11.0648 7.63482C11.0512 7.63482 11.0331 7.63985 11.0059 7.63985C10.9878 7.63985 10.9742 7.63985 10.9606 7.63985Z" fill="#9092A9"/>
<path d="M4.49231 10.0543H3.48221C3.33726 10.0543 3.2512 9.99899 3.19231 9.85815C3.15155 9.75754 3.1742 9.63179 3.2512 9.54125C3.30102 9.48592 3.36897 9.44567 3.53203 9.44567C4.20242 9.44567 4.87733 9.44567 5.54771 9.44567H8.26095C8.44213 9.44567 8.62331 9.44567 8.8045 9.44567C8.90868 9.44567 9.14875 9.47585 9.14875 9.74748C9.14875 10.0191 8.90868 10.0493 8.8045 10.0493C8.4376 10.0493 8.0707 10.0493 7.7038 10.0493L4.49231 10.0543Z" fill="#9092A9"/>
<path d="M4.49231 12.4688H3.48221C3.33726 12.4688 3.2512 12.4135 3.19231 12.2726C3.15155 12.172 3.1742 12.0463 3.2512 11.9557C3.30102 11.9004 3.36897 11.8602 3.53203 11.8602C4.20242 11.8602 4.87733 11.8602 5.54771 11.8602H8.26095C8.44213 11.8602 8.62331 11.8602 8.8045 11.8602C8.90868 11.8602 9.14875 11.8903 9.14875 12.162C9.14875 12.4336 8.90868 12.4638 8.8045 12.4638C8.4376 12.4638 8.0707 12.4638 7.7038 12.4638L4.49231 12.4688Z" fill="#9092A9"/>
<path d="M4.60558 14.8833C4.22962 14.8833 3.85366 14.8833 3.4777 14.8783C3.36446 14.8783 3.26481 14.8229 3.21046 14.7324C3.18328 14.6871 3.14704 14.5966 3.19234 14.4708C3.22857 14.3702 3.29199 14.2746 3.48676 14.2746C3.69965 14.2746 3.91255 14.2746 4.12997 14.2746H7.25993C7.78536 14.2746 8.31079 14.2746 8.8317 14.2746C8.954 14.2746 9.05818 14.33 9.11254 14.4205C9.15783 14.496 9.16689 14.5916 9.13065 14.6871C9.10348 14.7676 9.03553 14.8783 8.81811 14.8783C8.42404 14.8783 8.02543 14.8783 7.63135 14.8783H6.11846C5.86481 14.8783 5.61115 14.8783 5.36202 14.8783C5.11289 14.8833 4.85923 14.8833 4.60558 14.8833Z" fill="#9092A9"/>
<path d="M10.3808 18.5855C10.2177 18.5855 10.0501 18.5855 9.88708 18.5855C9.72855 18.5855 9.57001 18.5855 9.41147 18.5855C9.41147 18.5855 8.63691 18.5855 8.48743 18.5855C8.26095 18.5855 8.02994 18.5855 7.80346 18.5855C7.67663 18.5855 7.59963 18.5302 7.54981 18.3994C7.47733 18.2183 7.55434 18.1429 7.58151 18.1177C7.65852 18.0372 7.7627 17.992 7.81705 17.992C8.33343 17.9819 8.8951 17.9819 9.5383 17.9819C10.0547 17.9819 10.5711 17.9819 11.0557 17.9869C11.2143 17.9869 11.332 18.1127 11.332 18.2837C11.332 18.4598 11.2143 18.5855 11.0467 18.5855C10.8474 18.5855 10.639 18.5855 10.3808 18.5855Z" fill="#9092A9"/>
<path d="M2.47665 21C1.92857 21 1.53449 20.7988 1.28084 20.3763C1.19477 20.2354 1.13589 20.0543 1.077 19.8632C1.05436 19.7877 1.02718 19.7072 1 19.6318V2.37827C1.00906 2.35312 1.01812 2.32294 1.02265 2.2827C1.077 1.9004 1.23554 1.59356 1.51638 1.33199C1.69756 1.16097 1.92404 1.07545 2.20941 1H11.8665C12.315 1.09054 12.6502 1.41751 12.9446 1.75956C13.2798 2.14688 13.6421 2.55433 14.0906 3.03219C14.4348 3.40443 14.5934 3.83199 14.5888 4.37525C14.5843 5.41147 14.5843 6.46781 14.5843 7.4839C14.5843 7.90141 14.5843 8.32394 14.5843 8.74145V9.49598L15.001 9.20423C15.146 9.10362 15.2501 8.98793 15.3407 8.88732C15.3543 8.87223 15.3724 8.85211 15.386 8.83702C15.531 8.68109 15.6759 8.52012 15.8118 8.35916C16.147 7.98692 16.4913 7.5996 16.8536 7.25252C17.071 7.04628 17.3247 6.94064 17.601 6.94064C17.7777 6.94064 17.9589 6.98089 18.1491 7.0664C18.6156 7.27264 18.892 7.65996 18.978 8.21328C19.0595 8.73139 18.9146 9.18913 18.5386 9.60664C18.0676 10.1298 17.5965 10.6529 17.1254 11.1761C16.3554 12.0312 15.5808 12.8913 14.8108 13.7465C14.7927 13.7666 14.7609 13.7867 14.7383 13.8068C14.7202 13.8219 14.7066 13.832 14.693 13.8421L14.5888 13.9276V15.6831C14.5888 16.9256 14.5888 18.1479 14.5888 19.3702C14.5888 20.3612 14.0136 21 13.1258 21C12.9038 21 12.6773 21 12.4554 21H6.69825C5.28954 21 3.88536 21 2.47665 21ZM2.48118 1.60362C1.86968 1.60362 1.54355 1.96076 1.54355 2.63984C1.54355 8.21831 1.54355 13.7968 1.54355 19.3753C1.54355 20.0342 1.87421 20.3964 2.46759 20.3964C4.2432 20.3964 6.01881 20.3964 7.79441 20.3964C9.57002 20.3964 11.3456 20.3964 13.1212 20.3964C13.7191 20.3964 14.0453 20.0342 14.0453 19.3702C14.0453 18.1026 14.0453 16.835 14.0453 15.5674C14.0453 15.5171 14.0407 15.4668 14.0407 15.4215C14.0407 15.4064 14.0407 15.3863 14.0362 15.3712L14.0181 14.9135L13.6467 15.1147C13.6014 15.1398 13.5606 15.165 13.5198 15.1901C13.4428 15.2354 13.3794 15.2757 13.316 15.2958C12.9853 15.4215 12.6456 15.5473 12.3195 15.668C11.9571 15.8038 11.5766 15.9396 11.2097 16.0805C11.1327 16.1107 11.0648 16.1258 11.0104 16.1258C10.938 16.1258 10.8881 16.1006 10.8338 16.0402C10.7704 15.9698 10.716 15.8843 10.7975 15.6227C10.9017 15.2807 11.0104 14.9286 11.1101 14.5865C11.2369 14.159 11.3728 13.7163 11.5042 13.2787C11.5404 13.168 11.6038 13.0523 11.6763 12.9718C12.2742 12.2928 12.8902 11.6137 13.4881 10.9547L13.7101 10.7083C13.7644 10.6479 13.8278 10.5875 13.8822 10.5372C13.9049 10.5121 13.9275 10.492 13.9501 10.4718L14.0407 10.3813V5.22535H12.1474C11.8167 5.22535 11.4815 5.22535 11.1509 5.22535C10.8791 5.22535 10.793 5.12475 10.793 4.81791C10.793 4.20423 10.793 3.59557 10.793 2.98189V1.60362H2.48118ZM12.3376 13.0875C12.0568 13.3139 11.9526 13.6308 11.8711 13.9376C11.8212 14.1237 11.7623 14.3149 11.708 14.496C11.6808 14.5815 11.6582 14.662 11.631 14.7475L11.4362 15.3964L11.9979 15.1197C12.1383 15.0493 12.2968 15.0091 12.4599 14.9638C12.8268 14.8632 13.2435 14.7525 13.5244 14.3099L13.6557 14.1036L12.5777 12.9014C12.5777 12.9014 12.3512 13.0775 12.3376 13.0875ZM12.9899 12.4085L14.086 13.6308L17.0484 10.3561L15.9477 9.1338L12.9899 12.4085ZM17.6463 7.55433C17.4606 7.55433 17.2839 7.62978 17.1481 7.76056C16.9895 7.9165 16.8491 8.08753 16.7132 8.25352C16.6589 8.32394 16.6 8.38934 16.5456 8.45473L16.3644 8.666L17.4651 9.88833L17.6554 9.68712C17.7143 9.62173 17.7777 9.56137 17.8366 9.50101C17.9815 9.35513 18.131 9.20423 18.2669 9.0332C18.5522 8.68612 18.5341 8.16298 18.2261 7.82093C18.0721 7.65493 17.8592 7.55433 17.6463 7.55433ZM11.7125 1.60362C11.6627 1.60362 11.6129 1.60865 11.563 1.61871L11.3411 1.66398V4.60664H14.009L14.0362 4.34004C14.0679 4.03823 13.9864 3.77163 13.7961 3.56036C13.1892 2.88129 12.7181 2.36318 12.2697 1.87022C12.1111 1.6992 11.9164 1.60362 11.7125 1.60362Z" stroke="#9092A9" stroke-width="0.5"/>
<path d="M10.9606 7.63985C10.9425 7.63985 10.9289 7.63985 10.9108 7.63985H3.59093C3.17421 7.63985 3.17421 7.41349 3.17421 7.33804C3.17421 7.21228 3.21951 7.15695 3.25121 7.1318C3.31916 7.07144 3.44146 7.03623 3.59093 7.03623H9.37524C9.91879 7.03623 10.4623 7.03623 11.0014 7.03623C11.1282 7.03623 11.2324 7.09156 11.2913 7.1821C11.3366 7.25755 11.3456 7.3481 11.3094 7.43864C11.2641 7.55936 11.1916 7.61973 11.0648 7.63482C11.0512 7.63482 11.0331 7.63985 11.0059 7.63985C10.9878 7.63985 10.9742 7.63985 10.9606 7.63985Z" stroke="#9092A9" stroke-width="0.5"/>
<path d="M4.49231 10.0543H3.48221C3.33726 10.0543 3.2512 9.99899 3.19231 9.85815C3.15155 9.75754 3.1742 9.63179 3.2512 9.54125C3.30102 9.48592 3.36897 9.44567 3.53203 9.44567C4.20242 9.44567 4.87733 9.44567 5.54771 9.44567H8.26095C8.44213 9.44567 8.62331 9.44567 8.8045 9.44567C8.90868 9.44567 9.14875 9.47585 9.14875 9.74748C9.14875 10.0191 8.90868 10.0493 8.8045 10.0493C8.4376 10.0493 8.0707 10.0493 7.7038 10.0493L4.49231 10.0543Z" stroke="#9092A9" stroke-width="0.5"/>
<path d="M4.49231 12.4688H3.48221C3.33726 12.4688 3.2512 12.4135 3.19231 12.2726C3.15155 12.172 3.1742 12.0463 3.2512 11.9557C3.30102 11.9004 3.36897 11.8602 3.53203 11.8602C4.20242 11.8602 4.87733 11.8602 5.54771 11.8602H8.26095C8.44213 11.8602 8.62331 11.8602 8.8045 11.8602C8.90868 11.8602 9.14875 11.8903 9.14875 12.162C9.14875 12.4336 8.90868 12.4638 8.8045 12.4638C8.4376 12.4638 8.0707 12.4638 7.7038 12.4638L4.49231 12.4688Z" stroke="#9092A9" stroke-width="0.5"/>
<path d="M4.60558 14.8833C4.22962 14.8833 3.85366 14.8833 3.4777 14.8783C3.36446 14.8783 3.26481 14.8229 3.21046 14.7324C3.18328 14.6871 3.14704 14.5966 3.19234 14.4708C3.22857 14.3702 3.29199 14.2746 3.48676 14.2746C3.69965 14.2746 3.91255 14.2746 4.12997 14.2746H7.25993C7.78536 14.2746 8.31079 14.2746 8.8317 14.2746C8.954 14.2746 9.05818 14.33 9.11254 14.4205C9.15783 14.496 9.16689 14.5916 9.13065 14.6871C9.10348 14.7676 9.03553 14.8783 8.81811 14.8783C8.42404 14.8783 8.02543 14.8783 7.63135 14.8783H6.11846C5.86481 14.8783 5.61115 14.8783 5.36202 14.8783C5.11289 14.8833 4.85923 14.8833 4.60558 14.8833Z" stroke="#9092A9" stroke-width="0.5"/>
<path d="M10.3808 18.5855C10.2177 18.5855 10.0501 18.5855 9.88708 18.5855C9.72855 18.5855 9.57001 18.5855 9.41147 18.5855C9.41147 18.5855 8.63691 18.5855 8.48743 18.5855C8.26095 18.5855 8.02994 18.5855 7.80346 18.5855C7.67663 18.5855 7.59963 18.5302 7.54981 18.3994C7.47733 18.2183 7.55434 18.1429 7.58151 18.1177C7.65852 18.0372 7.7627 17.992 7.81705 17.992C8.33343 17.9819 8.8951 17.9819 9.5383 17.9819C10.0547 17.9819 10.5711 17.9819 11.0557 17.9869C11.2143 17.9869 11.332 18.1127 11.332 18.2837C11.332 18.4598 11.2143 18.5855 11.0467 18.5855C10.8474 18.5855 10.639 18.5855 10.3808 18.5855Z" stroke="#9092A9" stroke-width="0.5"/>
</svg>
