<svg width="20" height="20" viewBox="0 0 20 20" fill="none" xmlns="http://www.w3.org/2000/svg">
<path fill-rule="evenodd" clip-rule="evenodd" d="M16.6666 5.55509C16.6666 5.11307 16.8422 4.68914 17.1548 4.37658C17.4673 4.06402 17.8913 3.88843 18.3333 3.88843C18.7753 3.88843 19.1992 4.06402 19.5118 4.37658C19.8244 4.68914 20 5.11307 20 5.55509V16.8345L18.3333 19.3345L16.6666 16.8345V5.55509ZM18.3333 4.99954C18.186 4.99954 18.0446 5.05807 17.9405 5.16226C17.8363 5.26644 17.7777 5.40775 17.7777 5.55509V16.4979L18.3333 17.3312L18.8888 16.4979V5.55509C18.8888 5.40775 18.8303 5.26644 18.7261 5.16226C18.6219 5.05807 18.4806 4.99954 18.3333 4.99954Z" fill="#9092A9"/>
<path fill-rule="evenodd" clip-rule="evenodd" d="M19.4444 7.77786H17.2222V6.66675H19.4444V7.77786Z" fill="#9092A9"/>
<path fill-rule="evenodd" clip-rule="evenodd" d="M2.22222 1.11111C1.92754 1.11111 1.64492 1.22817 1.43655 1.43655C1.22817 1.64492 1.11111 1.92754 1.11111 2.22222V17.7778C1.11111 18.0725 1.22817 18.3551 1.43655 18.5635C1.64492 18.7718 1.92754 18.8889 2.22222 18.8889H13.3333C13.628 18.8889 13.9106 18.7718 14.119 18.5635C14.3274 18.3551 14.4444 18.0725 14.4444 17.7778V2.22222C14.4444 1.92754 14.3274 1.64492 14.119 1.43655C13.9106 1.22817 13.628 1.11111 13.3333 1.11111H2.22222ZM0 2.22222C0 1.63285 0.234126 1.06762 0.650874 0.650874C1.06762 0.234126 1.63285 0 2.22222 0H13.3333C13.9227 0 14.4879 0.234126 14.9047 0.650874C15.3214 1.06762 15.5556 1.63285 15.5556 2.22222V17.7778C15.5556 18.3671 15.3214 18.9324 14.9047 19.3491C14.4879 19.7659 13.9227 20 13.3333 20H2.22222C1.63285 20 1.06762 19.7659 0.650874 19.3491C0.234126 18.9324 0 18.3671 0 17.7778V2.22222Z" fill="#9092A9"/>
<path fill-rule="evenodd" clip-rule="evenodd" d="M7.77783 5.00062C7.77783 4.85328 7.83636 4.71197 7.94055 4.60779C8.04474 4.5036 8.18605 4.44507 8.33339 4.44507H12.7778C12.9252 4.44507 13.0665 4.5036 13.1707 4.60779C13.2749 4.71197 13.3334 4.85328 13.3334 5.00062C13.3334 5.14797 13.2749 5.28928 13.1707 5.39346C13.0665 5.49765 12.9252 5.55618 12.7778 5.55618H8.33339C8.18605 5.55618 8.04474 5.49765 7.94055 5.39346C7.83636 5.28928 7.77783 5.14797 7.77783 5.00062Z" fill="#9092A9"/>
<path fill-rule="evenodd" clip-rule="evenodd" d="M7.77783 7.2223C7.77783 7.07496 7.83636 6.93365 7.94055 6.82947C8.04474 6.72528 8.18605 6.66675 8.33339 6.66675H12.7778C12.9252 6.66675 13.0665 6.72528 13.1707 6.82947C13.2749 6.93365 13.3334 7.07496 13.3334 7.2223C13.3334 7.36965 13.2749 7.51095 13.1707 7.61514C13.0665 7.71933 12.9252 7.77786 12.7778 7.77786H8.33339C8.18605 7.77786 8.04474 7.71933 7.94055 7.61514C7.83636 7.51095 7.77783 7.36965 7.77783 7.2223Z" fill="#9092A9"/>
<path fill-rule="evenodd" clip-rule="evenodd" d="M7.77783 12.2223C7.77783 12.075 7.83636 11.9337 7.94055 11.8295C8.04474 11.7253 8.18605 11.6667 8.33339 11.6667H12.7778C12.9252 11.6667 13.0665 11.7253 13.1707 11.8295C13.2749 11.9337 13.3334 12.075 13.3334 12.2223C13.3334 12.3696 13.2749 12.511 13.1707 12.6151C13.0665 12.7193 12.9252 12.7779 12.7778 12.7779H8.33339C8.18605 12.7779 8.04474 12.7193 7.94055 12.6151C7.83636 12.511 7.77783 12.3696 7.77783 12.2223Z" fill="#9092A9"/>
<path fill-rule="evenodd" clip-rule="evenodd" d="M7.77783 14.444C7.77783 14.2966 7.83636 14.1553 7.94055 14.0511C8.04474 13.947 8.18605 13.8884 8.33339 13.8884H12.7778C12.9252 13.8884 13.0665 13.947 13.1707 14.0511C13.2749 14.1553 13.3334 14.2966 13.3334 14.444C13.3334 14.5913 13.2749 14.7326 13.1707 14.8368C13.0665 14.941 12.9252 14.9995 12.7778 14.9995H8.33339C8.18605 14.9995 8.04474 14.941 7.94055 14.8368C7.83636 14.7326 7.77783 14.5913 7.77783 14.444Z" fill="#9092A9"/>
<path fill-rule="evenodd" clip-rule="evenodd" d="M3.33328 12.2227V13.8893H4.99995V12.2227H3.33328ZM2.77772 11.1116H5.5555C5.70284 11.1116 5.84415 11.1701 5.94834 11.2743C6.05253 11.3785 6.11106 11.5198 6.11106 11.6671V14.4449C6.11106 14.5922 6.05253 14.7336 5.94834 14.8377C5.84415 14.9419 5.70284 15.0005 5.5555 15.0005H2.77772C2.63038 15.0005 2.48907 14.9419 2.38489 14.8377C2.2807 14.7336 2.22217 14.5922 2.22217 14.4449V11.6671C2.22217 11.5198 2.2807 11.3785 2.38489 11.2743C2.48907 11.1701 2.63038 11.1116 2.77772 11.1116Z" fill="#9092A9"/>
<path fill-rule="evenodd" clip-rule="evenodd" d="M6.5037 4.60773C6.60785 4.71191 6.66636 4.85319 6.66636 5.00051C6.66636 5.14782 6.60785 5.2891 6.5037 5.39328L3.8887 8.00828L2.38481 6.50439C2.33175 6.45315 2.28943 6.39184 2.26031 6.32406C2.2312 6.25628 2.21587 6.18338 2.21523 6.10962C2.21459 6.03585 2.22865 5.9627 2.25658 5.89442C2.28451 5.82614 2.32577 5.76412 2.37793 5.71195C2.43009 5.65979 2.49212 5.61854 2.5604 5.5906C2.62867 5.56267 2.70183 5.54861 2.77559 5.54925C2.84936 5.5499 2.92226 5.56522 2.99004 5.59434C3.05782 5.62345 3.11912 5.66578 3.17037 5.71884L3.8887 6.43717L5.71815 4.60773C5.82233 4.50358 5.96361 4.44507 6.11093 4.44507C6.25824 4.44507 6.39952 4.50358 6.5037 4.60773Z" fill="#9092A9"/>
</svg>
