<svg width="21" height="20" viewBox="0 0 21 20" fill="none" xmlns="http://www.w3.org/2000/svg">
<path d="M10.5001 6.22073C10.8538 6.22073 11.193 6.08024 11.443 5.83016C11.6931 5.58009 11.8336 5.24091 11.8336 4.88725C11.8336 4.53359 11.6931 4.19442 11.443 3.94434C11.193 3.69427 10.8538 3.55378 10.5001 3.55378C10.1465 3.55378 9.8073 3.69427 9.55722 3.94434C9.30715 4.19442 9.16665 4.53359 9.16665 4.88725C9.16665 5.24091 9.30715 5.58009 9.55722 5.83016C9.8073 6.08024 10.1465 6.22073 10.5001 6.22073ZM11.2913 0.260086C11.0621 0.0911423 10.7849 0 10.5001 0C10.2154 0 9.93814 0.0911423 9.70894 0.260086L1.26358 6.48743C0.228798 7.25106 0.768412 8.89391 2.05477 8.89391H2.49927V15.3319C1.9726 15.5514 1.5227 15.9218 1.20629 16.3966C0.889877 16.8714 0.72112 17.4292 0.721296 17.9998V19.3333C0.721296 19.7013 1.01999 20 1.38803 20H19.6122C19.7891 20 19.9586 19.9298 20.0837 19.8047C20.2087 19.6797 20.279 19.5101 20.279 19.3333V17.9998C20.279 17.4294 20.1101 16.8717 19.7937 16.3971C19.4773 15.9225 19.0275 15.5522 18.501 15.3328V8.89391H18.9446C20.2319 8.89391 20.7715 7.25106 19.7358 6.48743L11.2913 0.260086ZM3.83274 15.1106V8.89391H6.05521V15.1106H3.83274ZM17.1675 8.89391V15.1106H14.9451V8.89391H17.1675ZM13.6116 8.89391V15.1106H11.1669V8.89391H13.6116ZM9.83339 8.89391V15.1106H7.38868V8.89391H9.83339ZM2.05477 7.56043L10.5001 1.33309L18.9446 7.56043H2.05477ZM2.05477 17.9998C2.05477 17.141 2.75174 16.4441 3.6105 16.4441H17.3898C18.2485 16.4441 18.9455 17.141 18.9455 17.9998V18.6665H2.05477V17.9998Z" fill="#9092A9"/>
</svg>
