<svg width="24" height="20" viewBox="0 0 24 20" fill="none" xmlns="http://www.w3.org/2000/svg">
<path d="M23.109 15.7731C22.5344 15.6011 21.9597 15.4402 21.3851 15.2738C21.2386 15.2294 21.0865 15.185 20.9344 15.1407C20.9738 14.9742 21.002 14.83 21.0358 14.6857C21.0696 14.5359 21.109 14.3861 21.1428 14.2308C21.2217 13.8369 21.0809 13.626 20.6809 13.5428C20.1907 13.4374 19.7006 13.332 19.1992 13.2266C19.2386 13.1434 19.2724 13.0768 19.3062 13.0102C19.7964 12.1392 20.1907 11.2348 20.495 10.2861C20.5513 10.1086 20.602 9.93103 20.6527 9.75349C20.6527 9.74794 20.6527 9.74794 20.6583 9.74239C20.9344 8.89354 21.0527 8.05023 21.1034 7.50652C21.1034 7.50098 21.1034 7.49543 21.109 7.48988C21.2555 6.21383 21.233 4.93777 21.0358 3.66727C20.9682 3.24007 20.6752 3.02369 20.2302 3.01814C19.9879 3.01814 19.7457 3.0126 19.5147 2.97376C18.2302 2.76293 17.188 1.81976 17.0415 0.588094C16.9964 0.216374 16.726 0 16.326 0C13.4416 0 10.5571 0 7.67267 0C7.25578 0 7.03607 0.22747 6.94029 0.632479C6.86142 0.965362 6.77128 1.31489 6.591 1.60339C5.96003 2.61314 4.99104 3.03479 3.81359 3.02924C3.27839 3.02369 2.99671 3.27335 2.94037 3.80042C2.92347 4.00015 2.88967 4.19433 2.87277 4.39406C2.78826 5.23182 2.777 6.06958 2.83897 6.90733V6.91288C2.83897 6.97946 2.86713 8.36092 3.32346 9.75904C3.33473 9.79232 3.346 9.82006 3.36853 9.84226C3.68402 10.9297 4.11781 11.9672 4.66992 12.9658C4.71499 13.049 4.75442 13.1267 4.80512 13.2266C4.30936 13.332 3.83613 13.4319 3.36853 13.5373C2.87277 13.6427 2.75446 13.8313 2.87277 14.3306C2.93474 14.6025 2.99671 14.8688 3.05868 15.1351C2.33193 15.3515 1.63899 15.5623 0.940412 15.7565C0.726331 15.8175 0.557321 15.9174 0.461548 16.1227V16.389C0.810837 16.7496 1.16013 17.1102 1.52068 17.4819C1.44744 17.8925 1.36857 18.3086 1.29533 18.7247C1.23336 19.0798 1.48688 19.335 1.84744 19.2795C1.91504 19.2684 1.97701 19.2518 2.04462 19.2296C3.61642 18.7358 5.21638 18.3419 6.84452 18.0645C7.30648 17.9868 7.36282 17.8869 7.28958 17.4265C7.23888 17.1324 7.20508 16.8328 7.15437 16.4666C7.29522 16.5388 7.37972 16.561 7.43606 16.6109C7.60507 16.7607 7.76281 16.916 7.92619 17.0714C9.05293 18.1089 10.3487 18.9411 11.5768 19.8454C11.8754 20.0673 12.1458 20.0451 12.4669 19.8121C13.8697 18.7857 15.3345 17.837 16.5739 16.6053C16.6246 16.5499 16.726 16.5443 16.8443 16.4999C16.7824 16.9049 16.7317 17.2378 16.6866 17.5763C16.6471 17.8703 16.7373 17.9813 17.0302 18.0423C17.4584 18.1255 17.8922 18.181 18.3091 18.292C19.5372 18.5971 20.7597 18.9189 21.9823 19.2462C22.4949 19.3849 22.7653 19.163 22.6808 18.6526C22.6132 18.2587 22.5456 17.8703 22.478 17.4986C22.7653 17.2045 23.0414 16.9327 23.3118 16.6553C23.678 16.2836 23.5935 15.9174 23.109 15.7731ZM3.85303 9.04334C3.83613 8.96566 3.56571 7.40666 3.56571 7.34008C3.54881 6.46349 3.52628 5.58135 3.53191 4.70475C3.53191 4.37187 3.60515 4.03899 3.64458 3.69501C4.62485 3.73939 5.49807 3.51192 6.26425 2.95157C7.0417 2.38567 7.50366 1.62558 7.63887 0.687959H16.3655C16.5063 1.64223 16.9739 2.39676 17.7457 2.95712C18.5119 3.51747 19.3851 3.73939 20.3259 3.70056C20.3428 3.75604 20.3654 3.79487 20.371 3.83926C20.4217 4.49393 20.495 5.1486 20.5062 5.80882C20.5119 6.15835 20.4893 6.50233 20.4668 6.85185C20.4668 6.87959 20.4612 6.91288 20.4612 6.94062C20.4612 6.94617 20.4612 6.94617 20.4612 6.95172C20.4612 7.02384 20.433 7.36227 20.433 7.36227C20.3992 7.73399 20.1682 8.93792 20.1626 8.96012C20.1457 9.01005 20.1344 9.05998 20.1175 9.10991C19.9203 9.73129 19.7626 10.3638 19.5147 10.963C19.2161 11.6953 18.8499 12.3944 18.5119 13.1045C18.1739 13.049 17.8922 13.0047 17.588 12.9492C17.8021 12.5664 18.0218 12.2224 18.202 11.8618C19.2668 9.78123 19.7569 7.5731 19.6612 5.24292C19.6386 4.7214 19.4978 4.52722 18.9851 4.39961C17.5711 4.05008 16.5063 3.26781 15.8753 1.96401C15.7063 1.62003 15.4472 1.47578 15.0697 1.48688C14.4838 1.49798 13.8979 1.48688 13.312 1.48688C11.8529 1.48688 10.3994 1.49243 8.94026 1.48133C8.54026 1.48133 8.25858 1.62003 8.10647 1.99175C8.0783 2.05278 8.0445 2.10826 8.01633 2.16929C7.70084 2.76293 7.26141 3.25116 6.70931 3.64507C6.18538 4.01679 5.60511 4.26091 4.97414 4.41071C4.54034 4.51057 4.35443 4.7214 4.33753 5.09867C4.29246 6.05293 4.33189 7.0072 4.48964 7.95037C4.77696 9.63143 5.34596 11.2071 6.24172 12.6662C6.29805 12.755 6.34876 12.8493 6.40509 12.9603C6.08961 13.0102 5.80792 13.0546 5.50934 13.1045C5.30652 12.7272 5.09808 12.3611 4.91216 11.9838C4.4502 11.0406 4.11781 10.0586 3.85303 9.04334ZM16.8387 12.8549C13.6275 12.4554 10.3994 12.4498 7.16001 12.8549C5.60511 10.4803 4.87836 7.91708 5.01921 5.09312C5.83609 4.91558 6.59664 4.59379 7.26141 4.07782C7.92056 3.5674 8.42759 2.93492 8.77124 2.17484H15.2106C15.9655 3.75049 17.2387 4.69366 18.9682 5.08757C19.1203 7.90044 18.3992 10.4747 16.8387 12.8549ZM2.02771 18.4917C2.08405 18.1865 2.13475 17.8814 2.19673 17.5818C2.24743 17.3488 2.19109 17.1657 2.01645 16.9993C1.7911 16.794 1.57702 16.5831 1.31787 16.3335C1.97701 16.1449 2.57982 15.9729 3.21079 15.7953C3.28966 16.1116 3.37417 16.4167 3.4305 16.7274C3.47557 16.9882 3.61078 17.1269 3.86993 17.1879C4.41077 17.3155 4.94033 17.4597 5.49807 17.604C4.33189 17.898 3.19389 18.1921 2.02771 18.4917ZM5.37976 16.8661C5.37976 16.855 5.37976 16.8439 5.3854 16.8328C5.74595 16.7718 6.10087 16.7052 6.48396 16.6386C6.51213 16.8328 6.53467 16.9993 6.56847 17.2101C6.14594 17.088 5.76285 16.9771 5.37976 16.8661ZM11.9993 19.3239C10.7261 18.3696 9.39095 17.5263 8.21351 16.4056C8.6135 16.3668 8.96842 16.3335 9.27828 16.3002C10.0276 16.855 10.7487 17.3876 11.4698 17.9147C11.881 18.2143 12.112 18.2143 12.5233 17.9147C13.2444 17.3876 13.9655 16.855 14.7148 16.3002C15.0303 16.3335 15.3852 16.3668 15.7796 16.4056C14.6077 17.5208 13.2726 18.3696 11.9993 19.3239ZM10.3768 16.2836C10.3825 16.2669 10.3881 16.2447 10.3937 16.2281H13.5937C13.5993 16.2447 13.6106 16.2669 13.6162 16.2836C13.081 16.6719 12.5458 17.0603 11.9993 17.4653C11.4529 17.0658 10.9177 16.6775 10.3768 16.2836ZM4.06711 16.4167C3.89247 15.6733 3.71782 14.9409 3.53754 14.1808C9.17687 12.9048 14.7993 12.8992 20.4499 14.1808C20.2752 14.9298 20.1062 15.6622 19.926 16.4167C14.6416 15.2294 9.36841 15.2294 4.06711 16.4167ZM17.4415 17.2045C17.4697 17.0048 17.4922 16.8384 17.5147 16.6386C17.8922 16.7052 18.2527 16.7662 18.6189 16.8273C18.6189 16.8384 18.6189 16.8495 18.6246 16.8661C18.2415 16.9771 17.8584 17.088 17.4415 17.2045ZM21.9992 16.9826C21.8076 17.1546 21.7456 17.3488 21.8076 17.5984C21.8752 17.8925 21.9203 18.1865 21.971 18.4917C20.7992 18.1921 19.6668 17.898 18.4837 17.5929C19.0415 17.4486 19.5598 17.3044 20.0893 17.1879C20.3766 17.1269 20.5119 16.9882 20.5626 16.7108C20.6133 16.4167 20.6978 16.1227 20.771 15.7953C21.3963 15.9729 22.0048 16.1449 22.6696 16.3335C22.4217 16.5776 22.2132 16.7829 21.9992 16.9826Z" fill="#9092A9"/>
<path d="M20.4612 6.95172C20.4612 7.02384 20.4499 7.16809 20.433 7.36227C20.4443 7.22357 20.4499 7.09042 20.4612 6.95172Z" fill="#9092A9"/>
<path d="M10.5965 6.29704C10.5627 7.60083 10.5627 8.80476 10.5965 9.98095C10.619 10.7244 11.1373 11.1793 11.9824 11.196C12.0049 11.196 12.0218 11.196 12.0443 11.196C12.8556 11.196 13.3006 10.8243 13.4133 10.0586C13.4528 9.78122 13.588 9.62588 13.7851 9.62588C13.8584 9.62588 13.9429 9.64252 14.033 9.68136C14.1006 9.7091 14.2077 9.86444 14.2133 9.96986C14.264 10.6745 13.9598 11.2071 13.3175 11.54C12.895 11.7619 12.45 11.8728 11.9993 11.8728C11.6669 11.8728 11.3232 11.8118 10.9852 11.6898C10.2415 11.4234 9.85282 10.8742 9.79648 9.9976C9.76831 9.58149 9.77395 9.14874 9.78521 8.73264C9.78521 8.5551 9.79085 8.35537 9.79085 8.15564V7.9892H9.77958V7.93372C9.77958 7.84495 9.77958 7.75063 9.77958 7.66186V7.62303C9.77395 7.24576 9.77395 6.85185 9.78521 6.46903C9.83592 5.15414 10.5965 4.43289 11.9204 4.43289C11.9598 4.43289 11.9936 4.43289 12.0274 4.43289C12.833 4.45508 13.3795 4.66036 13.7964 5.08756C14.1119 5.40935 14.2527 5.78662 14.2246 6.25266C14.2133 6.51341 14.1175 6.56335 13.9147 6.57444C13.8753 6.57444 13.8415 6.57999 13.8077 6.57999C13.4753 6.57999 13.4415 6.46348 13.4302 6.31923C13.3795 5.5647 12.8499 5.09311 12.0331 5.09311C11.9317 5.09311 11.819 5.09866 11.7119 5.1153C11.0303 5.20962 10.6134 5.64792 10.5965 6.29704Z" fill="#9092A9"/>
<path d="M12.0051 6.84629C12.0051 6.87404 11.9995 6.90733 11.9995 6.93507C11.9995 6.91287 11.9995 6.89623 11.9995 6.89623C11.9995 6.87958 11.9995 6.86294 12.0051 6.84629Z" fill="#9092A9"/>
</svg>
