<svg width="20" height="20" viewBox="0 0 20 20" fill="none" xmlns="http://www.w3.org/2000/svg">
<path fill-rule="evenodd" clip-rule="evenodd" d="M9.89941 11.4143L6.36388 14.9498C5.97336 15.3404 5.34019 15.3404 4.94967 14.9498C4.55914 14.5593 4.55914 13.9261 4.94967 13.5356L8.4852 10.0001L4.94967 6.46455C4.55914 6.07402 4.55914 5.44086 4.94967 5.05033C5.34019 4.65981 5.97336 4.65981 6.36388 5.05033L9.89941 8.58587L13.4349 5.05033C13.8255 4.65981 14.4586 4.65981 14.8492 5.05033C15.2397 5.44086 15.2397 6.07402 14.8492 6.46455L11.3136 10.0001L14.8492 13.5356C15.2397 13.9261 15.2397 14.5593 14.8492 14.9498C14.4586 15.3404 13.8255 15.3404 13.4349 14.9498L9.89941 11.4143Z" fill="#9092A9"/>
</svg>
