<svg width="7" height="9" viewBox="0 0 7 9" fill="none" xmlns="http://www.w3.org/2000/svg">
<path d="M6.03874 2.34506H5.01934C4.9305 2.00916 4.77349 1.69514 4.55808 1.42253H6.03874C6.16107 1.42253 6.2784 1.37393 6.3649 1.28743C6.4514 1.20092 6.5 1.0836 6.5 0.961264C6.5 0.838929 6.4514 0.721605 6.3649 0.635101C6.2784 0.548597 6.16107 0.5 6.03874 0.5H0.964833C0.842499 0.5 0.725174 0.548597 0.638671 0.635101C0.552167 0.721605 0.503569 0.838929 0.503569 0.961264C0.503569 1.0836 0.552167 1.20092 0.638671 1.28743C0.725174 1.37393 0.842499 1.42253 0.964833 1.42253H2.57926C2.8838 1.4236 3.18183 1.51079 3.43893 1.67402C3.69603 1.83726 3.90172 2.0699 4.03224 2.34506H0.964833C0.842499 2.34506 0.725174 2.39365 0.638671 2.48016C0.552167 2.56666 0.503569 2.68398 0.503569 2.80632C0.503569 2.92865 0.552167 3.04598 0.638671 3.13248C0.725174 3.21899 0.842499 3.26758 0.964833 3.26758H4.19368C4.13838 3.65071 3.94727 4.00121 3.65516 4.25522C3.36306 4.50922 2.98941 4.64982 2.60232 4.65138H0.964833C0.943362 4.64922 0.921728 4.64922 0.900256 4.65138C0.86969 4.64662 0.83857 4.64662 0.808004 4.65138C0.776562 4.66208 0.746991 4.67765 0.720363 4.6975L0.665012 4.72979C0.639745 4.75261 0.617985 4.77903 0.600435 4.80821C0.584986 4.82865 0.571108 4.85024 0.558921 4.87278C0.554815 4.90031 0.554815 4.92829 0.558921 4.95581C0.526051 5.00182 0.506862 5.05619 0.503569 5.11264C0.501411 5.13411 0.501411 5.15575 0.503569 5.17722C0.49881 5.20778 0.49881 5.2389 0.503569 5.26947C0.514278 5.30091 0.529841 5.33048 0.549696 5.35711C0.549696 5.35711 0.549696 5.39401 0.581984 5.41246L3.34957 8.64131C3.42909 8.73428 3.54228 8.79186 3.66425 8.80138C3.78622 8.81089 3.90698 8.77157 3.99995 8.69205C4.09292 8.61253 4.1505 8.49933 4.16002 8.37736C4.16953 8.25539 4.13021 8.13464 4.05069 8.04167L1.97039 5.5739H2.57926C3.21398 5.57653 3.82664 5.34113 4.2963 4.91417C4.76596 4.4872 5.05851 3.89969 5.11621 3.26758H6.03874C6.16107 3.26758 6.2784 3.21899 6.3649 3.13248C6.4514 3.04598 6.5 2.92865 6.5 2.80632C6.5 2.68398 6.4514 2.56666 6.3649 2.48016C6.2784 2.39365 6.16107 2.34506 6.03874 2.34506Z" fill="#9092A9"/>
</svg>
