<svg width="8" height="9" viewBox="0 0 8 9" fill="none" xmlns="http://www.w3.org/2000/svg">
<path d="M6.625 0H1.375C0.892437 0 0.5 0.40365 0.5 0.9V8.55C0.5 8.66935 0.546094 8.78381 0.628141 8.8682C0.710188 8.95259 0.821468 9 0.9375 9H7.0625C7.17853 9 7.28981 8.95259 7.37186 8.8682C7.45391 8.78381 7.5 8.66935 7.5 8.55V0.9C7.5 0.40365 7.10756 0 6.625 0ZM6.625 8.1H1.375V0.9H6.625V8.1Z" fill="#9092A9"/>
<path d="M2.25 1.80005H3.5625V2.70005H2.25V1.80005ZM4.4375 1.80005H5.75V2.70005H4.4375V1.80005ZM2.25 3.60005H3.5625V4.50005H2.25V3.60005ZM4.4375 3.614H5.75V4.50005H4.4375V3.614ZM2.25 5.40005H3.5625V6.30005H2.25V5.40005ZM4.4375 5.40005H5.75V6.30005H4.4375V5.40005Z" fill="#9092A9"/>
</svg>
