<svg width="10" height="10" viewBox="0 0 10 10" fill="none" xmlns="http://www.w3.org/2000/svg">
<path d="M9.05 2.41245H7.625V1.46245C7.625 0.938526 7.19893 0.512451 6.675 0.512451H3.825C3.30107 0.512451 2.875 0.938526 2.875 1.46245V2.41245H1.45C0.926075 2.41245 0.5 2.83853 0.5 3.36245V8.58745C0.5 9.11138 0.926075 9.53745 1.45 9.53745H9.05C9.57393 9.53745 10 9.11138 10 8.58745V3.36245C10 2.83853 9.57393 2.41245 9.05 2.41245ZM7.15 3.36245V8.58745H3.35V3.36245H7.15ZM6.675 1.46245V2.41245H3.825V1.46245H6.675ZM1.45 3.36245H2.4V8.58745H1.45V3.36245ZM8.1 8.58745V3.36245H9.05L9.05047 8.58745H8.1Z" fill="#9092A9"/>
</svg>
