<svg width="30" height="30" viewBox="0 0 30 30" fill="none" xmlns="http://www.w3.org/2000/svg">
<path fill-rule="evenodd" clip-rule="evenodd" d="M15 17.1429L9.64286 22.5C9.05112 23.0917 8.09173 23.0917 7.5 22.5C6.90827 21.9083 6.90827 20.9489 7.5 20.3571L12.8571 15L7.5 9.64286C6.90827 9.05112 6.90827 8.09173 7.5 7.5C8.09173 6.90827 9.05112 6.90827 9.64286 7.5L15 12.8571L20.3571 7.5C20.9489 6.90827 21.9083 6.90827 22.5 7.5C23.0917 8.09173 23.0917 9.05112 22.5 9.64286L17.1429 15L22.5 20.3571C23.0917 20.9489 23.0917 21.9083 22.5 22.5C21.9083 23.0917 20.9489 23.0917 20.3571 22.5L15 17.1429Z" fill="#FAFAFA"/>
</svg>
