<svg width="111" height="103" viewBox="0 0 111 103" fill="none" xmlns="http://www.w3.org/2000/svg">
<path d="M9.68967 48.8354C8.6123 48.7574 7.55016 49.6785 7.44973 50.9713C7.17278 64.7112 6.6749 78.1709 6.39795 91.9108C7.94043 91.9108 10.5112 91.9108 12.0537 91.9108C11.9594 78.2303 11.6527 64.2428 11.5583 50.5623C11.327 49.5942 10.5509 48.901 9.68967 48.8354Z" stroke="#9092A9" stroke-width="2" stroke-miterlimit="10"/>
<path d="M102.956 49.1863C101.878 49.1082 100.816 50.0294 100.716 51.3222C100.439 65.062 99.941 78.5218 99.6641 92.2616C101.207 92.2616 103.777 92.2616 105.32 92.2616C105.225 78.5811 104.919 64.5936 104.824 50.9131C104.593 49.9451 103.817 49.2518 102.956 49.1863Z" stroke="#9092A9" stroke-width="2" stroke-miterlimit="10"/>
<path d="M90.124 73.9858H82.2477C81.8094 73.9858 81.4534 73.6205 81.4534 73.1708V66.051C81.4503 65.6982 81.4747 65.2173 81.6147 64.6677C82.0773 62.844 83.7724 60.3209 86.268 60.3708C88.7606 60.4208 90.3005 63.0002 90.7418 64.6833C90.8848 65.2298 90.9183 65.7107 90.9214 66.051V73.1708C90.9183 73.6205 90.5622 73.9858 90.124 73.9858Z" stroke="#9092A9" stroke-width="2" stroke-miterlimit="10"/>
<path d="M58.6919 71.8298H53.369C53.0737 71.8298 52.8333 71.5488 52.8333 71.199V65.6968C52.8303 65.4251 52.8485 65.0504 52.9429 64.6288C53.2533 63.2205 54.4007 61.2719 56.0867 61.3094C57.7697 61.3468 58.8105 63.3391 59.1088 64.6413C59.2062 65.066 59.2275 65.4345 59.2305 65.6999V71.2022C59.2275 71.5488 58.9871 71.8298 58.6919 71.8298Z" stroke="#9092A9" stroke-width="2" stroke-miterlimit="10"/>
<path d="M90.256 92.1898H82.3767C81.9384 92.1898 81.5823 91.8245 81.5823 91.3748C81.5154 88.0741 81.4454 84.7734 81.3784 81.4727C81.4636 81.0262 81.6493 80.3517 82.0906 79.6616C82.2427 79.4211 83.6731 77.2508 86.2692 77.2664C88.1043 77.2789 89.7295 78.3781 90.4873 79.8489C90.8099 80.4766 90.9255 81.0699 90.9682 81.4821C90.9955 84.7797 91.0199 88.0772 91.0473 91.3748C91.0503 91.8245 90.6942 92.1898 90.256 92.1898Z" stroke="#9092A9" stroke-width="2" stroke-miterlimit="10"/>
<path d="M88.1193 53.834H84.7533C84.5646 53.834 84.4125 53.6935 84.4125 53.5186C84.382 52.2383 84.3547 50.9611 84.3242 49.6808C84.3607 49.506 84.4399 49.2468 84.6286 48.9782C84.6955 48.8846 85.3042 48.0446 86.415 48.0508C87.2002 48.0539 87.8941 48.4817 88.2167 49.0532C88.3537 49.2968 88.4024 49.5278 88.4237 49.6871C88.4359 50.9643 88.445 52.2446 88.4572 53.5217C88.4572 53.6935 88.305 53.834 88.1193 53.834Z" stroke="#9092A9" stroke-width="2" stroke-miterlimit="10"/>
<path d="M65.8561 92.1974C59.0298 92.1974 52.2065 92.1974 45.3801 92.1974C44.7897 91.7196 44.3028 91.1201 44.2541 90.3956C44.2449 90.2769 44.2541 90.1864 44.2541 90.1614C44.2967 89.4994 44.3119 82.0486 44.2784 64.6521C44.4762 63.5029 44.9297 61.7854 46.0071 59.993C46.3783 59.3716 49.86 53.7944 56.169 53.8381C60.6306 53.8694 64.584 56.6954 66.4283 60.4739C67.2165 62.0852 67.4935 63.6153 67.5969 64.6708C67.6609 73.1458 67.7248 81.6239 67.7917 90.0989C67.7856 91.2575 66.9213 92.1974 65.8561 92.1974Z" stroke="#9092A9" stroke-width="2" stroke-miterlimit="10"/>
<path d="M58.6664 92.2086H53.2187C52.9143 92.2086 52.6678 91.9557 52.6678 91.6434C52.6222 89.3607 52.5735 87.0781 52.5278 84.7923C52.5887 84.4831 52.7165 84.0178 53.0209 83.5369C53.1274 83.3683 54.1165 81.8694 55.9121 81.8819C57.1812 81.8913 58.3073 82.6501 58.8307 83.6681C59.0559 84.1021 59.132 84.5143 59.1624 84.7985C59.1807 87.0812 59.199 89.3607 59.2172 91.6434C59.2142 91.9557 58.9677 92.2086 58.6664 92.2086Z" stroke="#9092A9" stroke-width="2" stroke-miterlimit="10"/>
<path d="M70.8116 51.4497H41.312V92.1978H70.8116V51.4497Z" stroke="#9092A9" stroke-width="2" stroke-miterlimit="10"/>
<path d="M9.81259 48.8387H9.3078C9.26219 48.8387 9.22266 48.8013 9.22266 48.7513V46.3374C9.22266 46.2906 9.25915 46.25 9.3078 46.25H9.81259C9.8582 46.25 9.89774 46.2875 9.89774 46.3374V48.7513C9.89469 48.8013 9.8582 48.8387 9.81259 48.8387Z" stroke="#9092A9" stroke-width="2" stroke-miterlimit="10"/>
<path d="M103.075 49.1704H102.57C102.524 49.1704 102.485 49.1329 102.485 49.083V46.669C102.485 46.6221 102.521 46.5815 102.57 46.5815H103.075C103.12 46.5815 103.16 46.619 103.16 46.669V49.083C103.157 49.1329 103.12 49.1704 103.075 49.1704Z" stroke="#9092A9" stroke-width="2" stroke-miterlimit="10"/>
<path d="M86.8917 34.8135H86.2835C86.2287 34.8135 86.1831 34.7666 86.1831 34.7104V32.3311C86.1831 32.2749 86.2287 32.228 86.2835 32.228H86.8917C86.9464 32.228 86.992 32.2749 86.992 32.3311V34.7104C86.992 34.7666 86.9494 34.8135 86.8917 34.8135Z" stroke="#9092A9" stroke-width="2" stroke-miterlimit="10"/>
<path d="M40.4688 47.3405V46.9929C40.4688 46.9616 40.5145 46.9355 40.5695 46.9355H71.0358C71.0908 46.9355 71.1365 46.9616 71.1365 46.9929V47.3405C71.1365 47.3718 71.0908 47.3978 71.0358 47.3978H40.5695C40.5145 47.3978 40.4688 47.3718 40.4688 47.3405Z" stroke="#9092A9" stroke-width="2" stroke-miterlimit="10"/>
<path d="M56.3678 7.88647H55.7595C55.7048 7.88647 55.6592 7.83963 55.6592 7.78343V1.37258C55.6592 1.31637 55.7048 1.26953 55.7595 1.26953H56.3678C56.4225 1.26953 56.4681 1.31637 56.4681 1.37258V7.78343C56.4681 7.83963 56.4225 7.88647 56.3678 7.88647Z" stroke="#9092A9" stroke-width="2" stroke-miterlimit="10"/>
<path d="M73.9528 42.377H38.1016V92.1995H73.9528V42.377Z" stroke="#9092A9" stroke-width="2" stroke-miterlimit="10"/>
<path d="M94.4758 92.1969H78.1541C78.0415 92.1969 77.9502 92.1032 77.9502 91.9877V54.0469C77.9502 53.9313 78.0415 53.8376 78.1541 53.8376H94.4758C94.5884 53.8376 94.6797 53.9313 94.6797 54.0469V91.9877C94.6797 92.1032 94.5884 92.1969 94.4758 92.1969Z" stroke="#9092A9" stroke-width="2" stroke-miterlimit="10"/>
<path d="M92.6952 53.8293H80.2508C80.1382 53.8293 80.0469 53.7357 80.0469 53.6201V46.3381C80.0469 46.2226 80.1382 46.1289 80.2508 46.1289H92.6952C92.8078 46.1289 92.8991 46.2226 92.8991 46.3381V53.6201C92.8991 53.7357 92.8078 53.8293 92.6952 53.8293Z" stroke="#9092A9" stroke-width="2" stroke-miterlimit="10"/>
<path d="M92.1619 46.1353H80.9439C80.3383 45.5794 79.1361 44.3022 79.0875 42.5629C79.0296 40.4957 80.6365 39.003 82.2678 37.4854C83.7743 36.0833 85.3203 35.2152 86.556 34.6719C88.3607 35.4963 89.6024 36.5174 90.3907 37.2824C91.5167 38.3816 94.344 41.139 93.6501 43.9057C93.3823 44.9705 92.6763 45.7043 92.1619 46.1353Z" stroke="#9092A9" stroke-width="2" stroke-miterlimit="10"/>
<path d="M73.1335 42.3689H39.3823C37.5623 40.6983 33.9437 36.8542 33.7977 31.6238C33.6211 25.4034 38.4601 20.9098 43.3691 16.3476C47.9038 12.132 52.5511 9.52144 56.2701 7.87891C61.6995 10.3552 65.4398 13.431 67.8046 15.7356C71.1979 19.0425 79.7012 27.3363 77.6134 35.6614C76.8069 38.8653 74.6826 41.073 73.1335 42.3689Z" stroke="#9092A9" stroke-width="2" stroke-miterlimit="10"/>
<path d="M109.41 101.406H2.20951C1.96908 101.406 1.77734 101.206 1.77734 100.963V92.6502C1.77734 92.4035 1.97212 92.2068 2.20951 92.2068H109.41C109.651 92.2068 109.842 92.4066 109.842 92.6502V100.963C109.842 101.209 109.648 101.406 109.41 101.406Z" stroke="#9092A9" stroke-width="2" stroke-miterlimit="10"/>
<path d="M77.9502 73.9785H93.9767" stroke="#9092A9" stroke-width="2" stroke-miterlimit="10"/>
<path d="M49.9023 71.8281H61.7533" stroke="#9092A9" stroke-width="2" stroke-miterlimit="10"/>
<path d="M4.90234 55.9082H13.5425" stroke="#9092A9" stroke-width="2" stroke-miterlimit="10"/>
<path d="M98.168 56.2441H106.808" stroke="#9092A9" stroke-width="2" stroke-miterlimit="10"/>
<path d="M4.63672 69.7383H13.8217" stroke="#9092A9" stroke-width="2" stroke-miterlimit="10"/>
<path d="M97.9033 70.0669H107.088" stroke="#9092A9" stroke-width="2" stroke-miterlimit="10"/>
<path d="M4.14453 81.1758H14.3217" stroke="#9092A9" stroke-width="2" stroke-miterlimit="10"/>
<path d="M97.4067 81.53H107.584" stroke="#9092A9" stroke-width="2" stroke-miterlimit="10"/>
<path d="M29.1474 73.0668H21.2711C20.8329 73.0668 20.4768 72.7014 20.4768 72.2518V65.1321C20.4738 64.7792 20.4981 64.2983 20.6381 63.7487C21.1007 61.9251 22.7959 59.4019 25.2914 59.4519C27.784 59.5019 29.3239 62.0812 29.7652 63.7643C29.9083 64.3108 29.9418 64.7917 29.9448 65.1321V72.2518C29.9418 72.7014 29.5857 73.0668 29.1474 73.0668Z" stroke="#9092A9" stroke-width="2" stroke-miterlimit="10"/>
<path d="M29.312 91.2926H21.4357C20.9975 91.2926 20.6414 90.9273 20.6414 90.4776C20.5745 87.1769 20.5045 83.8762 20.4375 80.5755C20.5227 80.129 20.7084 79.4545 21.1497 78.7643C21.3018 78.5239 22.7322 76.3536 25.3282 76.3692C27.1634 76.3817 28.7886 77.4809 29.5464 78.9517C29.869 79.5794 29.9846 80.1727 30.0272 80.5849C30.0546 83.8824 30.079 87.18 30.1064 90.4776C30.1064 90.9304 29.7503 91.2926 29.312 91.2926Z" stroke="#9092A9" stroke-width="2" stroke-miterlimit="10"/>
<path d="M27.1701 52.9296H23.8041C23.6154 52.9296 23.4633 52.789 23.4633 52.6142C23.4328 51.3339 23.4054 50.0568 23.375 48.7765C23.4115 48.6016 23.4906 48.3425 23.6793 48.0739C23.7463 47.9803 24.355 47.1403 25.4658 47.1465C26.251 47.1496 26.9449 47.5774 27.2675 48.1489C27.4045 48.3924 27.4532 48.6235 27.4745 48.7828C27.4866 50.0599 27.4958 51.3402 27.5079 52.6173C27.5079 52.789 27.3558 52.9296 27.1701 52.9296Z" stroke="#9092A9" stroke-width="2" stroke-miterlimit="10"/>
<path d="M25.9585 33.9137H25.3504C25.2956 33.9137 25.25 33.8669 25.25 33.8107V31.4312C25.25 31.375 25.2956 31.3281 25.3504 31.3281H25.9585C26.0133 31.3281 26.0589 31.375 26.0589 31.4312V33.8107C26.0589 33.8669 26.0133 33.9137 25.9585 33.9137Z" stroke="#9092A9" stroke-width="2" stroke-miterlimit="10"/>
<path d="M33.5256 91.2971H17.2039C17.0913 91.2971 17 91.2034 17 91.0879V53.1472C17 53.0317 17.0913 52.938 17.2039 52.938H33.5256C33.6383 52.938 33.7296 53.0317 33.7296 53.1472V91.0879C33.7296 91.2034 33.6383 91.2971 33.5256 91.2971Z" stroke="#9092A9" stroke-width="2" stroke-miterlimit="10"/>
<path d="M31.7109 52.9329H19.2664C19.1538 52.9329 19.0625 52.8392 19.0625 52.7236V45.4416C19.0625 45.3261 19.1538 45.2324 19.2664 45.2324H31.7109C31.8235 45.2324 31.9148 45.3261 31.9148 45.4416V52.7236C31.9148 52.8392 31.8235 52.9329 31.7109 52.9329Z" stroke="#9092A9" stroke-width="2" stroke-miterlimit="10"/>
<path d="M31.2244 45.2367H20.0064C19.4008 44.6809 18.1986 43.4037 18.15 41.6644C18.0921 39.5972 19.699 38.1046 21.3303 36.5869C22.8368 35.1849 24.3828 34.3168 25.6184 33.7734C27.4232 34.5978 28.6649 35.6189 29.4531 36.384C30.5792 37.4831 33.4065 40.2405 32.7126 43.0071C32.4448 44.0719 31.7387 44.8058 31.2244 45.2367Z" stroke="#9092A9" stroke-width="2" stroke-miterlimit="10"/>
</svg>
