<svg width="137" height="97" viewBox="0 0 137 97" fill="none" xmlns="http://www.w3.org/2000/svg">
<g clip-path="url(#clip0_1_851)">
<path d="M30.0838 93.7956C25.969 93.7956 21.8542 93.7956 17.7393 93.7956C17.4568 93.7282 17.076 93.603 16.7689 93.3334C16.1916 92.8231 16.2531 92.1009 16.2653 91.8794C16.339 90.7432 16.2653 85.2065 16.1794 77.5707C16.0688 76.8966 15.9214 75.2982 16.9532 73.5554C17.3094 72.9584 18.4149 71.3022 20.8592 70.2622C22.0875 69.7423 23.2299 69.5497 23.9668 69.4727C24.8635 69.6652 26.2392 70.0504 27.6641 70.8207C28.5976 71.3311 30.0101 72.0918 30.9437 73.5554C31.8649 74.9901 31.8158 76.3574 31.7912 76.964C31.6929 79.7757 31.828 85.2257 32.0369 92.5342C32 92.6882 31.914 92.9771 31.6192 93.2467C31.0665 93.7667 30.2312 93.7956 30.0838 93.7956Z" stroke="#9092A9" stroke-width="2" stroke-miterlimit="10"/>
<path d="M75.156 93.757C71.3851 93.757 67.6141 93.757 63.8432 93.757C63.5853 93.6608 63.2291 93.4778 62.9588 93.1023C62.4307 92.3705 62.4798 91.3402 62.4921 91.0128C62.5535 89.3758 62.4921 81.4415 62.4061 70.4837C62.3938 68.9142 62.3693 67.0943 63.1062 64.7159C63.9906 61.8946 65.4523 59.988 65.9559 59.3429C67.2825 57.6771 68.7319 56.4831 69.8251 55.7031C70.9306 56.7527 72.1589 58.1008 73.3012 59.7473C74.0259 60.7873 75.1805 62.4627 75.9421 64.7159C76.6914 66.9498 76.7036 68.7408 76.7159 69.6074C76.7528 73.565 76.8879 81.4993 76.937 91.9468C76.9002 92.1683 76.8142 92.5823 76.5562 92.9675C76.0649 93.7185 75.2911 93.7474 75.156 93.757Z" stroke="#9092A9" stroke-width="2" stroke-miterlimit="10"/>
<path d="M36.0888 59.5948C28.0802 59.6044 20.0839 59.6141 12.0753 59.6237C12.063 58.7378 12.149 57.592 12.5789 56.3017C13.3528 53.9426 14.839 52.2767 15.8339 51.3427C16.313 50.919 19.2487 48.377 24.1251 48.2807C24.5427 48.2711 28.9277 48.2422 32.3793 50.8613C34.3937 52.3827 35.1307 54.0966 35.4869 54.9247C36.3222 56.9179 36.2362 58.6319 36.0888 59.5948Z" stroke="#9092A9" stroke-width="2" stroke-miterlimit="10"/>
<path d="M24.2695 48.2319C23.7536 48.2319 23.3359 47.9046 23.3359 47.5001V45.4877C23.3359 45.0832 23.7536 44.7559 24.2695 44.7559C24.7853 44.7559 25.203 45.0832 25.203 45.4877V47.5001C25.203 47.9046 24.7853 48.2319 24.2695 48.2319Z" stroke="#9092A9" stroke-width="2" stroke-miterlimit="10"/>
<path d="M77.862 49.1562C72.3838 49.1658 66.9055 49.1755 61.4272 49.1755C61.415 48.4726 61.4764 47.5674 61.7589 46.5564C62.2871 44.698 63.3066 43.3884 63.9944 42.647C64.3261 42.31 66.3405 40.3071 69.6692 40.2397C69.9517 40.2301 72.9611 40.2108 75.3194 42.2715C76.6951 43.4751 77.211 44.8231 77.4444 45.4779C78.0094 47.0378 77.9603 48.3859 77.862 49.1562Z" stroke="#9092A9" stroke-width="2" stroke-miterlimit="10"/>
<path d="M69.67 40.0861C69.3138 40.0861 69.0312 39.8646 69.0312 39.5854V37.8425C69.0312 37.5633 69.3138 37.3418 69.67 37.3418C70.0262 37.3418 70.3087 37.5633 70.3087 37.8425V39.5854C70.3087 39.855 70.0262 40.0861 69.67 40.0861Z" stroke="#9092A9" stroke-width="2" stroke-miterlimit="10"/>
<path d="M92.1596 8.69523C91.6437 8.69523 91.2261 8.36785 91.2261 7.96343V1.84899C91.2261 1.44457 91.6437 1.11719 92.1596 1.11719C92.6755 1.11719 93.0931 1.44457 93.0931 1.84899V7.9538C93.1054 8.36785 92.6878 8.69523 92.1596 8.69523Z" stroke="#9092A9" stroke-width="2" stroke-miterlimit="10"/>
<path d="M77.9258 19.9023H105.858" stroke="#9092A9" stroke-width="2" stroke-miterlimit="10"/>
<path d="M78.1958 27.0859H106.128" stroke="#9092A9" stroke-width="2" stroke-miterlimit="10"/>
<path d="M78.1958 34.0762H106.128" stroke="#9092A9" stroke-width="2" stroke-miterlimit="10"/>
<path d="M85.4302 49.0703H99.3224" stroke="#9092A9" stroke-width="2" stroke-miterlimit="10"/>
<path d="M85.4302 59.709H99.3224" stroke="#9092A9" stroke-width="2" stroke-miterlimit="10"/>
<path d="M38.9501 93.7963H7.93527C7.4808 93.7963 7.1123 93.5074 7.1123 93.1511V60.3932C7.1123 60.0369 7.4808 59.748 7.93527 59.748H38.9624C39.4169 59.748 39.7854 60.0369 39.7854 60.3932V93.1511C39.7731 93.5074 39.4046 93.7963 38.9501 93.7963Z" stroke="#9092A9" stroke-width="2" stroke-miterlimit="10"/>
<path d="M84.6047 93.7971H54.7322C54.2777 93.7971 53.9092 93.5083 53.9092 93.152V49.7155C53.9092 49.3592 54.2777 49.0703 54.7322 49.0703H84.617C85.0714 49.0703 85.4399 49.3592 85.4399 49.7155V93.1616C85.4277 93.5083 85.0592 93.7971 84.6047 93.7971Z" stroke="#9092A9" stroke-width="2" stroke-miterlimit="10"/>
<path d="M98.1764 94.0367H86.2495C85.795 94.0367 85.4265 93.7479 85.4265 93.3916C85.2791 67.0851 85.144 40.7786 84.9966 14.4817C85.0334 13.981 85.1563 13.2203 85.6353 12.4018C86.6671 10.659 89.2097 8.79094 92.5875 8.91612C95.3389 9.02204 97.5745 10.4279 98.6063 12.0648C99.2081 13.0181 99.3187 13.9232 99.3187 14.4817C99.2081 40.7882 99.0976 67.0947 98.987 93.3916C98.7168 93.6131 98.4466 93.8249 98.1764 94.0367Z" stroke="#9092A9" stroke-width="2" stroke-miterlimit="10"/>
<path d="M46.8722 8.54094C46.3564 8.54094 45.9387 8.21355 45.9387 7.80913V1.6947C45.9265 1.29028 46.3564 0.962891 46.8722 0.962891C47.3881 0.962891 47.8058 1.29028 47.8058 1.6947V7.7995C47.8058 8.20392 47.3881 8.54094 46.8722 8.54094Z" stroke="#9092A9" stroke-width="2" stroke-miterlimit="10"/>
<path d="M32.6245 19.75H60.5563" stroke="#9092A9" stroke-width="2" stroke-miterlimit="10"/>
<path d="M32.9062 26.9316H60.838" stroke="#9092A9" stroke-width="2" stroke-miterlimit="10"/>
<path d="M32.9062 33.9238H60.838" stroke="#9092A9" stroke-width="2" stroke-miterlimit="10"/>
<path d="M40.1289 48.916H54.0334" stroke="#9092A9" stroke-width="2" stroke-miterlimit="10"/>
<path d="M40.1289 59.5547H54.0334" stroke="#9092A9" stroke-width="2" stroke-miterlimit="10"/>
<path d="M52.8751 93.8824H40.9482C40.4937 93.8824 40.1252 93.5936 40.1252 93.2373C39.9778 66.9308 39.8427 40.6243 39.6953 14.3274C39.7322 13.8267 39.855 13.066 40.334 12.2475C41.3658 10.5047 43.9084 8.63665 47.2863 8.76182C50.0377 8.86774 52.2732 10.2736 53.305 11.9105C53.9069 12.8638 54.0174 13.7689 54.0174 14.3274C53.9069 40.6339 53.7963 66.9404 53.6858 93.2373C53.4155 93.4588 53.1453 93.6706 52.8751 93.8824Z" stroke="#9092A9" stroke-width="2" stroke-miterlimit="10"/>
<path d="M121.959 93.7585C117.844 93.7585 113.729 93.7585 109.614 93.7585C109.332 93.6911 108.951 93.5659 108.644 93.2963C108.067 92.7859 108.128 92.0638 108.14 91.8423C108.214 90.7061 108.14 85.1694 108.054 77.5336C107.944 76.8595 107.796 75.2611 108.828 73.5183C109.184 72.9213 110.29 71.2651 112.734 70.2251C113.963 69.7052 115.105 69.5126 115.842 69.4355C116.739 69.6281 118.114 70.0133 119.539 70.7836C120.473 71.294 121.885 72.0546 122.819 73.5183C123.74 74.953 123.691 76.3203 123.666 76.9269C123.568 79.7386 123.703 85.1886 123.912 92.4971C123.875 92.6511 123.789 92.94 123.494 93.2096C122.941 93.7296 122.106 93.7585 121.959 93.7585Z" stroke="#9092A9" stroke-width="2" stroke-miterlimit="10"/>
<path d="M127.977 59.5557C119.969 59.5654 111.973 59.575 103.964 59.5846C103.939 58.6891 104.038 57.5433 104.455 56.2626C105.229 53.9035 106.715 52.2377 107.71 51.3037C108.189 50.88 111.125 48.3379 116.001 48.2416C116.419 48.232 120.804 48.2031 124.256 50.8222C126.27 52.3436 127.007 54.0576 127.363 54.8857C128.199 56.8692 128.113 58.5928 127.977 59.5557Z" stroke="#9092A9" stroke-width="2" stroke-miterlimit="10"/>
<path d="M116.148 48.1929C115.632 48.1929 115.215 47.8655 115.215 47.4611V45.4486C115.215 45.0442 115.632 44.7168 116.148 44.7168C116.664 44.7168 117.082 45.0442 117.082 45.4486V47.4611C117.082 47.8655 116.664 48.1929 116.148 48.1929Z" stroke="#9092A9" stroke-width="2" stroke-miterlimit="10"/>
<path d="M130.838 93.7572H99.8108C99.3563 93.7572 98.9878 93.4684 98.9878 93.1121V60.3541C98.9878 59.9979 99.3563 59.709 99.8108 59.709H130.838C131.292 59.709 131.661 59.9979 131.661 60.3541V93.1121C131.661 93.4684 131.292 93.7572 130.838 93.7572Z" stroke="#9092A9" stroke-width="2" stroke-miterlimit="10"/>
<path d="M17.0833 68.4621C18.4129 68.4621 19.4908 67.6171 19.4908 66.5748C19.4908 65.5325 18.4129 64.6875 17.0833 64.6875C15.7537 64.6875 14.6758 65.5325 14.6758 66.5748C14.6758 67.6171 15.7537 68.4621 17.0833 68.4621Z" fill="#9092A9"/>
<path d="M30.6575 68.2023C31.9871 68.2023 33.065 67.3573 33.065 66.315C33.065 65.2727 31.9871 64.4277 30.6575 64.4277C29.3279 64.4277 28.25 65.2727 28.25 66.315C28.25 67.3573 29.3279 68.2023 30.6575 68.2023Z" fill="#9092A9"/>
<path d="M108.287 68.4621C109.617 68.4621 110.694 67.6171 110.694 66.5748C110.694 65.5325 109.617 64.6875 108.287 64.6875C106.957 64.6875 105.879 65.5325 105.879 66.5748C105.879 67.6171 106.957 68.4621 108.287 68.4621Z" fill="#9092A9"/>
<path d="M121.861 68.2023C123.19 68.2023 124.268 67.3573 124.268 66.315C124.268 65.2727 123.19 64.4277 121.861 64.4277C120.531 64.4277 119.453 65.2727 119.453 66.315C119.453 67.3573 120.531 68.2023 121.861 68.2023Z" fill="#9092A9"/>
</g>
<rect x="1.33984" y="0.5" width="134.162" height="96" stroke="#FAFAFA"/>
<defs>
<clipPath id="clip0_1_851">
<rect x="0.839844" width="135.162" height="97" fill="white"/>
</clipPath>
</defs>
</svg>
