<svg width="141" height="95" viewBox="0 0 141 95" fill="none" xmlns="http://www.w3.org/2000/svg">
<path d="M71.2188 9.67411V0" stroke="#9092A9" stroke-width="2" stroke-miterlimit="10"/>
<path d="M84.3398 23.1114V13.4373" stroke="#9092A9" stroke-width="2" stroke-miterlimit="10"/>
<path d="M118.215 33.2913V23.6172" stroke="#9092A9" stroke-width="2" stroke-miterlimit="10"/>
<path d="M23.8672 34.6526V24.9785" stroke="#9092A9" stroke-width="2" stroke-miterlimit="10"/>
<path d="M2.37109 45.3245V35.6504" stroke="#9092A9" stroke-width="2" stroke-miterlimit="10"/>
<path d="M139.633 45.3245V35.6504" stroke="#9092A9" stroke-width="2" stroke-miterlimit="10"/>
<path d="M57.4072 24L57.4072 13" stroke="#9092A9" stroke-width="2" stroke-miterlimit="10"/>
<path d="M77.0932 93.5948H65.0232C64.3534 93.5948 63.8066 93.0472 63.8066 92.3733C63.6972 87.4169 63.6015 82.4605 63.4922 77.5041C63.6289 76.8301 63.9023 75.8192 64.5857 74.7802C64.8181 74.4151 67.0052 71.1576 70.983 71.1857C73.7989 71.1998 76.2867 72.8566 77.4486 75.061C77.9407 76.0017 78.1185 76.9003 78.1868 77.5181C78.2278 82.4745 78.2688 87.4309 78.3098 92.3873C78.3098 93.0472 77.763 93.5948 77.0932 93.5948Z" stroke="#9092A9" stroke-width="2" stroke-miterlimit="10"/>
<path d="M77.3412 60.2773H64.9567C64.2733 60.2773 63.7128 59.7999 63.7128 59.2242C63.6035 54.9418 63.4941 50.6734 63.3984 46.3909C63.5351 45.8152 63.8222 44.9447 64.5193 44.0461C64.7654 43.7372 67.0072 40.915 71.0806 40.9431C73.9649 40.9571 76.5211 42.3893 77.7103 44.2848C78.2161 45.0992 78.3938 45.8714 78.4621 46.4049C78.5031 50.6733 78.5441 54.9558 78.5851 59.2242C78.5988 59.7999 78.0384 60.2773 77.3412 60.2773Z" stroke="#9092A9" stroke-width="2" stroke-miterlimit="10"/>
<path d="M81.7026 22.8448C74.4304 22.8588 67.1583 22.8728 59.8998 22.8869C59.8862 21.8198 59.9682 20.4578 60.3509 18.9274C61.0481 16.1192 62.4013 14.1395 63.3035 13.0302C63.7409 12.5248 66.4065 9.49196 70.8354 9.39367C71.2044 9.37963 75.2096 9.35155 78.3399 12.4686C80.1716 14.2799 80.8414 16.3158 81.1558 17.3127C81.9076 19.6435 81.8392 21.6934 81.7026 22.8448Z" stroke="#9092A9" stroke-width="2" stroke-miterlimit="10"/>
<path d="M5.60351 48.244C5.58984 48.2159 5.60351 48.1878 5.63085 48.1598L20.4485 39.5387C20.4758 39.5247 20.5032 39.5387 20.5305 39.5668C20.5442 39.5949 20.5305 39.623 20.5032 39.651L5.68552 48.258C5.65818 48.2721 5.61718 48.2721 5.60351 48.244Z" stroke="#9092A9" stroke-width="2" stroke-miterlimit="10"/>
<path d="M44.2167 93.0906C40.1979 93.0906 36.1791 93.0906 32.1466 93.0906C31.8595 92.9782 31.4904 92.7536 31.2034 92.2762C30.6293 91.3776 30.6976 90.0999 30.7113 89.7067C30.7796 87.6989 30.7113 77.9265 30.6293 64.4333C30.5199 63.2398 30.3696 60.4317 31.3811 57.3287C31.7228 56.2616 32.8027 53.3551 35.2085 51.5017C36.4114 50.575 37.5323 50.2381 38.2568 50.0977C39.1317 50.4346 40.4713 51.1086 41.8792 52.4846C42.7951 53.3832 44.1757 54.7311 45.0915 57.3146C45.9937 59.856 45.939 62.257 45.9117 63.3381C45.816 68.3086 45.9527 77.9265 46.1441 90.83C46.1031 91.1108 46.021 91.6163 45.7477 92.0796C45.1735 93.0484 44.3534 93.0906 44.2167 93.0906Z" stroke="#9092A9" stroke-width="2" stroke-miterlimit="10"/>
<path d="M18.5223 93.2868C15.2143 93.2868 11.9063 93.2868 8.61196 93.2868C8.44793 93.2447 8.17454 93.1605 7.92849 92.9218C7.36805 92.3882 7.45006 91.5739 7.46373 91.4756C7.21768 80.0043 6.95796 68.547 6.71191 57.0756C6.95796 56.0507 7.45006 54.5904 8.50261 53.1442C9.54148 51.7261 10.676 50.9258 11.3185 50.4624C12.3164 49.7604 13.2459 49.3392 13.9294 49.0583C14.5992 49.1566 15.7064 49.3953 16.882 50.1114C18.1532 50.8837 18.9324 51.8525 19.3288 52.4281C19.2468 65.458 19.1647 78.5019 19.0827 91.5317C19.0007 91.7985 18.9187 92.0793 18.8367 92.3461C18.7137 92.669 18.618 92.9779 18.5223 93.2868Z" stroke="#9092A9" stroke-width="2" stroke-miterlimit="10"/>
<path d="M27.9819 43.8779C27.9683 43.8498 27.9819 43.8217 28.0093 43.8076L55.4164 32.3082C55.4438 32.2942 55.4711 32.3082 55.4848 32.3363C55.4985 32.3644 55.4848 32.3925 55.4574 32.4065L28.0503 43.9059C28.0366 43.92 27.9956 43.9059 27.9819 43.8779Z" stroke="#9092A9" stroke-width="2" stroke-miterlimit="10"/>
<path d="M58.9839 93.2872H24.783C24.2773 93.2872 23.8672 92.866 23.8672 92.3465C23.8672 74.1777 23.8672 55.9949 23.8672 37.8261C35.8826 32.8416 47.8843 27.8572 59.8998 22.8867C59.8998 46.04 59.8998 69.1932 59.8998 92.3606C59.599 92.6554 59.2846 92.9784 58.9839 93.2872Z" stroke="#9092A9" stroke-width="2" stroke-miterlimit="10"/>
<path d="M23.3185 93.2866H2.99209C2.69136 93.2866 2.44531 92.9075 2.44531 92.4442C2.44531 76.0586 2.44531 59.673 2.44531 43.2874C9.58075 38.7943 16.7298 34.3013 23.8653 29.8223C23.8653 50.7009 23.8653 71.5655 23.8653 92.4442C23.6876 92.725 23.5099 93.0058 23.3185 93.2866Z" stroke="#9092A9" stroke-width="2" stroke-miterlimit="10"/>
<path d="M136.479 48.244C136.493 48.2159 136.479 48.1878 136.452 48.1598L121.634 39.5387C121.607 39.5247 121.58 39.5387 121.552 39.5668C121.539 39.5949 121.552 39.623 121.58 39.651L136.397 48.2721C136.425 48.2721 136.466 48.2721 136.479 48.244Z" stroke="#9092A9" stroke-width="2" stroke-miterlimit="10"/>
<path d="M97.8576 93.0906C101.876 93.0906 105.895 93.0906 109.928 93.0906C110.215 92.9782 110.584 92.7536 110.871 92.2762C111.445 91.3776 111.377 90.0999 111.363 89.7067C111.295 87.6989 111.363 77.9265 111.445 64.4333C111.554 63.2398 111.705 60.4317 110.693 57.3287C110.351 56.2616 109.272 53.3551 106.866 51.5017C105.663 50.575 104.542 50.2381 103.817 50.0977C102.943 50.4346 101.603 51.1086 100.195 52.4846C99.2792 53.3832 97.8986 54.7311 96.9827 57.3146C96.0805 59.856 96.1352 62.257 96.1626 63.3381C96.2582 68.3086 96.1215 77.9265 95.9302 90.83C95.9712 91.1108 96.0532 91.6163 96.3266 92.0796C96.9007 93.0484 97.7209 93.0906 97.8576 93.0906Z" stroke="#9092A9" stroke-width="2" stroke-miterlimit="10"/>
<path d="M123.56 93.2871C126.868 93.2871 130.176 93.2871 133.47 93.2871C133.634 93.245 133.908 93.1607 134.154 92.922C134.714 92.3885 134.632 91.5741 134.618 91.4758C134.865 80.0045 135.124 68.5472 135.37 57.0759C135.124 56.0509 134.632 54.5907 133.58 53.1445C132.541 51.7263 131.406 50.926 130.764 50.4627C129.766 49.7606 128.836 49.3394 128.153 49.0586C127.483 49.1569 126.376 49.3956 125.2 50.1117C123.929 50.8839 123.15 51.8527 122.753 52.4284C122.835 65.4582 122.917 78.5021 122.999 91.532C123.081 91.7988 123.164 92.0796 123.246 92.3463C123.369 92.6693 123.464 92.9782 123.56 93.2871Z" stroke="#9092A9" stroke-width="2" stroke-miterlimit="10"/>
<path d="M114.098 43.8779C114.112 43.8498 114.098 43.8217 114.071 43.8076L86.6636 32.3082C86.6362 32.2942 86.6089 32.3082 86.5952 32.3363C86.5815 32.3644 86.5952 32.3925 86.6225 32.4065L114.03 43.9059C114.043 43.92 114.084 43.9059 114.098 43.8779Z" stroke="#9092A9" stroke-width="2" stroke-miterlimit="10"/>
<path d="M83.0955 93.2872H117.296C117.802 93.2872 118.212 92.866 118.212 92.3465C118.212 74.1777 118.212 55.9949 118.212 37.8261C106.197 32.8416 94.1951 27.8572 82.1797 22.8867C82.1797 46.04 82.1797 69.1932 82.1797 92.3606C82.4804 92.6554 82.7948 92.9784 83.0955 93.2872Z" stroke="#9092A9" stroke-width="2" stroke-miterlimit="10"/>
<path d="M118.746 93.2866H139.072C139.373 93.2866 139.619 92.9075 139.619 92.4442C139.619 76.0586 139.619 59.673 139.619 43.2874C132.484 38.7943 125.335 34.3013 118.199 29.8223C118.199 50.7009 118.199 71.5655 118.199 92.4442C118.391 92.725 118.568 93.0058 118.746 93.2866Z" stroke="#9092A9" stroke-width="2" stroke-miterlimit="10"/>
<path d="M46.3286 93H102.286" stroke="#9092A9" stroke-width="2" stroke-miterlimit="10"/>
<rect x="0.5" y="0.5" width="140" height="94" stroke="#FAFAFA"/>
</svg>
