<svg width="109" height="95" viewBox="0 0 109 95" fill="none" xmlns="http://www.w3.org/2000/svg">
<g clip-path="url(#clip0_1_915)">
<path d="M24.2976 93.9479H2.94954C2.13441 93.9479 1.48438 93.2743 1.48438 92.4533V87.4223C1.48438 86.5908 2.14473 85.9277 2.94954 85.9277H24.2976C25.1127 85.9277 25.7628 86.6013 25.7628 87.4223V92.4533C25.7628 93.2848 25.1024 93.9479 24.2976 93.9479Z" stroke="#9092A9" stroke-width="2" stroke-miterlimit="10"/>
<path d="M35.5781 77.0645H25.7656V93.9573H35.5781V77.0645Z" stroke="#9092A9" stroke-width="2" stroke-miterlimit="10"/>
<path d="M83.1021 77.0652H73.2896V93.9581H83.1021V77.0652Z" stroke="#9092A9" stroke-width="2" stroke-miterlimit="10"/>
<path d="M105.935 93.9474H84.5872C83.7721 93.9474 83.1221 93.2738 83.1221 92.4528V87.4218C83.1221 86.5903 83.7824 85.9272 84.5872 85.9272H105.935C106.75 85.9272 107.4 86.6009 107.4 87.4218V92.4528C107.4 93.2843 106.75 93.9474 105.935 93.9474Z" stroke="#9092A9" stroke-width="2" stroke-miterlimit="10"/>
<path d="M60.4842 93.9474H48.4533C47.7827 93.9474 47.2358 93.558 47.2358 93.0844C47.1326 89.5795 47.0295 86.0641 46.9263 82.5592C47.2152 81.7803 47.8136 80.4857 49.0208 79.3069C49.5264 78.8123 51.7035 76.6756 54.8918 76.9177C57.4197 77.1072 59.0397 78.6649 59.5246 79.1491C60.8041 80.4226 61.3406 81.8224 61.5676 82.5697C61.6089 86.0746 61.6501 89.5795 61.6914 93.0949C61.6914 93.558 61.1549 93.9474 60.4842 93.9474Z" stroke="#9092A9" stroke-width="2" stroke-miterlimit="10"/>
<path d="M64.9951 93.9483H44.7098C43.5852 93.9483 42.6668 93.4431 42.6668 92.8221C42.4914 88.2437 42.316 83.6652 42.1406 79.0973C42.6256 78.0764 43.6367 76.3923 45.6694 74.8557C46.5258 74.2031 50.199 71.435 55.5747 71.7402C59.8361 71.9823 62.5704 74.0242 63.3855 74.6451C65.542 76.2976 66.45 78.1395 66.8318 79.1078C66.904 83.6757 66.9659 88.2542 67.0381 92.8221C67.0381 93.4431 66.1198 93.9483 64.9951 93.9483Z" stroke="#9092A9" stroke-width="2" stroke-miterlimit="10"/>
<path d="M1.47656 66.8554C7.20309 50.6887 12.9296 34.5326 18.6561 18.366C18.9863 17.0398 19.3371 15.0401 19.1308 12.6719C18.5736 6.04105 14.2503 2.43092 15.148 1.28368C16.1282 0.031188 21.5452 4.04127 28.0456 6.41995C33.2149 8.31448 35.0722 7.70402 54.6971 7.63035C74.1157 7.55667 75.3642 8.13555 79.9351 6.45153C86.3426 4.08337 91.8525 -0.0109125 93.297 1.60996C94.1844 2.60985 93.1525 5.33586 92.3374 7.47247C91.1612 10.5669 90.1294 11.0721 89.7269 13.135C89.469 14.4822 89.469 16.5872 91.058 19.5132C96.5472 35.3325 102.036 51.1518 107.515 66.9711C102.191 66.8238 96.8051 66.7291 91.3366 66.6764C83.0202 66.6028 74.8586 66.6343 66.8724 66.7712C66.955 65.4871 67.1407 60.6139 63.777 56.2776C62.9103 55.1619 59.6292 50.9413 54.4908 50.9519C49.1666 50.9624 45.8545 55.4882 44.8021 56.9301C42.0162 60.7192 41.6964 64.7503 41.6448 66.3817C35.4952 66.4133 29.3147 66.4659 23.1032 66.5291C15.8599 66.6133 8.64762 66.7185 1.47656 66.8554Z" stroke="#9092A9" stroke-width="2" stroke-miterlimit="10"/>
<path d="M3.84863 58.5725H43.3874" stroke="#9092A9" stroke-width="2" stroke-miterlimit="10"/>
<path d="M7.54248 49.7314H43.0572" stroke="#9092A9" stroke-width="2" stroke-miterlimit="10"/>
<path d="M10.3359 41.8379H98.2665" stroke="#9092A9" stroke-width="2" stroke-miterlimit="10"/>
<path d="M13.6211 33.2383H95.2679" stroke="#9092A9" stroke-width="2" stroke-miterlimit="10"/>
<path d="M17.293 24.6719H93.4506" stroke="#9092A9" stroke-width="2" stroke-miterlimit="10"/>
<path d="M18.6562 18.377H89.3659" stroke="#9092A9" stroke-width="2" stroke-miterlimit="10"/>
<path d="M19.1284 12.6719H51.2485" stroke="#9092A9" stroke-width="2" stroke-miterlimit="10"/>
<path d="M58.7305 12.6724H89.3648" stroke="#9092A9" stroke-width="2" stroke-miterlimit="10"/>
<path d="M65.6021 50L101.935 50" stroke="#9092A9" stroke-width="2" stroke-miterlimit="10"/>
<path d="M65.6021 59H103.954" stroke="#9092A9" stroke-width="2" stroke-miterlimit="10"/>
<path d="M35.5664 77.0645H43.0573" stroke="#9092A9" stroke-width="2" stroke-miterlimit="10"/>
<path d="M66.0986 77.0645H73.2903" stroke="#9092A9" stroke-width="2" stroke-miterlimit="10"/>
<path d="M42.457 62.9727H66.0957" stroke="#9092A9" stroke-width="2" stroke-miterlimit="10"/>
<path d="M6.93359 67.7292V85.5062" stroke="#9092A9" stroke-width="2" stroke-miterlimit="10"/>
<path d="M102.426 67.7285V85.5055" stroke="#9092A9" stroke-width="2" stroke-miterlimit="10"/>
<path d="M41.6646 66.3823V94.5792" stroke="#9092A9" stroke-width="2" stroke-miterlimit="10"/>
<path d="M66.8711 64.4875V94.9684" stroke="#9092A9" stroke-width="2" stroke-miterlimit="10"/>
<path d="M22.0894 77.0651C24.3077 75.1495 27.1762 73.0024 30.7359 71.0026C34.8115 68.7081 38.5983 67.2872 41.6627 66.3926" stroke="#9092A9" stroke-width="2" stroke-miterlimit="10"/>
<path d="M66.8906 66.7715C69.79 67.7293 73.0711 69.0133 76.5793 70.771C80.366 72.6761 83.5749 74.7075 86.2163 76.6125" stroke="#9092A9" stroke-width="2" stroke-miterlimit="10"/>
<path d="M42.0576 63.1408C43.368 52.0052 44.1625 43.3746 44.6371 37.6384C44.6371 37.6384 45.5864 26.1765 51.3542 12.6517C51.7566 11.7044 52.6646 9.70461 54.0782 9.57831C54.8004 9.51516 55.8838 9.91512 57.3903 12.2833C63.2819 21.5875 64.5716 36.9227 64.5716 36.9227C65.4383 47.2373 65.9955 55.6364 66.336 61.3831" stroke="#9092A9" stroke-width="2" stroke-miterlimit="10"/>
<path d="M35.5664 93.9473H73.2892" stroke="#9092A9" stroke-width="2" stroke-miterlimit="10"/>
<path d="M54.1904 41.6276C53.7571 41.6276 53.4062 41.2697 53.4062 40.8277V39.1437C53.4062 38.7016 53.7571 38.3438 54.1904 38.3438C54.6238 38.3438 54.9746 38.7016 54.9746 39.1437V40.8277C54.9849 41.2697 54.6238 41.6276 54.1904 41.6276Z" stroke="#9092A9" stroke-width="2" stroke-miterlimit="10"/>
<path d="M54.1904 33.1537C53.7571 33.1537 53.4062 32.7959 53.4062 32.3538V31.4171C53.4062 30.975 53.7571 30.6172 54.1904 30.6172C54.6238 30.6172 54.9746 30.975 54.9746 31.4171V32.3538C54.9849 32.7959 54.6238 33.1537 54.1904 33.1537Z" stroke="#9092A9" stroke-width="2" stroke-miterlimit="10"/>
<path d="M54.1904 24.6707C53.7571 24.6707 53.4062 24.3128 53.4062 23.8708V23.5655C53.4062 23.1235 53.7571 22.7656 54.1904 22.7656C54.6238 22.7656 54.9746 23.1235 54.9746 23.5655V23.8708C54.9849 24.3128 54.6238 24.6707 54.1904 24.6707Z" stroke="#9092A9" stroke-width="2" stroke-miterlimit="10"/>
<path d="M54.5693 50.9101C54.136 50.9101 53.7852 50.5523 53.7852 50.1102V46.9737C53.7852 46.5317 54.136 46.1738 54.5693 46.1738C55.0027 46.1738 55.3535 46.5317 55.3535 46.9737V50.1102C55.3638 50.5523 55.013 50.9101 54.5693 50.9101Z" stroke="#9092A9" stroke-width="2" stroke-miterlimit="10"/>
<path d="M25.7642 5.24139C25.3308 5.24139 24.98 4.88354 24.98 4.44148V2.46275C24.98 2.0207 25.3308 1.66284 25.7642 1.66284C26.1975 1.66284 26.5483 2.0207 26.5483 2.46275V4.43096C26.5483 4.87301 26.1975 5.24139 25.7642 5.24139Z" stroke="#9092A9" stroke-width="2" stroke-miterlimit="10"/>
<path d="M82.6479 5.18866C82.2146 5.18866 81.8638 4.8308 81.8638 4.38875V2.41002C81.8638 1.96796 82.2146 1.61011 82.6479 1.61011C83.0813 1.61011 83.4321 1.96796 83.4321 2.41002V4.37822C83.4424 4.82028 83.0813 5.18866 82.6479 5.18866Z" stroke="#9092A9" stroke-width="2" stroke-miterlimit="10"/>
<path d="M35.1938 7.73556C34.7605 7.73556 34.4097 7.3777 34.4097 6.93565V3.43077C34.4097 2.98871 34.7605 2.63086 35.1938 2.63086C35.6272 2.63086 35.978 2.98871 35.978 3.43077V6.92512C35.978 7.3777 35.6272 7.73556 35.1938 7.73556Z" stroke="#9092A9" stroke-width="2" stroke-miterlimit="10"/>
<path d="M73.4678 7.73556C73.0344 7.73556 72.6836 7.3777 72.6836 6.93565V3.43077C72.6836 2.98871 73.0344 2.63086 73.4678 2.63086C73.9011 2.63086 74.2519 2.98871 74.2519 3.43077V6.92512C74.2519 7.3777 73.9011 7.73556 73.4678 7.73556Z" stroke="#9092A9" stroke-width="2" stroke-miterlimit="10"/>
<path d="M44.9746 7.73545C44.5412 7.73545 44.1904 7.37759 44.1904 6.93554V2.80968C44.1904 2.36762 44.5412 2.00977 44.9746 2.00977C45.408 2.00977 45.7588 2.36762 45.7588 2.80968V6.92501C45.7691 7.37759 45.408 7.73545 44.9746 7.73545Z" stroke="#9092A9" stroke-width="2" stroke-miterlimit="10"/>
<path d="M54.3037 7.73545C53.8703 7.73545 53.5195 7.37759 53.5195 6.93554V2.80968C53.5195 2.36762 53.8703 2.00977 54.3037 2.00977C54.7371 2.00977 55.0879 2.36762 55.0879 2.80968V6.92501C55.0879 7.37759 54.7371 7.73545 54.3037 7.73545Z" stroke="#9092A9" stroke-width="2" stroke-miterlimit="10"/>
<path d="M63.5889 7.73545C63.1555 7.73545 62.8047 7.37759 62.8047 6.93554V2.80968C62.8047 2.36762 63.1555 2.00977 63.5889 2.00977C64.0222 2.00977 64.373 2.36762 64.373 2.80968V6.92501C64.373 7.37759 64.0222 7.73545 63.5889 7.73545Z" stroke="#9092A9" stroke-width="2" stroke-miterlimit="10"/>
</g>
<defs>
<clipPath id="clip0_1_915">
<rect width="109" height="95" fill="white"/>
</clipPath>
</defs>
</svg>
