<svg width="142" height="95" viewBox="0 0 142 95" fill="none" xmlns="http://www.w3.org/2000/svg">
<g clip-path="url(#clip0_1_1179)">
<path d="M54.9774 27.8267H49.7171C49.4255 27.8267 49.1841 27.6517 49.1841 27.4355V24.0588C49.1841 23.8941 49.1941 23.6676 49.2947 23.4C49.6065 22.5352 50.733 21.341 52.4026 21.3616C54.0722 21.3822 55.0981 22.6073 55.3897 23.4102C55.4903 23.6676 55.5104 23.8941 55.5104 24.0588V27.4355C55.5104 27.6517 55.269 27.8267 54.9774 27.8267Z" stroke="#9092A9" stroke-width="2" stroke-miterlimit="10"/>
<path d="M61.305 27.8267H56.0448C55.7531 27.8267 55.5117 27.6517 55.5117 27.4355V24.0588C55.5117 23.8941 55.5218 23.6676 55.6224 23.4C55.9341 22.5352 57.0606 21.341 58.7302 21.3616C60.3998 21.3822 61.4257 22.6073 61.7174 23.4102C61.8179 23.6676 61.838 23.8941 61.838 24.0588V27.4355C61.838 27.6517 61.5967 27.8267 61.305 27.8267Z" stroke="#9092A9" stroke-width="2" stroke-miterlimit="10"/>
<path d="M67.6287 27.8267H62.3685C62.0768 27.8267 61.8354 27.6517 61.8354 27.4355V24.0588C61.8354 23.8941 61.8455 23.6676 61.9461 23.4C62.2579 22.5352 63.3843 21.341 65.0539 21.3616C66.7235 21.3822 67.7494 22.6073 68.0411 23.4102C68.1417 23.6676 68.1618 23.8941 68.1618 24.0588V27.4355C68.1517 27.6517 67.9204 27.8267 67.6287 27.8267Z" stroke="#9092A9" stroke-width="2" stroke-miterlimit="10"/>
<path d="M73.9456 27.8267H68.6854C68.3937 27.8267 68.1523 27.6517 68.1523 27.4355V24.0588C68.1523 23.8941 68.1624 23.6676 68.263 23.4C68.5748 22.5352 69.7012 21.341 71.3708 21.3616C73.0404 21.3822 74.0663 22.6073 74.358 23.4102C74.4586 23.6676 74.4787 23.8941 74.4787 24.0588V27.4355C74.4787 27.6517 74.2373 27.8267 73.9456 27.8267Z" stroke="#9092A9" stroke-width="2" stroke-miterlimit="10"/>
<path d="M80.2738 27.8267H75.0135C74.7219 27.8267 74.4805 27.6517 74.4805 27.4355V24.0588C74.4805 23.8941 74.4905 23.6676 74.5911 23.4C74.9029 22.5352 76.0294 21.341 77.699 21.3616C79.3686 21.3822 80.3945 22.6073 80.6861 23.4102C80.7867 23.6676 80.8068 23.8941 80.8068 24.0588V27.4355C80.8068 27.6517 80.5654 27.8267 80.2738 27.8267Z" stroke="#9092A9" stroke-width="2" stroke-miterlimit="10"/>
<path d="M86.6019 27.8267H81.3417C81.05 27.8267 80.8086 27.6517 80.8086 27.4355V24.0588C80.8086 23.8941 80.8187 23.6676 80.9192 23.4C81.231 22.5352 82.3575 21.341 84.0271 21.3616C85.6967 21.3822 86.7226 22.6073 87.0142 23.4102C87.1148 23.6676 87.1349 23.8941 87.1349 24.0588V27.4355C87.1249 27.6517 86.8936 27.8267 86.6019 27.8267Z" stroke="#9092A9" stroke-width="2" stroke-miterlimit="10"/>
<path d="M92.9153 27.8267H87.6551C87.3635 27.8267 87.1221 27.6517 87.1221 27.4355V24.0588C87.1221 23.8941 87.1321 23.6676 87.2327 23.4C87.5445 22.5352 88.671 21.341 90.3405 21.3616C92.0101 21.3822 93.036 22.6073 93.3277 23.4102C93.4283 23.6676 93.4484 23.8941 93.4484 24.0588V27.4355C93.4484 27.6517 93.2171 27.8267 92.9153 27.8267Z" stroke="#9092A9" stroke-width="2" stroke-miterlimit="10"/>
<path d="M80.3713 88.6891C74.0047 88.6891 67.6381 88.6891 61.2716 88.6891C60.829 88.6068 60.2356 88.4421 59.773 88.092C58.8778 87.4229 58.9683 86.4861 58.9885 86.1978C59.0991 84.7154 58.9885 77.4884 58.8477 67.5128C59.3505 66.5245 60.1049 65.2274 61.1811 63.8376C61.9454 62.8493 63.3435 61.0889 65.697 59.4726C67.9298 57.9387 70.1023 57.1769 71.7115 56.7754C73.6024 57.599 75.1111 58.5461 76.2275 59.3388C77.183 60.0285 78.8928 61.3669 80.663 63.4464C81.6989 64.6715 82.4734 65.8142 83.0165 66.7098C83.1372 73.4838 83.2679 80.2577 83.3886 87.042C83.3383 87.2479 83.1875 87.6185 82.755 87.9685C81.89 88.6479 80.5825 88.6788 80.3713 88.6891Z" stroke="#9092A9" stroke-width="2" stroke-miterlimit="10"/>
<path d="M44.3464 7.5047C43.924 7.5047 43.582 7.15468 43.582 6.7223V1.8117C43.582 1.37932 43.924 1.0293 44.3464 1.0293C44.7688 1.0293 45.1108 1.37932 45.1108 1.8117V6.712C45.1108 7.14438 44.7688 7.5047 44.3464 7.5047Z" stroke="#9092A9" stroke-width="2" stroke-miterlimit="10"/>
<path d="M54.4118 46.1821C53.9894 46.1821 53.6475 45.832 53.6475 45.3996V41.4465C53.6475 41.0141 53.9894 40.6641 54.4118 40.6641C54.8343 40.6641 55.1762 41.0141 55.1762 41.4465V45.3996C55.1762 45.832 54.8343 46.1821 54.4118 46.1821Z" stroke="#9092A9" stroke-width="2" stroke-miterlimit="10"/>
<path d="M62.3386 46.1821C61.9162 46.1821 61.5742 45.832 61.5742 45.3996V41.4465C61.5742 41.0141 61.9162 40.6641 62.3386 40.6641C62.761 40.6641 63.103 41.0141 63.103 41.4465V45.3996C63.1131 45.832 62.7711 46.1821 62.3386 46.1821Z" stroke="#9092A9" stroke-width="2" stroke-miterlimit="10"/>
<path d="M70.1316 46.5844C69.7092 46.5844 69.3672 46.2344 69.3672 45.802V41.8488C69.3672 41.4164 69.7092 41.0664 70.1316 41.0664C70.554 41.0664 70.896 41.4164 70.896 41.8488V45.802C70.896 46.2344 70.554 46.5844 70.1316 46.5844Z" stroke="#9092A9" stroke-width="2" stroke-miterlimit="10"/>
<path d="M77.8855 46.5844C77.4631 46.5844 77.1211 46.2344 77.1211 45.802V41.8488C77.1211 41.4164 77.4631 41.0664 77.8855 41.0664C78.3079 41.0664 78.6499 41.4164 78.6499 41.8488V45.802C78.6499 46.2344 78.3079 46.5844 77.8855 46.5844Z" stroke="#9092A9" stroke-width="2" stroke-miterlimit="10"/>
<path d="M85.866 46.5844C85.4435 46.5844 85.1016 46.2344 85.1016 45.802V41.8488C85.1016 41.4164 85.4435 41.0664 85.866 41.0664C86.2884 41.0664 86.6303 41.4164 86.6303 41.8488V45.802C86.6303 46.2344 86.2884 46.5844 85.866 46.5844Z" stroke="#9092A9" stroke-width="2" stroke-miterlimit="10"/>
<path d="M44.7175 23.8006C44.2951 23.8006 43.9531 23.4505 43.9531 23.0182V20.3312C43.9531 19.8989 44.2951 19.5488 44.7175 19.5488C45.1399 19.5488 45.4819 19.8989 45.4819 20.3312V23.0182C45.4819 23.4505 45.1399 23.8006 44.7175 23.8006Z" stroke="#9092A9" stroke-width="2" stroke-miterlimit="10"/>
<path d="M97.4597 23.8006C97.0373 23.8006 96.6953 23.4505 96.6953 23.0182V20.3312C96.6953 19.8989 97.0373 19.5488 97.4597 19.5488C97.8821 19.5488 98.2241 19.8989 98.2241 20.3312V23.0182C98.2241 23.4505 97.8821 23.8006 97.4597 23.8006Z" stroke="#9092A9" stroke-width="2" stroke-miterlimit="10"/>
<path d="M97.5144 7.5047C97.092 7.5047 96.75 7.15468 96.75 6.7223V1.8117C96.75 1.37932 97.092 1.0293 97.5144 1.0293C97.9368 1.0293 98.2788 1.37932 98.2788 1.8117V6.712C98.2888 7.14438 97.9469 7.5047 97.5144 7.5047Z" stroke="#9092A9" stroke-width="2" stroke-miterlimit="10"/>
<path d="M48.641 14.948C45.7544 14.9583 42.8577 14.9583 39.9712 14.9686C39.9309 14.4435 39.9209 13.62 40.1522 12.6934C40.2226 12.4052 40.4841 11.4272 41.7413 9.73883C42.9784 8.09167 43.592 7.26809 44.3262 7.21661C45.3923 7.14455 46.2573 8.28727 47.2128 9.55352C47.6754 10.1712 48.128 10.7786 48.4297 11.7669C48.8421 13.1155 48.7315 14.3303 48.641 14.948Z" stroke="#9092A9" stroke-width="2" stroke-miterlimit="10"/>
<path d="M101.766 14.9475C98.8799 14.9578 95.9832 14.9578 93.0967 14.9681C93.0564 14.443 93.0464 13.6195 93.2777 12.6929C93.3481 12.4047 93.6096 11.4267 94.8668 9.73834C96.1039 8.09118 96.7174 7.2676 97.4517 7.21613C98.5178 7.14406 99.3827 8.28678 100.338 9.55303C100.801 10.1707 101.253 10.7781 101.555 11.7664C101.958 13.115 101.857 14.3298 101.766 14.9475Z" stroke="#9092A9" stroke-width="2" stroke-miterlimit="10"/>
<path d="M39.2885 88.6886H7.55619C7.18406 88.6886 6.88232 88.3797 6.88232 87.9988V56.8675C6.88232 56.4866 7.18406 56.1777 7.55619 56.1777H39.2885C39.6606 56.1777 39.9623 56.4866 39.9623 56.8675V87.9988C39.9523 88.3797 39.6505 88.6886 39.2885 88.6886Z" stroke="#9092A9" stroke-width="2" stroke-miterlimit="10"/>
<path d="M29.8733 88.6895H16.4864C16.1142 88.6895 15.8125 88.3806 15.8125 87.9997V74.9769C15.8125 74.596 16.1142 74.2871 16.4864 74.2871H29.8733C30.2454 74.2871 30.5471 74.596 30.5471 74.9769V87.9997C30.5471 88.3806 30.2454 88.6895 29.8733 88.6895Z" stroke="#9092A9" stroke-width="2" stroke-miterlimit="10"/>
<path d="M39.1678 49.3225H7.55619C7.18406 49.3225 6.88232 49.0137 6.88232 48.6328V34.3128C6.88232 33.9319 7.18406 33.623 7.55619 33.623H39.1678C39.5399 33.623 39.8416 33.9319 39.8416 34.3128V48.6328C39.8416 49.0137 39.5399 49.3225 39.1678 49.3225Z" stroke="#9092A9" stroke-width="2" stroke-miterlimit="10"/>
<path d="M48.057 88.6895H40.5137C40.1416 88.6895 39.8398 88.3807 39.8398 87.9997V15.6585C39.8398 15.2776 40.1416 14.9688 40.5137 14.9688H48.057C48.4292 14.9688 48.7309 15.2776 48.7309 15.6585V87.9997C48.7309 88.3807 48.4292 88.6895 48.057 88.6895Z" stroke="#9092A9" stroke-width="2" stroke-miterlimit="10"/>
<path d="M3.87109 40.664C3.87109 40.6023 3.92138 40.5508 3.98173 40.5508H39.6868C39.7472 40.5508 39.7975 40.6023 39.7975 40.664C39.7975 40.7258 39.7472 40.7773 39.6868 40.7773H3.98173C3.92138 40.7773 3.87109 40.7258 3.87109 40.664Z" stroke="#9092A9" stroke-width="2" stroke-miterlimit="10"/>
<path d="M13.4992 65.3615C14.5879 65.3615 15.4705 64.4581 15.4705 63.3437C15.4705 62.2293 14.5879 61.3259 13.4992 61.3259C12.4104 61.3259 11.5278 62.2293 11.5278 63.3437C11.5278 64.4581 12.4104 65.3615 13.4992 65.3615Z" fill="#9092A9"/>
<path d="M32.8502 65.3617C33.939 65.3617 34.8216 64.4583 34.8216 63.3439C34.8216 62.2296 33.939 61.3262 32.8502 61.3262C31.7615 61.3262 30.8789 62.2296 30.8789 63.3439C30.8789 64.4583 31.7615 65.3617 32.8502 65.3617Z" fill="#9092A9"/>
<path d="M57.1515 59.391C58.2402 59.391 59.1228 58.4876 59.1228 57.3732C59.1228 56.2589 58.2402 55.3555 57.1515 55.3555C56.0628 55.3555 55.1802 56.2589 55.1802 57.3732C55.1802 58.4876 56.0628 59.391 57.1515 59.391Z" fill="#9092A9"/>
<path d="M85.0885 59.391C86.1773 59.391 87.0598 58.4876 87.0598 57.3732C87.0598 56.2589 86.1773 55.3555 85.0885 55.3555C83.9998 55.3555 83.1172 56.2589 83.1172 57.3732C83.1172 58.4876 83.9998 59.391 85.0885 59.391Z" fill="#9092A9"/>
<path d="M108.093 65.3617C109.182 65.3617 110.065 64.4583 110.065 63.3439C110.065 62.2296 109.182 61.3262 108.093 61.3262C107.005 61.3262 106.122 62.2296 106.122 63.3439C106.122 64.4583 107.005 65.3617 108.093 65.3617Z" fill="#9092A9"/>
<path d="M127.455 65.3617C128.544 65.3617 129.427 64.4583 129.427 63.3439C129.427 62.2296 128.544 61.3262 127.455 61.3262C126.366 61.3262 125.484 62.2296 125.484 63.3439C125.484 64.4583 126.366 65.3617 127.455 65.3617Z" fill="#9092A9"/>
<path d="M15.8125 74.2861C16.3456 72.4124 17.2809 69.9108 18.9002 67.7592C20.0569 66.2356 21.5857 64.2178 23.5872 64.434C25.2668 64.6193 26.4234 66.2664 27.6404 68.0166C29.1994 70.2505 30.0744 72.6389 30.5371 74.1522" stroke="#9092A9" stroke-width="2" stroke-miterlimit="10"/>
<path d="M39.168 33.623H101.848" stroke="#9092A9" stroke-width="2" stroke-miterlimit="10"/>
<path d="M39.168 49.3223H101.848" stroke="#9092A9" stroke-width="2" stroke-miterlimit="10"/>
<path d="M48.7314 40.6541H93.0761" stroke="#9092A9" stroke-width="2" stroke-miterlimit="10"/>
<path d="M48.7314 27.8267H93.0761" stroke="#9092A9" stroke-width="2" stroke-miterlimit="10"/>
<path d="M39.168 23.9355H48.7329" stroke="#9092A9" stroke-width="2" stroke-miterlimit="10"/>
<path d="M93.4453 23.8008H103" stroke="#9092A9" stroke-width="2" stroke-miterlimit="10"/>
<path d="M7.55399 49.3223C5.71342 49.2811 3.86279 49.2399 2.02222 49.2091C1.79089 49.1988 1.65008 49.2399 1.58974 49.3326C1.41875 49.6106 1.95182 50.3518 3.18892 51.5563C4.6473 53.1005 6.09562 54.6447 7.55399 56.1889" stroke="#9092A9" stroke-width="2" stroke-miterlimit="10"/>
<path d="M102.522 88.6886H134.254C134.626 88.6886 134.928 88.3797 134.928 87.9988V56.8675C134.928 56.4866 134.626 56.1777 134.254 56.1777H102.522C102.149 56.1777 101.848 56.4866 101.848 56.8675V87.9988C101.848 88.3797 102.149 88.6886 102.522 88.6886Z" stroke="#9092A9" stroke-width="2" stroke-miterlimit="10"/>
<path d="M111.928 88.6895H125.315C125.687 88.6895 125.989 88.3806 125.989 87.9997V74.9769C125.989 74.596 125.687 74.2871 125.315 74.2871H111.928C111.556 74.2871 111.254 74.596 111.254 74.9769V87.9997C111.264 88.3806 111.566 88.6895 111.928 88.6895Z" stroke="#9092A9" stroke-width="2" stroke-miterlimit="10"/>
<path d="M102.631 49.3221H134.242C134.615 49.3221 134.916 49.0132 134.916 48.6323V34.3123C134.916 33.9314 134.615 33.6226 134.242 33.6226H102.631C102.259 33.6226 101.957 33.9314 101.957 34.3123V48.6323C101.957 49.0132 102.259 49.3221 102.631 49.3221Z" stroke="#9092A9" stroke-width="2" stroke-miterlimit="10"/>
<path d="M93.7481 88.6895H101.291C101.664 88.6895 101.965 88.3807 101.965 87.9997V15.6585C101.965 15.2776 101.664 14.9688 101.291 14.9688H93.7481C93.376 14.9688 93.0742 15.2776 93.0742 15.6585V87.9997C93.0742 88.3807 93.376 88.6895 93.7481 88.6895Z" stroke="#9092A9" stroke-width="2" stroke-miterlimit="10"/>
<path d="M137.935 40.664C137.935 40.6023 137.885 40.5508 137.824 40.5508H102.119C102.059 40.5508 102.009 40.6023 102.009 40.664C102.009 40.7258 102.059 40.7773 102.119 40.7773H137.824C137.885 40.7773 137.935 40.7258 137.935 40.664Z" stroke="#9092A9" stroke-width="2" stroke-miterlimit="10"/>
<path d="M125.998 74.2861C125.465 72.4124 124.53 69.9108 122.91 67.7592C121.754 66.2356 120.225 64.2178 118.223 64.434C116.544 64.6193 115.387 66.2664 114.17 68.0166C112.611 70.2505 111.736 72.6389 111.273 74.1522" stroke="#9092A9" stroke-width="2" stroke-miterlimit="10"/>
<path d="M134.254 49.3218C136.095 49.2806 137.946 49.2395 139.786 49.2086C140.018 49.1983 140.158 49.2395 140.219 49.3321C140.39 49.6101 139.857 50.3513 138.619 51.5558C137.161 53.1 135.713 54.6442 134.254 56.1884" stroke="#9092A9" stroke-width="2" stroke-miterlimit="10"/>
<path d="M39.2861 56.1777H48.7304" stroke="#9092A9" stroke-width="2" stroke-miterlimit="10"/>
<path d="M39.2861 78.0137H49.3741" stroke="#9092A9" stroke-width="2" stroke-miterlimit="10"/>
<path d="M93.9844 78.0137H102" stroke="#9092A9" stroke-width="2" stroke-miterlimit="10"/>
<path d="M93.0742 56.1777H104.651" stroke="#9092A9" stroke-width="2" stroke-miterlimit="10"/>
<path d="M48.7314 83.3977H58.5579" stroke="#9092A9" stroke-width="2" stroke-miterlimit="10"/>
<path d="M83.3916 83.3984H93.0772" stroke="#9092A9" stroke-width="2" stroke-miterlimit="10"/>
<path d="M47.2344 88.6895H103.276" stroke="#9092A9" stroke-width="2" stroke-miterlimit="10"/>
<path d="M74.5576 94.9082V95.0009" stroke="#9092A9" stroke-width="2" stroke-miterlimit="10"/>
</g>
<rect x="1.05469" y="0.5" width="139.688" height="94" stroke="#FAFAFA"/>
<defs>
<clipPath id="clip0_1_1179">
<rect x="0.554688" width="140.688" height="95" fill="white"/>
</clipPath>
</defs>
</svg>
