<svg width="164" height="95" viewBox="0 0 164 95" fill="none" xmlns="http://www.w3.org/2000/svg">
<path d="M84.7474 7.33426H79.7942C79.5141 7.33426 79.293 7.18337 79.293 6.98721V3.93924C79.293 3.78835 79.3077 3.57711 79.3962 3.35077C79.691 2.56615 80.7524 1.49483 82.315 1.50992C83.8776 1.52501 84.8506 2.64159 85.1307 3.35077C85.2191 3.5922 85.2486 3.78835 85.2486 3.93924V6.98721C85.2486 7.18337 85.0275 7.33426 84.7474 7.33426Z" stroke="#9092A9" stroke-width="2" stroke-miterlimit="10"/>
<path d="M21.2831 26.4656C17.0523 26.4807 12.8067 26.4807 8.57585 26.4958C8.51689 25.862 8.50214 24.8812 8.8412 23.7647C8.94439 23.4176 9.32767 22.2407 11.1704 20.2188C12.9836 18.2421 13.8828 17.2462 14.959 17.1859C16.5216 17.0953 17.7894 18.4684 19.1898 19.9924C19.8679 20.7318 20.5313 21.4561 20.9735 22.633C21.5632 24.2626 21.4158 25.7262 21.2831 26.4656Z" stroke="#9092A9" stroke-width="2" stroke-miterlimit="10"/>
<path d="M153.767 27.3406C149.536 27.3557 145.291 27.3557 141.06 27.3708C141.001 26.737 140.986 25.7562 141.325 24.6397C141.428 24.2926 141.812 23.1157 143.654 21.0938C145.467 19.1171 146.367 18.1212 147.443 18.0609C149.005 17.9703 150.273 19.3434 151.674 20.8674C152.352 21.6068 153.015 22.3311 153.457 23.508C154.062 25.1527 153.9 26.6163 153.767 27.3406Z" stroke="#9092A9" stroke-width="2" stroke-miterlimit="10"/>
<path d="M62.2341 42.5202C58.4161 42.5202 54.598 42.5353 50.7652 42.5353C50.7062 41.9619 50.7062 41.0717 51.0011 40.0758C51.0895 39.7589 51.4433 38.7027 53.0944 36.877C54.7307 35.0965 55.5415 34.2062 56.5144 34.1459C57.9296 34.0704 59.0647 35.3077 60.3325 36.6657C60.9516 37.3296 61.5413 37.9935 61.9393 39.0498C62.4995 40.5285 62.3521 41.8563 62.2341 42.5202Z" stroke="#9092A9" stroke-width="2" stroke-miterlimit="10"/>
<path d="M42.9098 74.4796C39.9762 74.4796 37.0426 74.4947 34.109 74.4947C34.0648 74.1023 34.0648 73.4988 34.2859 72.8198C34.3597 72.6085 34.625 71.8843 35.8928 70.6319C37.1458 69.4097 37.765 68.8061 38.5168 68.7609C39.6077 68.7005 40.4774 69.5455 41.4504 70.4961C41.9221 70.9488 42.3791 71.4014 42.6887 72.1257C43.1014 73.1216 42.9982 74.0269 42.9098 74.4796Z" stroke="#9092A9" stroke-width="2" stroke-miterlimit="10"/>
<path d="M130.195 74.4796C127.261 74.4796 124.328 74.4947 121.394 74.4947C121.35 74.1023 121.35 73.4988 121.571 72.8198C121.645 72.6085 121.91 71.8843 123.178 70.6319C124.431 69.4097 125.05 68.8061 125.802 68.7609C126.893 68.7005 127.763 69.5455 128.736 70.4961C129.207 70.9488 129.664 71.4014 129.974 72.1257C130.401 73.1216 130.298 74.0269 130.195 74.4796Z" stroke="#9092A9" stroke-width="2" stroke-miterlimit="10"/>
<path d="M130.195 88.2706C127.261 88.2706 124.328 88.2857 121.394 88.2857C121.35 87.8934 121.35 87.2898 121.571 86.6108C121.645 86.3996 121.91 85.6753 123.178 84.4229C124.431 83.2007 125.05 82.5971 125.802 82.5519C126.893 82.4915 127.763 83.3365 128.736 84.2871C129.207 84.7398 129.664 85.1924 129.974 85.9167C130.401 86.9126 130.298 87.8179 130.195 88.2706Z" stroke="#9092A9" stroke-width="2" stroke-miterlimit="10"/>
<path d="M42.9098 88.2706C39.9762 88.2706 37.0426 88.2857 34.109 88.2857C34.0648 87.8934 34.0648 87.2898 34.2859 86.6108C34.3597 86.3996 34.625 85.6753 35.8928 84.4229C37.1458 83.2007 37.765 82.5971 38.5168 82.5519C39.6077 82.4915 40.4774 83.3365 41.4504 84.2871C41.9221 84.7398 42.3791 85.1924 42.6887 85.9167C43.1014 86.9126 42.9982 87.8179 42.9098 88.2706Z" stroke="#9092A9" stroke-width="2" stroke-miterlimit="10"/>
<path d="M111.191 42.5202C107.373 42.5202 103.555 42.5353 99.7222 42.5353C99.6633 41.9619 99.6633 41.0717 99.9581 40.0758C100.047 39.7589 100.4 38.7027 102.051 36.877C103.688 35.0965 104.499 34.2062 105.471 34.1459C106.887 34.0704 108.022 35.3077 109.29 36.6657C109.909 37.3296 110.498 37.9935 110.896 39.0498C111.442 40.5285 111.309 41.8563 111.191 42.5202Z" stroke="#9092A9" stroke-width="2" stroke-miterlimit="10"/>
<path d="M95.6561 25.0637C86.0445 25.0788 76.4478 25.0939 66.8362 25.109C66.8068 23.7057 66.9247 21.9101 67.4259 19.9033C68.3546 16.2065 70.1384 13.5961 71.3324 12.1325C71.9074 11.4686 75.4306 7.4851 81.283 7.33421C81.7842 7.31912 87.047 7.27386 91.1894 11.3781C93.607 13.7621 94.4915 16.4479 94.919 17.7456C95.9362 20.8539 95.833 23.5548 95.6561 25.0637Z" stroke="#9092A9" stroke-width="2" stroke-miterlimit="10"/>
<path d="M14.9719 17.3678C14.5738 17.3678 14.2495 17.0359 14.2495 16.6285V12.298C14.2495 11.8906 14.5738 11.5586 14.9719 11.5586C15.3699 11.5586 15.6942 11.8906 15.6942 12.298V16.6285C15.6942 17.0359 15.3699 17.3678 14.9719 17.3678Z" stroke="#9092A9" stroke-width="2" stroke-miterlimit="10"/>
<path d="M15.3722 36.9522C15.1659 36.9522 15.0039 36.7862 15.0039 36.575V32.4104C15.0039 32.1992 15.1659 32.0332 15.3722 32.0332C15.5784 32.0332 15.7404 32.1992 15.7404 32.4104V36.575C15.7257 36.7862 15.5636 36.9522 15.3722 36.9522Z" stroke="#9092A9" stroke-width="2" stroke-miterlimit="10"/>
<path d="M147.707 36.8323C147.501 36.8323 147.339 36.6663 147.339 36.4551V32.2906C147.339 32.0793 147.501 31.9133 147.707 31.9133C147.913 31.9133 148.075 32.0793 148.075 32.2906V36.4551C148.075 36.6663 147.913 36.8323 147.707 36.8323Z" stroke="#9092A9" stroke-width="2" stroke-miterlimit="10"/>
<path d="M57.5011 54.2588C57.2948 54.2588 57.1328 54.0929 57.1328 53.8816V49.7171C57.1328 49.5058 57.2948 49.3398 57.5011 49.3398C57.7073 49.3398 57.8693 49.5058 57.8693 49.7171V53.8816C57.8693 54.0929 57.7073 54.2588 57.5011 54.2588Z" stroke="#9092A9" stroke-width="2" stroke-miterlimit="10"/>
<path d="M105.989 54.2588C105.783 54.2588 105.621 54.0929 105.621 53.8816V49.7171C105.621 49.5058 105.783 49.3398 105.989 49.3398C106.196 49.3398 106.358 49.5058 106.358 49.7171V53.8816C106.358 54.0929 106.196 54.2588 105.989 54.2588Z" stroke="#9092A9" stroke-width="2" stroke-miterlimit="10"/>
<path d="M56.544 69.168C56.7503 69.168 56.9123 69.3339 56.9123 69.5452V73.7097C56.9123 73.921 56.7503 74.087 56.544 74.087C56.3378 74.087 56.1758 73.921 56.1758 73.7097V69.5452C56.1905 69.3339 56.3525 69.168 56.544 69.168Z" stroke="#9092A9" stroke-width="2" stroke-miterlimit="10"/>
<path d="M15.6964 69.6055C15.9026 69.6055 16.0646 69.7714 16.0646 69.9827V74.1472C16.0646 74.3585 15.9026 74.5245 15.6964 74.5245C15.4902 74.5245 15.3281 74.3585 15.3281 74.1472V69.9827C15.3281 69.7714 15.4902 69.6055 15.6964 69.6055Z" stroke="#9092A9" stroke-width="2" stroke-miterlimit="10"/>
<path d="M105.989 69.168C106.196 69.168 106.358 69.3339 106.358 69.5452V73.7097C106.358 73.921 106.196 74.087 105.989 74.087C105.783 74.087 105.621 73.921 105.621 73.7097V69.5452C105.636 69.3339 105.798 69.168 105.989 69.168Z" stroke="#9092A9" stroke-width="2" stroke-miterlimit="10"/>
<path d="M148.544 69.168C148.75 69.168 148.912 69.3339 148.912 69.5452V73.7097C148.912 73.921 148.75 74.087 148.544 74.087C148.338 74.087 148.176 73.921 148.176 73.7097V69.5452C148.191 69.3339 148.353 69.168 148.544 69.168Z" stroke="#9092A9" stroke-width="2" stroke-miterlimit="10"/>
<path d="M148.544 82.582C148.75 82.582 148.912 82.748 148.912 82.9593V87.1238C148.912 87.3351 148.75 87.501 148.544 87.501C148.338 87.501 148.176 87.3351 148.176 87.1238V82.9593C148.191 82.748 148.353 82.582 148.544 82.582Z" stroke="#9092A9" stroke-width="2" stroke-miterlimit="10"/>
<path d="M56.8253 82.582C57.0315 82.582 57.1935 82.748 57.1935 82.9593V87.1238C57.1935 87.3351 57.0315 87.501 56.8253 87.501C56.6191 87.501 56.457 87.3351 56.457 87.1238V82.9593C56.457 82.748 56.6191 82.582 56.8253 82.582Z" stroke="#9092A9" stroke-width="2" stroke-miterlimit="10"/>
<path d="M15.6964 82.582C15.9026 82.582 16.0646 82.748 16.0646 82.9593V87.1238C16.0646 87.3351 15.9026 87.501 15.6964 87.501C15.4902 87.501 15.3281 87.3351 15.3281 87.1238V82.9593C15.3281 82.748 15.4902 82.582 15.6964 82.582Z" stroke="#9092A9" stroke-width="2" stroke-miterlimit="10"/>
<path d="M106.314 82.582C106.52 82.582 106.682 82.748 106.682 82.9593V87.1238C106.682 87.3351 106.52 87.501 106.314 87.501C106.107 87.501 105.945 87.3351 105.945 87.1238V82.9593C105.945 82.748 106.107 82.582 106.314 82.582Z" stroke="#9092A9" stroke-width="2" stroke-miterlimit="10"/>
<path d="M147.457 17.8497C147.059 17.8497 146.734 17.5178 146.734 17.1104V12.7647C146.734 12.3573 147.059 12.0254 147.457 12.0254C147.855 12.0254 148.179 12.3573 148.179 12.7647V17.0953C148.194 17.5178 147.869 17.8497 147.457 17.8497Z" stroke="#9092A9" stroke-width="2" stroke-miterlimit="10"/>
<path d="M56.4555 34.1452C56.0722 34.1452 55.7773 33.8283 55.7773 33.4511V29.03C55.7773 28.6377 56.0869 28.3359 56.4555 28.3359C56.8387 28.3359 57.1336 28.6528 57.1336 29.03V33.4511C57.1483 33.8434 56.8387 34.1452 56.4555 34.1452Z" stroke="#9092A9" stroke-width="2" stroke-miterlimit="10"/>
<path d="M63.207 25.1083C63.207 25.0026 63.2955 24.9121 63.3987 24.9121H101.329C101.432 24.9121 101.52 25.0026 101.52 25.1083C101.52 25.2139 101.432 25.3044 101.329 25.3044H63.3987C63.2955 25.3195 63.207 25.229 63.207 25.1083Z" stroke="#9092A9" stroke-width="2" stroke-miterlimit="10"/>
<path d="M2.11719 43.5918C2.11719 43.5012 2.1909 43.4258 2.27935 43.4258H29.168C29.2565 43.4258 29.3302 43.5012 29.3302 43.5918C29.3302 43.6823 29.2565 43.7577 29.168 43.7577H2.27935C2.1909 43.7577 2.11719 43.6823 2.11719 43.5918Z" stroke="#9092A9" stroke-width="2" stroke-miterlimit="10"/>
<path d="M134.559 43.4101C134.559 43.3196 134.632 43.2441 134.721 43.2441H161.609C161.698 43.2441 161.772 43.3196 161.772 43.4101C161.772 43.5007 161.698 43.5761 161.609 43.5761H134.721C134.632 43.5912 134.559 43.5157 134.559 43.4101Z" stroke="#9092A9" stroke-width="2" stroke-miterlimit="10"/>
<path d="M105.631 34.1452C105.248 34.1452 104.953 33.8283 104.953 33.4511V29.03C104.953 28.6377 105.263 28.3359 105.631 28.3359C106.015 28.3359 106.309 28.6528 106.309 29.03V33.4511C106.309 33.8434 106 34.1452 105.631 34.1452Z" stroke="#9092A9" stroke-width="2" stroke-miterlimit="10"/>
<path d="M24.3642 88.2861H5.42128C4.87584 88.2861 4.43359 87.8334 4.43359 87.2751V38.0852C4.43359 37.5269 4.87584 37.0742 5.42128 37.0742H24.3642C24.9097 37.0742 25.3519 37.5269 25.3519 38.0852V87.2902C25.3519 87.8485 24.9097 88.2861 24.3642 88.2861Z" stroke="#9092A9" stroke-width="2" stroke-miterlimit="10"/>
<path d="M158.017 93H4.66117C4.11484 93 3.67188 92.6231 3.67188 92.1583V88.8417C3.67188 88.3769 4.11484 88 4.66117 88H158.017C158.564 88 159.007 88.3769 159.007 88.8417V92.1583C158.992 92.6231 158.549 93 158.017 93Z" stroke="#9092A9" stroke-width="2" stroke-miterlimit="10"/>
<path d="M62.3521 42.5205H50.7505V88.2853H62.3521V42.5205Z" stroke="#9092A9" stroke-width="2" stroke-miterlimit="10"/>
<path d="M111.297 42.5195H99.6953V88.2843H111.297V42.5195Z" stroke="#9092A9" stroke-width="2" stroke-miterlimit="10"/>
<path d="M156.935 88.2856H137.992C137.447 88.2856 137.004 87.8329 137.004 87.2747V38.0847C137.004 37.5264 137.447 37.0737 137.992 37.0737H156.935C157.48 37.0737 157.923 37.5264 157.923 38.0847V87.2897C157.923 87.848 157.48 88.2856 156.935 88.2856Z" stroke="#9092A9" stroke-width="2" stroke-miterlimit="10"/>
<path d="M148.546 54.9696C150.141 54.9696 151.435 53.6455 151.435 52.0121C151.435 50.3788 150.141 49.0547 148.546 49.0547C146.95 49.0547 145.656 50.3788 145.656 52.0121C145.656 53.6455 146.95 54.9696 148.546 54.9696Z" fill="#9092A9"/>
<path d="M16.0642 54.7574C17.6599 54.7574 18.9535 53.4333 18.9535 51.8C18.9535 50.1666 17.6599 48.8425 16.0642 48.8425C14.4684 48.8425 13.1748 50.1666 13.1748 51.8C13.1748 53.4333 14.4684 54.7574 16.0642 54.7574Z" fill="#9092A9"/>
<path d="M4.43359 60.4473H62.3533" stroke="#9092A9" stroke-width="2" stroke-miterlimit="10"/>
<path d="M4.43359 74.4043H62.3533" stroke="#9092A9" stroke-width="2" stroke-miterlimit="10"/>
<path d="M5.42188 88.2852H156.936" stroke="#9092A9" stroke-width="2" stroke-miterlimit="10"/>
<path d="M25.8594 53L51.0761 53" stroke="#9092A9" stroke-width="2" stroke-miterlimit="10"/>
<path d="M62.3545 52.918H99.695" stroke="#9092A9" stroke-width="2" stroke-miterlimit="10"/>
<path d="M111.293 52.918H137.002" stroke="#9092A9" stroke-width="2" stroke-miterlimit="10"/>
<path d="M99.6953 60.4473H157.925" stroke="#9092A9" stroke-width="2" stroke-miterlimit="10"/>
<path d="M99.6953 74.4043H157.925" stroke="#9092A9" stroke-width="2" stroke-miterlimit="10"/>
<path d="M61.9565 39.0664H78.1723" stroke="#9092A9" stroke-width="2" stroke-miterlimit="10"/>
<path d="M85.2031 39.7734H99.9595" stroke="#9092A9" stroke-width="2" stroke-miterlimit="10"/>
<path d="M62.3545 46.5039H99.695" stroke="#9092A9" stroke-width="2" stroke-miterlimit="10"/>
<path d="M66.8516 34.1465H96.5117" stroke="#9092A9" stroke-width="2" stroke-miterlimit="10"/>
<path d="M73.4536 25.1084V34.1467" stroke="#9092A9" stroke-width="2" stroke-miterlimit="10"/>
<path d="M81.3086 26.4824V34.1476" stroke="#9092A9" stroke-width="2" stroke-miterlimit="10"/>
<path d="M88.9028 25.1084V34.1467" stroke="#9092A9" stroke-width="2" stroke-miterlimit="10"/>
<path d="M90.4141 53L90.4141 88" stroke="#9092A9" stroke-width="2" stroke-miterlimit="10"/>
<path d="M71.25 53L71.25 88" stroke="#9092A9" stroke-width="2" stroke-miterlimit="10"/>
<path d="M71.25 70C71.945 68.2997 73.1576 66.0159 75.2722 64.0489C76.7806 62.6653 78.7621 60.8149 81.3647 61.0149C83.5533 61.1816 85.0468 62.6819 86.6439 64.2822C88.6698 66.316 89.8084 68.4997 90.4147 69.8833" stroke="#9092A9" stroke-width="2" stroke-miterlimit="10"/>
<path d="M8.5752 26.4814V36.5005" stroke="#9092A9" stroke-width="2" stroke-miterlimit="10"/>
<path d="M21.2812 26.4648V37.0724" stroke="#9092A9" stroke-width="2" stroke-miterlimit="10"/>
<path d="M141.058 27.3716V37.0738" stroke="#9092A9" stroke-width="2" stroke-miterlimit="10"/>
<path d="M153.766 27.3408V38.3407" stroke="#9092A9" stroke-width="2" stroke-miterlimit="10"/>
<path d="M95.6523 25.0625V34.146" stroke="#9092A9" stroke-width="2" stroke-miterlimit="10"/>
<path d="M66.8516 25.1074V35.5942" stroke="#9092A9" stroke-width="2" stroke-miterlimit="10"/>
<path d="M78.1133 46.5041C78.128 44.0295 78.1575 41.5549 78.1722 39.0804C78.7619 37.9034 79.9412 37.1641 81.2238 37.1641C82.5947 37.1641 83.8478 38.0241 84.3932 39.3369C84.3932 41.7964 84.3932 44.271 84.3785 46.7305" stroke="#9092A9" stroke-width="2" stroke-miterlimit="10"/>
<path d="M62.6953 38.5374C62.9607 37.8584 63.5208 36.6512 64.6854 35.5648C65.4815 34.8255 66.2775 34.403 66.8524 34.1465" stroke="#9092A9" stroke-width="2" stroke-miterlimit="10"/>
<path d="M96.5112 34.1465C96.9682 34.2974 98.3982 34.8255 99.3564 36.3646C99.946 37.3152 100.093 38.2507 100.138 38.7637" stroke="#9092A9" stroke-width="2" stroke-miterlimit="10"/>
<rect x="1.14453" y="0.5" width="161.6" height="94" stroke="#FAFAFA"/>
</svg>
