<svg width="31" height="31" viewBox="0 0 31 31" fill="none" xmlns="http://www.w3.org/2000/svg">
<path d="M15.3982 0C9.72794 0 5.14453 4.58341 5.14453 10.2537C5.14453 15.924 9.72794 20.5074 15.3982 20.5074C18.1177 20.5074 20.7258 19.4271 22.6487 17.5042C24.5717 15.5812 25.652 12.9732 25.652 10.2537C25.652 4.58341 21.0378 0 15.3982 0ZM12.1991 5.96766L14.3729 8.14145L13.286 9.22834L12.1991 8.14145L11.1122 9.22834L10.0253 8.14145L12.1991 5.96766ZM15.3982 15.8933C13.0091 15.8933 10.9789 14.3962 10.1586 12.3045H20.6379C19.8176 14.3962 17.7874 15.8933 15.3982 15.8933ZM19.6843 9.22834L18.5974 8.14145L17.5105 9.22834L16.4236 8.14145L18.5974 5.96766L20.7712 8.14145L19.6843 9.22834Z" fill="#2ACA87"/>
<path d="M1.71847 27.4307L2.17484 26.115H4.11683L4.57077 27.4307H5.36699L3.57793 22.4592H2.71132L0.922256 27.4307H1.71847ZM2.39331 25.4838L3.12642 23.3622H3.16526L3.89836 25.4838H2.39331ZM6.02666 27.4307H6.75248V25.1318C6.75248 24.6293 7.10446 24.2798 7.51714 24.2798C7.9201 24.2798 8.19926 24.5468 8.19926 24.9522V27.4307H8.92265V25.0542C8.92265 24.6051 9.19696 24.2798 9.67032 24.2798C10.0539 24.2798 10.3694 24.4934 10.3694 24.9983V27.4307H11.0953V24.9303C11.0953 24.0783 10.6195 23.6535 9.94463 23.6535C9.40815 23.6535 9.00519 23.9108 8.82555 24.3089H8.78671C8.62407 23.9011 8.2818 23.6535 7.78416 23.6535C7.29138 23.6535 6.92483 23.8987 6.76947 24.3089H6.72335V23.702H6.02666V27.4307ZM13.1532 27.5132C13.7697 27.5132 14.1169 27.2001 14.2552 26.9209H14.2844V27.4307H14.9932V24.9546C14.9932 23.8695 14.1387 23.6535 13.5464 23.6535C12.8716 23.6535 12.2501 23.9254 12.0074 24.6051L12.6895 24.7604C12.7963 24.4958 13.0682 24.2409 13.5561 24.2409C14.0246 24.2409 14.265 24.4861 14.265 24.9085V24.9255C14.265 25.1901 13.9931 25.1852 13.3231 25.2629C12.6167 25.3455 11.8933 25.5299 11.8933 26.3771C11.8933 27.1102 12.4443 27.5132 13.1532 27.5132ZM13.3109 26.9306C12.9007 26.9306 12.6045 26.7461 12.6045 26.3868C12.6045 25.9984 12.9493 25.8601 13.3692 25.8042C13.6047 25.7727 14.163 25.7096 14.2674 25.6052V26.0858C14.2674 26.5276 13.9154 26.9306 13.3109 26.9306ZM15.8823 27.4307H18.8754V26.7995H16.8654V26.7655L18.8074 24.2312V23.702H15.9478V24.3332H17.9019V24.3672L15.8823 26.933V27.4307ZM19.7317 27.4307H20.4575V23.702H19.7317V27.4307ZM20.0982 23.1267C20.3482 23.1267 20.557 22.9325 20.557 22.6946C20.557 22.4567 20.3482 22.2601 20.0982 22.2601C19.8457 22.2601 19.6394 22.4567 19.6394 22.6946C19.6394 22.9325 19.8457 23.1267 20.0982 23.1267ZM22.1598 25.2168C22.1598 24.6221 22.5239 24.2822 23.0288 24.2822C23.5216 24.2822 23.8202 24.6051 23.8202 25.1464V27.4307H24.546V25.059C24.546 24.1366 24.0386 23.6535 23.2764 23.6535C22.7157 23.6535 22.3491 23.9132 22.1767 24.3089H22.1306V23.702H21.4339V27.4307H22.1598V25.2168ZM27.0827 28.9066C28.0319 28.9066 28.765 28.4721 28.765 27.5132V23.702H28.0537V24.3065H28.0003C27.8716 24.0759 27.6143 23.6535 26.9201 23.6535C26.0195 23.6535 25.3568 24.3647 25.3568 25.5518C25.3568 26.7413 26.034 27.3748 26.9152 27.3748C27.5998 27.3748 27.8644 26.9889 27.9954 26.751H28.0416V27.4841C28.0416 28.0691 27.641 28.3216 27.09 28.3216C26.4855 28.3216 26.2501 28.0181 26.1214 27.8045L25.4976 28.0618C25.6942 28.5182 26.1918 28.9066 27.0827 28.9066ZM27.0754 26.7728C26.4273 26.7728 26.0899 26.2752 26.0899 25.5421C26.0899 24.826 26.42 24.2701 27.0754 24.2701C27.709 24.2701 28.0488 24.7871 28.0488 25.5421C28.0488 26.3116 27.7017 26.7728 27.0754 26.7728Z" fill="#586973" fill-opacity="0.79"/>
</svg>
