<svg width="41" height="31" viewBox="0 0 41 31" fill="none" xmlns="http://www.w3.org/2000/svg">
<path d="M3.25769 24.6236H3.98108C3.95924 23.8273 3.25526 23.2496 2.24543 23.2496C1.24773 23.2496 0.48307 23.8201 0.48307 24.677C0.48307 25.3688 0.978278 25.7742 1.77692 25.9902L2.36437 26.1504C2.896 26.2912 3.30624 26.466 3.30624 26.9078C3.30624 27.3933 2.84259 27.7137 2.20416 27.7137C1.62642 27.7137 1.14578 27.4564 1.10208 26.9151H0.349558C0.398108 27.8157 1.0948 28.3716 2.20902 28.3716C3.37664 28.3716 4.04905 27.7574 4.04905 26.9151C4.04905 26.0194 3.25041 25.6722 2.61926 25.5169L2.13376 25.3906C1.74536 25.2911 1.22831 25.1091 1.23074 24.6333C1.23074 24.2109 1.61671 23.8977 2.22844 23.8977C2.7989 23.8977 3.20429 24.1648 3.25769 24.6236ZM5.97223 28.3716C6.58881 28.3716 6.93594 28.0585 7.07431 27.7793H7.10344V28.2891H7.81227V25.813C7.81227 24.7279 6.95779 24.5119 6.36548 24.5119C5.69064 24.5119 5.0692 24.7838 4.82646 25.4635L5.50858 25.6188C5.61539 25.3542 5.88727 25.0993 6.37519 25.0993C6.8437 25.0993 7.08402 25.3445 7.08402 25.7669V25.7839C7.08402 26.0485 6.81214 26.0436 6.14216 26.1213C5.43576 26.2038 4.71236 26.3883 4.71236 27.2355C4.71236 27.9686 5.2634 28.3716 5.97223 28.3716ZM6.13002 27.789C5.71977 27.789 5.42362 27.6045 5.42362 27.2452C5.42362 26.8568 5.76832 26.7185 6.18828 26.6626C6.42374 26.6311 6.98207 26.568 7.08645 26.4636V26.9442C7.08645 27.386 6.73446 27.789 6.13002 27.789ZM10.5195 24.5604H9.75487V23.6671H9.02905V24.5604H8.48286V25.143H9.02905V27.3448C9.02662 28.022 9.54367 28.3497 10.1166 28.3376C10.3472 28.3352 10.5025 28.2915 10.5875 28.2599L10.4564 27.6603C10.4079 27.6701 10.318 27.6919 10.2015 27.6919C9.96606 27.6919 9.75487 27.6142 9.75487 27.1943V25.143H10.5195V24.5604ZM11.3224 28.2891H12.0482V24.5604H11.3224V28.2891ZM11.689 23.9851C11.939 23.9851 12.1478 23.7909 12.1478 23.553C12.1478 23.3151 11.939 23.1185 11.689 23.1185C11.4365 23.1185 11.2302 23.3151 11.2302 23.553C11.2302 23.7909 11.4365 23.9851 11.689 23.9851ZM15.8187 25.4707C15.6682 24.8906 15.2143 24.5119 14.4084 24.5119C13.566 24.5119 12.9689 24.9561 12.9689 25.6164C12.9689 26.1456 13.2893 26.4976 13.9884 26.6529L14.6196 26.7913C14.9788 26.8714 15.1463 27.0316 15.1463 27.2647C15.1463 27.5535 14.838 27.7793 14.3622 27.7793C13.9277 27.7793 13.6486 27.5924 13.5612 27.2258L12.8596 27.3326C12.981 27.9929 13.5296 28.3643 14.3671 28.3643C15.2677 28.3643 15.8916 27.8861 15.8916 27.2113C15.8916 26.6845 15.5566 26.3592 14.872 26.2014L14.2797 26.0655C13.8695 25.9684 13.6923 25.83 13.6947 25.5776C13.6923 25.2911 14.003 25.0872 14.4156 25.0872C14.8672 25.0872 15.0759 25.3372 15.1609 25.5873L15.8187 25.4707ZM18.4641 24.5604H17.6606V24.2254C17.6606 23.8953 17.7965 23.7157 18.1509 23.7157C18.3015 23.7157 18.4083 23.7497 18.4762 23.7715L18.6462 23.1841C18.5442 23.1452 18.333 23.0845 18.0393 23.0845C17.4494 23.0845 16.9323 23.4292 16.9323 24.1283V24.5604H16.357V25.143H16.9323V28.2891H17.6606V25.143H18.4641V24.5604ZM20.1846 28.3716C20.8012 28.3716 21.1483 28.0585 21.2867 27.7793H21.3158V28.2891H22.0246V25.813C22.0246 24.7279 21.1701 24.5119 20.5778 24.5119C19.903 24.5119 19.2815 24.7838 19.0388 25.4635L19.7209 25.6188C19.8277 25.3542 20.0996 25.0993 20.5875 25.0993C21.056 25.0993 21.2964 25.3445 21.2964 25.7669V25.7839C21.2964 26.0485 21.0245 26.0436 20.3545 26.1213C19.6481 26.2038 18.9247 26.3883 18.9247 27.2355C18.9247 27.9686 19.4757 28.3716 20.1846 28.3716ZM20.3424 27.789C19.9321 27.789 19.636 27.6045 19.636 27.2452C19.636 26.8568 19.9807 26.7185 20.4006 26.6626C20.6361 26.6311 21.1944 26.568 21.2988 26.4636V26.9442C21.2988 27.386 20.9468 27.789 20.3424 27.789ZM24.5619 28.3643C25.4431 28.3643 26.0136 27.8351 26.0937 27.1093H25.3873C25.295 27.5123 24.9819 27.7502 24.5668 27.7502C23.9526 27.7502 23.557 27.238 23.557 26.4248C23.557 25.6261 23.9599 25.1236 24.5668 25.1236C25.028 25.1236 25.3096 25.4149 25.3873 25.7645H26.0937C26.016 25.012 25.4019 24.5119 24.5547 24.5119C23.5036 24.5119 22.8239 25.3033 22.8239 26.4417C22.8239 27.5657 23.4793 28.3643 24.5619 28.3643ZM28.6104 24.5604H27.8457V23.6671H27.1199V24.5604H26.5737V25.143H27.1199V27.3448C27.1175 28.022 27.6345 28.3497 28.2074 28.3376C28.438 28.3352 28.5934 28.2915 28.6784 28.2599L28.5473 27.6603C28.4987 27.6701 28.4089 27.6919 28.2924 27.6919C28.0569 27.6919 27.8457 27.6142 27.8457 27.1943V25.143H28.6104V24.5604ZM30.9438 28.3643C31.9949 28.3643 32.6819 27.5948 32.6819 26.4417C32.6819 25.2814 31.9949 24.5119 30.9438 24.5119C29.8927 24.5119 29.2057 25.2814 29.2057 26.4417C29.2057 27.5948 29.8927 28.3643 30.9438 28.3643ZM30.9462 27.755C30.2593 27.755 29.9388 27.1554 29.9388 26.4393C29.9388 25.7256 30.2593 25.1188 30.9462 25.1188C31.6284 25.1188 31.9488 25.7256 31.9488 26.4393C31.9488 27.1554 31.6284 27.755 30.9462 27.755ZM33.4921 28.2891H34.2179V26.0121C34.2179 25.5242 34.5942 25.1722 35.1088 25.1722C35.2593 25.1722 35.4292 25.1989 35.4875 25.2159V24.5216C35.4146 24.5119 35.2714 24.5046 35.1792 24.5046C34.7422 24.5046 34.3684 24.7522 34.2325 25.1527H34.1936V24.5604H33.4921V28.2891ZM36.6879 29.6873C37.2874 29.6873 37.6661 29.3742 37.8822 28.7867L39.4236 24.5677L38.6396 24.5604L37.6953 27.454H37.6564L36.7121 24.5604H35.9353L37.2996 28.3376L37.2098 28.5852C37.0253 29.0804 36.7655 29.1217 36.3674 29.0125L36.1927 29.6072C36.28 29.646 36.4694 29.6873 36.6879 29.6873Z" fill="#586973" fill-opacity="0.79"/>
<path d="M20.1391 21.4189C14.2243 21.4189 9.42969 16.6243 9.42969 10.7094C9.42969 4.79461 14.2243 0 20.1391 0C26.0539 0 30.8486 4.79461 30.8486 10.7094C30.8486 16.6243 26.0539 21.4189 20.1391 21.4189ZM14.7844 11.7804C14.7844 13.2005 15.3486 14.5625 16.3528 15.5667C17.357 16.5709 18.719 17.1351 20.1391 17.1351C21.5593 17.1351 22.9213 16.5709 23.9255 15.5667C24.9297 14.5625 25.4938 13.2005 25.4938 11.7804H23.352C23.352 12.6325 23.0135 13.4497 22.4109 14.0522C21.8084 14.6547 20.9912 14.9932 20.1391 14.9932C19.287 14.9932 18.4698 14.6547 17.8673 14.0522C17.2648 13.4497 16.9263 12.6325 16.9263 11.7804H14.7844ZM15.8553 9.63849C16.2814 9.63849 16.69 9.46924 16.9913 9.16798C17.2925 8.86672 17.4618 8.45812 17.4618 8.03208C17.4618 7.60603 17.2925 7.19743 16.9913 6.89617C16.69 6.59491 16.2814 6.42566 15.8553 6.42566C15.4293 6.42566 15.0207 6.59491 14.7194 6.89617C14.4182 7.19743 14.2489 7.60603 14.2489 8.03208C14.2489 8.45812 14.4182 8.86672 14.7194 9.16798C15.0207 9.46924 15.4293 9.63849 15.8553 9.63849ZM24.4229 9.63849C24.8489 9.63849 25.2575 9.46924 25.5588 9.16798C25.8601 8.86672 26.0293 8.45812 26.0293 8.03208C26.0293 7.60603 25.8601 7.19743 25.5588 6.89617C25.2575 6.59491 24.8489 6.42566 24.4229 6.42566C23.9968 6.42566 23.5883 6.59491 23.287 6.89617C22.9857 7.19743 22.8165 7.60603 22.8165 8.03208C22.8165 8.45812 22.9857 8.86672 23.287 9.16798C23.5883 9.46924 23.9968 9.63849 24.4229 9.63849Z" fill="#FFBF00"/>
<rect x="13.5316" y="11.3945" width="12.7602" height="5.92437" fill="#FFBF00"/>
<rect x="14.4414" y="13.2188" width="11.8487" height="1.82288" fill="white"/>
</svg>
