<svg width="35" height="23" viewBox="0 0 35 23" fill="none" xmlns="http://www.w3.org/2000/svg">
<path d="M17.5056 7.33461L21.0615 3.69922L17.5056 0.0638236L13.9496 3.69922L17.5056 7.33461Z" fill="#FFBF00"/>
<path d="M5.49075 19.3788C8.43744 19.3788 10.8262 16.9366 10.8262 13.9241C10.8262 10.9116 8.43744 8.46948 5.49075 8.46948C2.54405 8.46948 0.155273 10.9116 0.155273 13.9241C0.155273 16.9366 2.54405 19.3788 5.49075 19.3788Z" fill="#FFBF00"/>
<path d="M17.4981 19.3788C20.4448 19.3788 22.8335 16.9366 22.8335 13.9241C22.8335 10.9116 20.4448 8.46948 17.4981 8.46948C14.5514 8.46948 12.1626 10.9116 12.1626 13.9241C12.1626 16.9366 14.5514 19.3788 17.4981 19.3788Z" fill="#FFBF00"/>
<path d="M29.5054 19.3788C32.4521 19.3788 34.8409 16.9366 34.8409 13.9241C34.8409 10.9116 32.4521 8.46948 29.5054 8.46948C26.5587 8.46948 24.1699 10.9116 24.1699 13.9241C24.1699 16.9366 26.5587 19.3788 29.5054 19.3788Z" fill="#FFBF00"/>
<path d="M29.505 21.5625H5.49072V22.8601H29.505V21.5625Z" fill="#FFBF00"/>
</svg>
