<svg width="125" height="49" viewBox="0 0 125 49" fill="none" xmlns="http://www.w3.org/2000/svg">
<path d="M12.0694 38.8277H13.2045C12.898 40.0665 12.2706 41.1192 11.3127 41.9761C10.3644 42.8183 9.05683 43.2394 7.3853 43.2394C5.18694 43.2394 3.40526 42.5 2.04984 41.0164C0.684848 39.5279 0 37.6231 0 35.3022C0 33.0058 0.665692 31.1549 1.99237 29.7399C3.31905 28.3101 5.02893 27.5952 7.12192 27.5952C7.73497 27.5952 8.38632 27.6931 9.08079 27.889C9.77526 28.0849 10.3596 28.1828 10.8337 28.1828C11.2073 28.1828 11.5904 28.124 11.9784 28.0065C12.1316 29.5734 12.4525 30.9689 12.9411 32.1881H11.351C10.3117 29.8329 8.9036 28.6431 7.12671 28.6284C5.94372 28.6284 5.04329 29.1278 4.42545 30.1267C3.80761 31.1256 3.49627 32.5994 3.49627 34.5531C3.49627 36.7761 3.89379 38.6024 4.68884 40.0224C5.48868 41.4375 6.63337 42.1426 8.11331 42.1426C8.99936 42.1426 9.78965 41.8684 10.4793 41.3151C11.1642 40.7667 11.6958 39.9343 12.0694 38.8277Z" fill="black"/>
<path d="M19.8142 30.6553C21.2558 30.6553 22.5681 31.2184 23.7559 32.3397C24.9293 33.4658 25.5184 34.9935 25.5184 36.9276C25.5184 37.9118 25.3508 38.8128 25.0155 39.6305C24.6803 40.4482 24.2253 41.119 23.6506 41.6331C22.5107 42.6418 21.2414 43.1412 19.8381 43.1412C18.3964 43.1412 17.0793 42.5781 15.8963 41.4568C14.7181 40.3258 14.1338 38.7932 14.1338 36.8542C14.1338 35.8798 14.3014 34.9788 14.6415 34.1562C14.9816 33.3336 15.4317 32.6677 15.9969 32.1585C17.1224 31.1596 18.3917 30.6553 19.8142 30.6553ZM20.1925 42.2354C20.8343 42.2354 21.3276 41.8535 21.6677 41.0945C22.0125 40.3356 22.1849 39.2583 22.1849 37.8677C22.1849 36.012 21.9311 34.4941 21.4282 33.3238C20.9397 32.1438 20.2835 31.5562 19.4598 31.5562C18.818 31.5562 18.3246 31.9332 17.9846 32.6922C17.6397 33.4511 17.4673 34.5186 17.4673 35.8994C17.4673 37.7649 17.7211 39.2926 18.224 40.4776C18.7269 41.6478 19.3831 42.2354 20.1925 42.2354Z" fill="black"/>
<path d="M30.9207 30.0242V41.1832C30.9207 41.6581 31.414 41.9519 32.3958 42.0596V42.8774C30.3795 42.7892 28.3584 42.7892 26.3276 42.8774V42.0596C27.2807 41.9519 27.7597 41.6581 27.7597 41.1832V29.3534C27.7597 28.9029 27.6447 28.5944 27.4101 28.4279C27.1754 28.2663 26.8257 28.2223 26.3515 28.3006V27.4829C27.9608 27.1842 29.3306 26.6897 30.4513 25.9944C30.7435 26.1266 30.9494 26.3322 31.0692 26.6162C30.9878 27.2381 30.9398 28.3741 30.9207 30.0242Z" fill="black"/>
<path d="M37.7029 30.0242V41.1832C37.7029 41.6581 38.1962 41.9519 39.178 42.0596V42.8774C37.1617 42.7892 35.1406 42.7892 33.1099 42.8774V42.0596C34.063 41.9519 34.5419 41.6581 34.5419 41.1832V29.3534C34.5419 28.9029 34.4269 28.5944 34.1922 28.4279C33.9575 28.2663 33.6079 28.2223 33.1338 28.3006V27.4829C34.743 27.1842 36.1128 26.6897 37.2336 25.9944C37.5257 26.1266 37.7316 26.3322 37.8513 26.6162C37.7699 27.2381 37.7173 28.3741 37.7029 30.0242Z" fill="black"/>
<path d="M49.3073 40.4342H50.203C49.4175 42.2312 47.9758 43.137 45.8829 43.1517C44.2257 43.1517 42.8272 42.5935 41.6921 41.4771C40.5618 40.351 39.9966 38.8233 39.9966 36.8892C39.9966 34.9355 40.5522 33.4127 41.6586 32.311C42.7745 31.2093 44.0916 30.6609 45.6099 30.6609C47.0084 30.6609 48.1722 31.1261 49.1014 32.0564C50.0257 32.9769 50.4855 34.1178 50.4855 35.4741C50.4855 36.0764 50.3801 36.5072 50.1742 36.7668C49.9682 37.0263 49.6186 37.1585 49.1205 37.1585H43.3013C43.3013 38.6127 43.5648 39.8172 44.0916 40.777C44.6328 41.7367 45.4566 42.2165 46.5678 42.2165C47.8274 42.2116 48.7422 41.6191 49.3073 40.4342ZM43.3061 36.2869H47.5544C47.5544 34.7005 47.3963 33.5155 47.085 32.7321C46.7737 31.9487 46.2708 31.5569 45.5859 31.5569C44.8675 31.5569 44.3071 31.9731 43.9096 32.8055C43.5025 33.633 43.3061 34.7984 43.3061 36.2869Z" fill="black"/>
<path d="M62.6268 30.6993C63.4601 30.6993 63.8769 31.1106 63.8769 31.9381C63.8769 32.702 63.5943 33.0839 63.0291 33.0839C62.9429 33.0839 62.7849 33.0545 62.555 32.9909C62.3203 32.9272 62.1766 32.8978 62.1143 32.8978C61.803 32.8978 61.6928 33.0643 61.7934 33.4022C61.9706 33.9898 62.052 34.5284 62.0472 35.0278C62.0472 36.2911 61.5875 37.3096 60.6727 38.0734C59.7723 38.8323 58.6036 39.2094 57.1668 39.2094C56.6639 39.2094 56.1418 39.1506 55.5958 39.0331C55.0786 38.9058 54.7625 38.847 54.6571 38.847C54.1925 38.847 53.9578 39.038 53.9578 39.4199C53.9578 39.6794 54.0872 39.8802 54.3458 40.0222C54.6044 40.1691 55.069 40.2915 55.73 40.4041L58.4551 40.835C60.0836 41.0945 61.2713 41.4422 62.0281 41.8779C62.7704 42.3088 63.1393 42.9747 63.1393 43.8806C63.1393 45.1537 62.5262 46.1672 61.3049 46.9262C60.0836 47.69 58.5749 48.0719 56.7788 48.0719C55.2606 48.0719 54.0201 47.7929 53.067 47.2298C52.1187 46.6814 51.6445 45.893 51.6445 44.8648C51.6445 44.3017 51.7978 43.8463 52.1091 43.4938C52.4204 43.1412 52.8228 42.965 53.3304 42.965C53.7328 42.965 54.0584 43.0727 54.3027 43.2881C54.547 43.5036 54.6715 43.8071 54.6715 44.194C54.6715 44.3555 54.6379 44.571 54.5661 44.8403C54.499 45.1145 54.4607 45.3495 54.4607 45.5552C54.4607 46.0301 54.6906 46.4316 55.1456 46.7597C55.6102 47.0976 56.2568 47.264 57.0806 47.264C58.0576 47.264 58.8718 47.0437 59.5184 46.5981C60.1746 46.1623 60.5051 45.5503 60.5051 44.7717C60.5051 44.3262 60.371 43.9785 60.1028 43.7288C59.8345 43.4791 59.3939 43.2979 58.7761 43.1902L54.6667 42.441C52.7557 42.1032 51.8026 41.354 51.8026 40.1936C51.8026 39.6403 52.0133 39.1898 52.4348 38.8421C52.8563 38.4945 53.4262 38.3133 54.1542 38.2986C53.5507 38.0097 53.067 37.5691 52.703 36.9717C52.339 36.3743 52.157 35.6986 52.157 34.9397C52.157 33.7205 52.612 32.702 53.522 31.8843C54.432 31.0666 55.6102 30.6553 57.0614 30.6553C57.9187 30.6553 58.6228 30.7924 59.1784 31.0666C59.7291 31.331 60.2608 31.708 60.7685 32.1928C61.0846 31.1988 61.7024 30.6993 62.6268 30.6993ZM55.6629 37.3536C55.9599 38 56.4388 38.3231 57.095 38.3231C57.7511 38.3231 58.2301 38 58.527 37.3536C58.8239 36.7122 58.9724 35.9092 58.9724 34.9397C58.9724 33.98 58.8239 33.172 58.527 32.5159C58.2301 31.8598 57.7511 31.5317 57.095 31.5317C56.4388 31.5317 55.9599 31.8598 55.6629 32.5159C55.366 33.172 55.2175 33.98 55.2175 34.9397C55.2175 35.9092 55.366 36.7122 55.6629 37.3536Z" fill="black"/>
<path d="M73.6427 40.4342H74.5384C73.7529 42.2312 72.3113 43.137 70.2183 43.1517C68.5611 43.1517 67.1626 42.5935 66.0275 41.4771C64.8972 40.351 64.332 38.8233 64.332 36.8892C64.332 34.9355 64.8876 33.4127 65.994 32.311C67.1099 31.2093 68.427 30.6609 69.9453 30.6609C71.3438 30.6609 72.5077 31.1261 73.4368 32.0564C74.3612 32.9769 74.821 34.1178 74.821 35.4741C74.821 36.0764 74.7156 36.5072 74.5096 36.7668C74.3037 37.0263 73.9541 37.1585 73.456 37.1585H67.6368C67.6368 38.6127 67.9002 39.8172 68.427 40.777C68.9683 41.7367 69.792 42.2165 70.9032 42.2165C72.1676 42.2116 73.0776 41.6191 73.6427 40.4342ZM67.6416 36.2869H71.8898C71.8898 34.7005 71.7318 33.5155 71.4205 32.7321C71.1091 31.9487 70.6063 31.5569 69.9214 31.5569C69.2029 31.5569 68.6426 31.9731 68.245 32.8055C67.8427 33.633 67.6416 34.7984 67.6416 36.2869Z" fill="black"/>
<path d="M83.4901 34.3669L87.2355 39.5424C88.5047 41.3003 89.6589 42.2355 90.7078 42.353V42.8818C89.726 43.4253 87.8773 43.1217 87.0295 42.8231C86.1962 42.5342 85.4298 41.8976 84.7258 40.9134L81.5887 36.5458L80.8319 37.4125V40.8645C80.8319 41.2807 80.9565 41.5696 81.2055 41.7361C81.4546 41.9025 81.9096 42.0103 82.5753 42.0592V42.8769C80.3099 42.7986 78.0493 42.7986 75.7935 42.8769V42.0592C76.4592 42.0103 76.9142 41.9074 77.1632 41.7361C77.4123 41.5696 77.5368 41.2758 77.5368 40.8645V29.9993C77.5368 29.588 77.4123 29.2942 77.1632 29.1277C76.9142 28.9612 76.4592 28.8535 75.7935 28.8045V27.9868C78.0589 28.0652 80.3195 28.0652 82.5753 27.9868V28.8045C81.9096 28.8535 81.4546 28.9563 81.2055 29.1277C80.9565 29.2942 80.8319 29.588 80.8319 29.9993V35.8995L85.5256 30.5721C86.3351 29.4949 85.9519 28.9073 84.3809 28.8045V27.9868C86.2057 28.0505 88.0258 28.0505 89.8458 27.9868V28.8045C89.2135 28.8535 88.6915 28.9955 88.2892 29.2354C87.8916 29.4606 87.4558 29.8426 86.9817 30.3812L83.4901 34.3669Z" fill="black"/>
<path d="M96.1248 34.6607V41.1827C96.1248 41.6577 96.6181 41.9515 97.5999 42.0592V42.8769C95.5836 42.7888 93.5625 42.7888 91.5317 42.8769V42.0592C92.4848 41.9515 92.9638 41.6577 92.9638 41.1827V33.9801C92.9638 33.51 92.8488 33.1966 92.6237 33.0301C92.3986 32.8686 92.0394 32.8245 91.5509 32.9028V32.0851C93.1601 31.7864 94.5299 31.2919 95.6506 30.5966C95.9332 30.7288 96.1392 30.9394 96.2685 31.2282C96.1871 31.855 96.1392 32.9959 96.1248 34.6607ZM95.6458 28.5842C95.3249 28.922 94.9418 29.0885 94.4868 29.0885C94.0318 29.0885 93.6487 28.922 93.3182 28.5842C92.9877 28.2463 92.8249 27.8497 92.8249 27.3894C92.8249 26.9292 92.9877 26.5326 93.3182 26.2045C93.6487 25.8764 94.0366 25.7148 94.4868 25.7148C94.937 25.7148 95.3249 25.8764 95.6458 26.2045C95.9667 26.5326 96.1248 26.9243 96.1248 27.3894C96.1248 27.8546 95.9619 28.2463 95.6458 28.5842Z" fill="black"/>
<path d="M110.473 34.8228V41.1784C110.473 41.6534 110.967 41.9472 111.949 42.0549V42.8726C109.918 42.8089 107.878 42.8089 105.832 42.8726V42.0549C106.819 41.9765 107.308 41.6827 107.308 41.1784V34.8228C107.308 33.0258 106.728 32.12 105.564 32.1053C104.908 32.1053 104.353 32.3599 103.902 32.8642C103.443 33.3784 103.155 33.8925 103.031 34.4115V41.1784C103.031 41.6925 103.524 41.9863 104.506 42.0549V42.8726C102.475 42.8089 100.444 42.8089 98.4136 42.8726V42.0549C99.381 41.9521 99.8695 41.6583 99.8695 41.1784V33.9806C99.8695 33.0993 99.3906 32.7418 98.4375 32.9034V32.0857C99.9701 31.7723 101.292 31.2778 102.398 30.5972C102.671 30.7245 102.877 30.935 103.007 31.2288L102.652 33.3833H102.801C102.997 33.0013 103.241 32.6243 103.524 32.2571C103.835 31.8752 104.309 31.5079 104.946 31.1554C105.593 30.7784 106.292 30.5923 107.044 30.5923C108.021 30.5923 108.835 30.9106 109.482 31.552C110.148 32.2032 110.473 33.2951 110.473 34.8228Z" fill="black"/>
<path d="M123.75 30.6993C124.583 30.6993 125 31.1106 125 31.9381C125 32.702 124.717 33.0839 124.152 33.0839C124.066 33.0839 123.908 33.0545 123.678 32.9909C123.443 32.9272 123.3 32.8978 123.237 32.8978C122.926 32.8978 122.816 33.0643 122.916 33.4022C123.094 33.9898 123.175 34.5284 123.17 35.0278C123.17 36.2911 122.711 37.3096 121.796 38.0734C120.895 38.8323 119.727 39.2094 118.29 39.2094C117.787 39.2094 117.265 39.1506 116.719 39.0331C116.202 38.9058 115.886 38.847 115.78 38.847C115.316 38.847 115.081 39.038 115.081 39.4199C115.081 39.6794 115.21 39.8802 115.469 40.0222C115.727 40.1691 116.192 40.2915 116.853 40.4041L119.578 40.835C121.207 41.0945 122.394 41.4422 123.151 41.8779C123.894 42.3088 124.262 42.9747 124.262 43.8806C124.262 45.1537 123.649 46.1672 122.428 46.9262C121.207 47.69 119.698 48.0719 117.902 48.0719C116.384 48.0719 115.143 47.7929 114.19 47.2298C113.242 46.6814 112.768 45.893 112.768 44.8648C112.768 44.3017 112.921 43.8463 113.232 43.4938C113.543 43.1412 113.946 42.965 114.453 42.965C114.856 42.965 115.181 43.0727 115.426 43.2881C115.67 43.5036 115.794 43.8071 115.794 44.194C115.794 44.3555 115.761 44.571 115.689 44.8403C115.622 45.1145 115.584 45.3495 115.584 45.5552C115.584 46.0301 115.814 46.4316 116.269 46.7597C116.733 47.0976 117.38 47.264 118.204 47.264C119.181 47.264 119.995 47.0437 120.641 46.5981C121.298 46.1623 121.628 45.5503 121.628 44.7717C121.628 44.3262 121.494 43.9785 121.226 43.7288C120.958 43.4791 120.517 43.2979 119.899 43.1902L115.79 42.441C113.879 42.1032 112.926 41.354 112.926 40.1936C112.926 39.6403 113.136 39.1898 113.558 38.8421C113.979 38.4945 114.549 38.3133 115.277 38.2986C114.674 38.0097 114.19 37.5691 113.826 36.9717C113.462 36.3743 113.28 35.6986 113.28 34.9397C113.28 33.7205 113.735 32.702 114.645 31.8843C115.555 31.0666 116.733 30.6553 118.184 30.6553C119.042 30.6553 119.746 30.7924 120.301 31.0666C120.852 31.331 121.384 31.708 121.892 32.1928C122.212 31.1988 122.825 30.6993 123.75 30.6993ZM116.786 37.3536C117.083 38 117.562 38.3231 118.218 38.3231C118.874 38.3231 119.353 38 119.65 37.3536C119.947 36.7122 120.095 35.9092 120.095 34.9397C120.095 33.98 119.947 33.172 119.65 32.5159C119.353 31.8598 118.874 31.5317 118.218 31.5317C117.562 31.5317 117.083 31.8598 116.786 32.5159C116.489 33.172 116.341 33.98 116.341 34.9397C116.341 35.9092 116.489 36.7122 116.786 37.3536Z" fill="black"/>
<path d="M62.5056 7.33461L66.0615 3.69922L62.5056 0.0638236L58.9496 3.69922L62.5056 7.33461Z" fill="#FFBF00"/>
<path d="M50.4907 19.3788C53.4374 19.3788 55.8262 16.9366 55.8262 13.9241C55.8262 10.9116 53.4374 8.46948 50.4907 8.46948C47.5441 8.46948 45.1553 10.9116 45.1553 13.9241C45.1553 16.9366 47.5441 19.3788 50.4907 19.3788Z" fill="#FFBF00"/>
<path d="M62.4981 19.3788C65.4448 19.3788 67.8335 16.9366 67.8335 13.9241C67.8335 10.9116 65.4448 8.46948 62.4981 8.46948C59.5514 8.46948 57.1626 10.9116 57.1626 13.9241C57.1626 16.9366 59.5514 19.3788 62.4981 19.3788Z" fill="#FFBF00"/>
<path d="M74.5054 19.3788C77.4521 19.3788 79.8409 16.9366 79.8409 13.9241C79.8409 10.9116 77.4521 8.46948 74.5054 8.46948C71.5587 8.46948 69.1699 10.9116 69.1699 13.9241C69.1699 16.9366 71.5587 19.3788 74.5054 19.3788Z" fill="#FFBF00"/>
<path d="M74.505 21.5625H50.4907V22.8601H74.505V21.5625Z" fill="#FFBF00"/>
</svg>
