<svg width="16" height="18" viewBox="0 0 16 18" fill="none" xmlns="http://www.w3.org/2000/svg">
<path d="M15.2163 12.309C14.8779 11.3214 14.705 10.2884 14.704 9.2487V6.67963C14.7286 5.05176 14.1244 3.47296 13.0081 2.24868C11.8957 1.02247 10.3517 0.234049 8.67207 0.0344993C7.74388 -0.0580799 6.79963 0.0344993 5.90354 0.326381C5.00744 0.602833 4.19159 1.06444 3.50414 1.68035C2.81326 2.28037 2.26259 3.01444 1.88849 3.8341C1.51253 4.65345 1.31629 5.53851 1.31205 6.43403V9.26284C1.31008 10.2983 1.13719 11.3269 0.799799 12.3102L0 14.5849L0.640642 15.4309H5.32843C5.32843 16.1073 5.61598 16.7682 6.11218 17.2465C6.60704 17.7223 7.29583 18 8.00067 18C8.70417 18 9.39162 17.7235 9.88782 17.2465C10.384 16.7695 10.6729 16.1073 10.6729 15.4309H15.3607L16 14.5849L15.2163 12.309ZM8.94358 16.3554C8.82052 16.4761 8.67387 16.5722 8.51205 16.6382C8.35023 16.7042 8.17644 16.7387 8.00067 16.7399C7.82458 16.7387 7.65048 16.704 7.48841 16.6378C7.32635 16.5716 7.17952 16.4752 7.05642 16.3541C6.93067 16.236 6.83048 16.095 6.76161 15.9394C6.69275 15.7839 6.65658 15.6167 6.65519 15.4476H9.32876C9.33434 15.6163 9.30306 15.7843 9.23694 15.9407C9.17082 16.097 9.07134 16.2383 8.94491 16.3554H8.94358ZM1.5675 14.1567L2.0637 12.7243C2.45064 11.6084 2.65063 10.4404 2.65619 9.26413V6.43403C2.65619 5.71012 2.81668 5.00291 3.12029 4.35615C3.42389 3.69523 3.85589 3.11019 4.41628 2.63315C4.97668 2.14196 5.63337 1.77164 6.33687 1.55691C7.05642 1.32546 7.80807 1.24831 8.54368 1.32546C9.89185 1.49589 11.1279 2.13652 12.0171 3.12561C12.9064 4.11594 13.3846 5.38689 13.3599 6.69506V9.27956C13.3599 10.4484 13.5525 11.6172 13.9524 12.7397L14.4486 14.1708H1.56884V14.1554L1.5675 14.1567Z" fill="#252525"/>
</svg>
